SplineFontDB: 3.2
FontName: Anonymous
FullName: AnonymousRegular
FamilyName: Anonymous
Weight: Book
Copyright: Copyright (c) 2005, Mark Simonson. All rights reserved.
Version: 1.0
ItalicAngle: 0
UnderlinePosition: 1
UnderlineWidth: 0
Ascent: 880
Descent: 220
InvalidEm: 0
sfntRevision: 0x000100c5
LayerCount: 2
Layer: 0 1 "Back" 1
Layer: 1 1 "Fore" 0
XUID: [1021 812 550003784 9810687]
StyleMap: 0x0040
FSType: 0
OS2Version: 1
OS2_WeightWidthSlopeOnly: 0
OS2_UseTypoMetrics: 0
CreationTime: 1111507500
ModificationTime: 1660713339
PfmFamily: 17
TTFWeight: 400
TTFWidth: 5
LineGap: 220
VLineGap: 0
Panose: 2 0 4 9 0 0 0 0 0 0
OS2TypoAscent: 880
OS2TypoAOffset: 0
OS2TypoDescent: -220
OS2TypoDOffset: 0
OS2TypoLinegap: 220
OS2WinAscent: 880
OS2WinAOffset: 0
OS2WinDescent: 220
OS2WinDOffset: 0
HheadAscent: 880
HheadAOffset: 0
HheadDescent: -220
HheadDOffset: 0
OS2SubXSize: 770
OS2SubYSize: 715
OS2SubXOff: 0
OS2SubYOff: 157
OS2SupXSize: 770
OS2SupYSize: 715
OS2SupXOff: 0
OS2SupYOff: 498
OS2StrikeYSize: 55
OS2StrikeYPos: 285
OS2Vendor: 'mlss'
OS2CodePages: 20000111.40000000
OS2UnicodeRanges: 80000007.00000000.00000000.00000000
DEI: 91125
TtTable: prep
PUSHW_1
 10
CALL
SVTCA[y-axis]
PUSHW_3
 32
 4
 17
CALL
PUSHW_1
 31
DUP
RCVT
RDTG
ROUND[Black]
RTG
WCVTP
NPUSHB
 29
 17
 17
 16
 16
 15
 15
 14
 14
 13
 13
 12
 12
 11
 11
 10
 10
 9
 9
 8
 8
 3
 3
 2
 2
 1
 1
 0
 0
 1
SCANTYPE
PUSHW_1
 511
SCANCTRL
RCVT
ROUND[Grey]
WCVTP
RCVT
ROUND[Grey]
WCVTP
RCVT
ROUND[Grey]
WCVTP
RCVT
ROUND[Grey]
WCVTP
RCVT
ROUND[Grey]
WCVTP
RCVT
ROUND[Grey]
WCVTP
RCVT
ROUND[Grey]
WCVTP
RCVT
ROUND[Grey]
WCVTP
RCVT
ROUND[Grey]
WCVTP
RCVT
ROUND[Grey]
WCVTP
RCVT
ROUND[Grey]
WCVTP
RCVT
ROUND[Grey]
WCVTP
RCVT
ROUND[Grey]
WCVTP
RCVT
ROUND[Grey]
WCVTP
PUSHB_4
 5
 4
 70
 0
CALL
PUSHB_4
 7
 6
 70
 0
CALL
PUSHB_2
 4
 4
RCVT
ROUND[Grey]
WCVTP
PUSHB_2
 6
 6
RCVT
ROUND[Grey]
WCVTP
EndTTInstrs
TtTable: fpgm
NPUSHB
 1
 0
FDEF
SROUND
RCVT
DUP
PUSHB_1
 3
CINDEX
RCVT
SWAP
SUB
ROUND[Grey]
RTG
SWAP
ROUND[Grey]
ADD
WCVTP
ENDF
PUSHW_1

StartChar: exclam
Encoding: 33 33 2
Width: 734
GlyphClass: 1
Flags: W
LayerCount: 2
Fore
SplineSet
368 852 m 1,0,-1
 334 241 l 1,1,-1
 281 241 l 1,2,-1
 247 852 l 1,3,-1
 368 852 l 1,0,-1
365 0 m 1,4,-1
 245 0 l 1,5,-1
 245 119 l 1,6,-1
 365 119 l 1,7,-1
 365 0 l 1,4,-1
EndSplineSet
Validated: 1
EndChar

StartChar: quotedbl
Encoding: 34 34 3
Width: 734
GlyphClass: 1
Flags: W
LayerCount: 2
Fore
SplineSet
491 855 m 1,0,-1
 463 550 l 1,1,-1
 398 550 l 1,2,-1
 370 855 l 1,3,-1
 491 855 l 1,0,-1
245 855 m 1,4,-1
 217 550 l 1,5,-1
 152 550 l 1,6,-1
 124 855 l 1,7,-1
 245 855 l 1,4,-1
EndSplineSet
Validated: 1
EndChar

StartChar: numbersign
Encoding: 35 35 4
Width: 734
GlyphClass: 1
Flags: W
LayerCount: 2
Fore
SplineSet
612 392 m 1,0,-1
 464 392 l 1,1,-1
 464 244 l 1,2,-1
 391 244 l 1,3,-1
 391 392 l 1,4,-1
 221 392 l 1,5,-1
 221 244 l 1,6,-1
 148 244 l 1,7,-1
 148 392 l 1,8,-1
 0 392 l 1,9,-1
 0 465 l 1,10,-1
 148 465 l 1,11,-1
 148 635 l 1,12,-1
 0 635 l 1,13,-1
 0 707 l 1,14,-1
 148 707 l 1,15,-1
 148 855 l 1,16,-1
 221 855 l 1,17,-1
 221 707 l 1,18,-1
 391 707 l 1,19,-1
 391 855 l 1,20,-1
 464 855 l 1,21,-1
 464 707 l 1,22,-1
 612 707 l 1,23,-1
 612 635 l 1,24,-1
 464 635 l 1,25,-1
 464 465 l 1,26,-1
 612 465 l 1,27,-1
 612 392 l 1,0,-1
391 465 m 1,28,-1
 391 635 l 1,29,-1
 221 635 l 1,30,-1
 221 465 l 1,31,-1
 391 465 l 1,28,-1
EndSplineSet
Validated: 1
EndChar

StartChar: dollar
Encoding: 36 36 5
Width: 734
GlyphClass: 1
Flags: WO
LayerCount: 2
Fore
SplineSet
356 667 m 5,0,-1
 82.7998046875 200.732421875 l 5,1,-1
 623.200195312 197.267578125 l 5,2,-1
 356 667 l 5,0,-1
356 821 m 5,3,-1
 755.702148438 121.767578125 l 5,4,-1
 -49.7021484375 125.232421875 l 5,5,-1
 356 821 l 5,3,-1
EndSplineSet
EndChar

StartChar: percent
Encoding: 37 37 6
Width: 734
GlyphClass: 1
Flags: W
LayerCount: 2
Fore
SplineSet
316 705 m 0,0,1
 316 637 316 637 267.5 588.5 c 128,-1,2
 219 540 219 540 151 540 c 0,3,4
 82 540 82 540 33.5 588.5 c 128,-1,5
 -15 637 -15 637 -15 705 c 0,6,7
 -15 774 -15 774 33.5 822.5 c 128,-1,8
 82 871 82 871 151 871 c 0,9,10
 219 871 219 871 267.5 822.5 c 128,-1,11
 316 774 316 774 316 705 c 0,0,1
612 835 m 1,12,-1
 63 -19 l 1,13,-1
 2 21 l 1,14,-1
 551 876 l 1,15,-1
 612 835 l 1,12,-1
630 150 m 0,16,17
 630 81 630 81 581.5 32.5 c 128,-1,18
 533 -16 533 -16 464 -16 c 256,19,20
 395 -16 395 -16 346.5 32.5 c 128,-1,21
 298 81 298 81 298 150 c 0,22,23
 298 218 298 218 346.5 266.5 c 128,-1,24
 395 315 395 315 464 315 c 256,25,26
 533 315 533 315 581.5 266.5 c 128,-1,27
 630 218 630 218 630 150 c 0,16,17
249 705 m 256,28,29
 249 746 249 746 220.5 775 c 128,-1,30
 192 804 192 804 151 804 c 256,31,32
 110 804 110 804 81 775 c 128,-1,33
 52 746 52 746 52 705 c 256,34,35
 52 664 52 664 81 635 c 128,-1,36
 110 606 110 606 151 606 c 256,37,38
 192 606 192 606 220.5 635 c 128,-1,39
 249 664 249 664 249 705 c 256,28,29
563 150 m 256,40,41
 563 191 563 191 534 220 c 128,-1,42
 505 249 505 249 464 249 c 256,43,44
 423 249 423 249 394 220 c 128,-1,45
 365 191 365 191 365 150 c 256,46,47
 365 109 365 109 394 80 c 128,-1,48
 423 51 423 51 464 51 c 256,49,50
 505 51 505 51 534 80 c 128,-1,51
 563 109 563 109 563 150 c 256,40,41
EndSplineSet
Validated: 1
EndChar

StartChar: ampersand
Encoding: 38 38 7
Width: 734
GlyphClass: 1
Flags: W
LayerCount: 2
Fore
SplineSet
628 371 m 1,0,1
 606 258 606 258 522 149 c 1,2,-1
 628 52 l 1,3,-1
 566 -19 l 1,4,5
 522 25 522 25 462 82 c 1,6,7
 355 -15 355 -15 227 -15 c 0,8,9
 122 -15 122 -15 51 58 c 0,10,11
 -17 127 -17 127 -17 219 c 0,12,13
 -17 358 -17 358 100 447 c 1,14,15
 13 554 13 554 13 653 c 0,16,17
 13 754 13 754 72 813 c 128,-1,18
 131 872 131 872 229 872 c 0,19,20
 331 872 331 872 389 813 c 0,21,22
 441 760 441 760 441 681 c 0,23,24
 441 591 441 591 370 528 c 0,25,26
 352 512 352 512 223 431 c 1,27,28
 278 373 278 373 459 207 c 1,29,30
 519 292 519 292 542 393 c 1,31,-1
 628 371 l 1,0,1
348 683 m 0,32,33
 348 727 348 727 319 758 c 0,34,35
 286 792 286 792 229 792 c 0,36,37
 173 792 173 792 139.5 751.5 c 128,-1,38
 106 711 106 711 106 653 c 0,39,40
 106 573 106 573 168 493 c 1,41,42
 270 554 270 554 292 573 c 0,43,44
 348 621 348 621 348 683 c 0,32,33
400 142 m 1,45,46
 308 230 308 230 156 382 c 1,47,48
 81 315 81 315 81 219 c 0,49,50
 81 157 81 157 122 115 c 128,-1,51
 163 73 163 73 227 73 c 0,52,53
 322 73 322 73 400 142 c 1,45,46
EndSplineSet
Validated: 1
EndChar

StartChar: quotesingle
Encoding: 39 39 8
Width: 734
GlyphClass: 1
Flags: W
LayerCount: 2
Fore
SplineSet
369 856 m 1,0,-1
 342 551 l 1,1,-1
 276 551 l 1,2,-1
 248 856 l 1,3,-1
 369 856 l 1,0,-1
EndSplineSet
Validated: 1
EndChar

StartChar: parenleft
Encoding: 40 40 9
Width: 734
GlyphClass: 1
Flags: W
LayerCount: 2
Fore
SplineSet
463 -185 m 1,0,-1
 415 -244 l 1,1,2
 279 -132 279 -132 202 26 c 0,3,4
 123 189 123 189 123 372 c 0,5,6
 123 554 123 554 202 718 c 0,7,8
 279 875 279 875 415 987 c 1,9,-1
 463 928 l 1,10,11
 340 827 340 827 271 684 c 0,12,13
 200 537 200 537 200 372 c 0,14,15
 200 206 200 206 271 59 c 0,16,17
 340 -84 340 -84 463 -185 c 1,0,-1
EndSplineSet
Validated: 1
EndChar

StartChar: parenright
Encoding: 41 41 10
Width: 734
GlyphClass: 1
Flags: W
LayerCount: 2
Fore
SplineSet
490 371 m 256,0,1
 490 188 490 188 411 25 c 0,2,3
 335 -133 335 -133 198 -244 c 1,4,-1
 150 -185 l 1,5,6
 273 -84 273 -84 342 58 c 0,7,8
 414 206 414 206 414 371 c 256,9,10
 414 536 414 536 342 684 c 0,11,12
 273 826 273 826 150 927 c 1,13,-1
 198 986 l 1,14,15
 335 875 335 875 411 717 c 0,16,17
 490 554 490 554 490 371 c 256,0,1
EndSplineSet
Validated: 1
EndChar

StartChar: asterisk
Encoding: 42 42 11
Width: 734
GlyphClass: 1
Flags: W
LayerCount: 2
Fore
SplineSet
589 671 m 1,0,-1
 364 550 l 1,1,-1
 589 428 l 1,2,-1
 552 365 l 1,3,-1
 335 499 l 1,4,-1
 342 244 l 1,5,-1
 269 244 l 1,6,-1
 277 499 l 1,7,-1
 59 365 l 1,8,-1
 23 428 l 1,9,-1
 247 550 l 1,10,-1
 23 671 l 1,11,-1
 59 734 l 1,12,-1
 277 600 l 1,13,-1
 269 855 l 1,14,-1
 342 855 l 1,15,-1
 335 600 l 1,16,-1
 552 734 l 1,17,-1
 589 671 l 1,0,-1
EndSplineSet
Validated: 1
EndChar

StartChar: plus
Encoding: 43 43 12
Width: 734
GlyphClass: 1
Flags: W
LayerCount: 2
Fore
SplineSet
611 391 m 1,0,-1
 342 391 l 1,1,-1
 342 122 l 1,2,-1
 269 122 l 1,3,-1
 269 391 l 1,4,-1
 0 391 l 1,5,-1
 0 464 l 1,6,-1
 269 464 l 1,7,-1
 269 733 l 1,8,-1
 342 733 l 1,9,-1
 342 464 l 1,10,-1
 611 464 l 1,11,-1
 611 391 l 1,0,-1
EndSplineSet
Validated: 1
EndChar

StartChar: comma
Encoding: 44 44 13
Width: 734
GlyphClass: 1
Flags: W
LayerCount: 2
Fore
SplineSet
401 242 m 1,0,-1
 221 -125 l 1,1,-1
 157 -125 l 1,2,-1
 280 242 l 1,3,-1
 401 242 l 1,0,-1
EndSplineSet
Validated: 1
EndChar

StartChar: hyphen
Encoding: 45 45 14
Width: 734
GlyphClass: 1
Flags: W
LayerCount: 2
Fore
SplineSet
489 392 m 1,0,-1
 122 392 l 1,1,-1
 122 465 l 1,2,-1
 489 465 l 1,3,-1
 489 392 l 1,0,-1
EndSplineSet
Validated: 1
EndChar

StartChar: period
Encoding: 46 46 15
Width: 734
GlyphClass: 1
Flags: W
LayerCount: 2
Fore
SplineSet
365 -4 m 1,0,-1
 245 -4 l 1,1,-1
 245 116 l 1,2,-1
 365 116 l 1,3,-1
 365 -4 l 1,0,-1
EndSplineSet
Validated: 1
EndChar

StartChar: slash
Encoding: 47 47 16
Width: 734
GlyphClass: 1
Flags: W
LayerCount: 2
Fore
SplineSet
655 855 m 1,0,-1
 152 -158 l 1,1,-1
 87 -125 l 1,2,-1
 590 888 l 1,3,-1
 655 855 l 1,0,-1
EndSplineSet
Validated: 1
EndChar

StartChar: zero
Encoding: 48 48 17
Width: 734
GlyphClass: 1
Flags: W
LayerCount: 2
Fore
SplineSet
643 14 m 1,0,-1
 553 110 l 1,1,2
 464 -16 464 -16 307 -16 c 0,3,4
 162 -16 162 -16 74 93 c 0,5,6
 -21 210 -21 210 -21 427 c 0,7,8
 -21 571 -21 571 22 674 c 1,9,-1
 -28 728 l 1,10,-1
 -29 833 l 1,11,-1
 58 741 l 1,12,13
 147 871 147 871 307 871 c 0,14,15
 453 871 453 871 541 762 c 0,16,17
 636 645 636 645 636 427 c 0,18,19
 636 280 636 280 590 176 c 1,20,-1
 643 119 l 1,21,-1
 643 14 l 1,0,-1
544 427 m 0,22,23
 544 598 544 598 482.5 694.5 c 128,-1,24
 421 791 421 791 307 791 c 0,25,26
 184 791 184 791 121 674 c 1,27,-1
 521 249 l 1,28,29
 544 330 544 330 544 427 c 0,22,23
491 176 m 1,30,-1
 92 600 l 1,31,32
 70 522 70 522 70 427 c 0,33,34
 70 257 70 257 132 160.5 c 128,-1,35
 194 64 194 64 307 64 c 0,36,37
 428 64 428 64 491 176 c 1,30,-1
EndSplineSet
Validated: 1
EndChar

StartChar: one
Encoding: 49 49 18
Width: 734
GlyphClass: 1
Flags: W
LayerCount: 2
Fore
SplineSet
488 0 m 1,0,-1
 121 0 l 1,1,-1
 121 79 l 1,2,-1
 259 79 l 1,3,-1
 259 684 l 1,4,5
 222 610 222 610 121 610 c 1,6,-1
 121 703 l 1,7,8
 259 703 259 703 259 855 c 1,9,-1
 350 855 l 1,10,-1
 350 79 l 1,11,-1
 488 79 l 1,12,-1
 488 0 l 1,0,-1
EndSplineSet
Validated: 1
EndChar

StartChar: two
Encoding: 50 50 19
Width: 734
GlyphClass: 1
Flags: W
LayerCount: 2
Fore
SplineSet
577 634 m 0,0,1
 577 550 577 550 530 481 c 0,2,3
 507 446 507 446 421 359 c 0,4,5
 394 331 394 331 339 274 c 0,6,7
 247 180 247 180 142 79 c 1,8,-1
 494 79 l 1,9,-1
 494 239 l 1,10,-1
 574 239 l 1,11,-1
 574 0 l 1,12,-1
 23 0 l 1,13,-1
 23 79 l 1,14,-1
 356 418 l 2,15,16
 420 483 420 483 442 515 c 0,17,18
 484 576 484 576 484 635 c 0,19,20
 484 706 484 706 425 751 c 0,21,22
 371 791 371 791 298 791 c 0,23,24
 197 791 197 791 142 726 c 0,25,26
 90 665 90 665 90 562 c 1,27,-1
 4 562 l 1,28,29
 4 706 4 706 80 788.5 c 128,-1,30
 156 871 156 871 298 871 c 0,31,32
 411 871 411 871 490 810 c 0,33,34
 577 744 577 744 577 634 c 0,0,1
EndSplineSet
Validated: 1
EndChar

StartChar: three
Encoding: 51 51 20
Width: 734
GlyphClass: 1
Flags: W
LayerCount: 2
Fore
SplineSet
604 236 m 0,0,1
 604 135 604 135 529 62 c 0,2,3
 449 -16 449 -16 325 -16 c 0,4,5
 208 -16 208 -16 128 41 c 0,6,7
 31 110 31 110 17 248 c 1,8,-1
 104 262 l 1,9,10
 114 163 114 163 181 110 c 0,11,12
 240 64 240 64 325 64 c 0,13,14
 404 64 404 64 459 118 c 0,15,16
 511 169 511 169 511 235 c 0,17,18
 511 347 511 347 423 381 c 0,19,20
 380 397 380 397 264 397 c 1,21,-1
 264 489 l 1,22,23
 395 489 395 489 454 542 c 0,24,25
 495 580 495 580 495 635 c 0,26,27
 495 702 495 702 451 745 c 0,28,29
 404 791 404 791 325 791 c 0,30,31
 231 791 231 791 176 740 c 0,32,33
 117 686 117 686 117 586 c 1,34,-1
 30 586 l 1,35,36
 30 724 30 724 116 800 c 0,37,38
 195 871 195 871 325 871 c 0,39,40
 449 871 449 871 521 800 c 0,41,42
 588 735 588 735 588 634 c 0,43,44
 588 554 588 554 534 501 c 0,45,46
 483 453 483 453 419 453 c 1,47,48
 484 453 484 453 542 389 c 0,49,50
 604 321 604 321 604 236 c 0,0,1
EndSplineSet
Validated: 1
EndChar

StartChar: four
Encoding: 52 52 21
Width: 734
GlyphClass: 1
Flags: W
LayerCount: 2
Fore
SplineSet
611 0 m 1,0,-1
 244 0 l 1,1,-1
 244 79 l 1,2,-1
 381 79 l 1,3,-1
 381 249 l 1,4,-1
 0 249 l 1,5,-1
 0 329 l 1,6,-1
 357 855 l 1,7,-1
 473 855 l 1,8,-1
 473 329 l 1,9,-1
 611 329 l 1,10,-1
 611 249 l 1,11,-1
 473 249 l 1,12,-1
 473 79 l 1,13,-1
 611 79 l 1,14,-1
 611 0 l 1,0,-1
381 329 m 1,15,-1
 381 747 l 1,16,-1
 96 329 l 1,17,-1
 381 329 l 1,15,-1
EndSplineSet
Validated: 1
EndChar

StartChar: five
Encoding: 53 53 22
Width: 734
GlyphClass: 1
Flags: W
LayerCount: 2
Fore
SplineSet
623 286 m 0,0,1
 623 164 623 164 535 74 c 0,2,3
 443 -19 443 -19 309 -19 c 0,4,5
 195 -19 195 -19 116 42 c 0,6,7
 24 114 24 114 10 252 c 1,8,-1
 97 266 l 1,9,10
 107 167 107 167 170 111 c 0,11,12
 227 60 227 60 309 60 c 0,13,14
 402 60 402 60 466 125.5 c 128,-1,15
 530 191 530 191 530 285 c 0,16,17
 530 385 530 385 472 448.5 c 128,-1,18
 414 512 414 512 314 512 c 0,19,20
 187 512 187 512 116 429 c 1,21,-1
 36 429 l 1,22,-1
 36 855 l 1,23,-1
 575 855 l 1,24,-1
 575 776 l 1,25,-1
 116 776 l 1,26,-1
 116 512 l 1,27,28
 194 587 194 587 314 587 c 0,29,30
 454 587 454 587 538.5 506 c 128,-1,31
 623 425 623 425 623 286 c 0,0,1
EndSplineSet
Validated: 1
EndChar

StartChar: six
Encoding: 54 54 23
Width: 734
GlyphClass: 1
Flags: W
LayerCount: 2
Fore
SplineSet
620 291 m 0,0,1
 620 158 620 158 538 74 c 0,2,3
 450 -16 450 -16 298 -16 c 0,4,5
 155 -16 155 -16 73 93 c 0,6,7
 -15 208 -15 208 -15 427 c 0,8,9
 -15 643 -15 643 88 762 c 0,10,11
 181 871 181 871 329 871 c 0,12,13
 457 871 457 871 542 783 c 1,14,-1
 479 727 l 1,15,16
 420 791 420 791 329 791 c 0,17,18
 217 791 217 791 149 706 c 0,19,20
 77 614 77 614 77 447 c 1,21,22
 94 503 94 503 159 550 c 0,23,24
 231 602 231 602 314 602 c 0,25,26
 457 602 457 602 542 508 c 0,27,28
 620 421 620 421 620 291 c 0,0,1
529 291 m 0,29,30
 529 387 529 387 478 451 c 0,31,32
 419 523 419 523 314 523 c 0,33,34
 210 523 210 523 148 456 c 0,35,36
 91 394 91 394 91 300 c 0,37,38
 91 204 91 204 138 140 c 0,39,40
 194 64 194 64 298 64 c 0,41,42
 412 64 412 64 474 132 c 0,43,44
 529 193 529 193 529 291 c 0,29,30
EndSplineSet
Validated: 1
EndChar

StartChar: seven
Encoding: 55 55 24
Width: 734
GlyphClass: 1
Flags: W
LayerCount: 2
Fore
SplineSet
604 776 m 1,0,1
 465 634 465 634 409 453 c 0,2,3
 354 280 354 280 354 0 c 1,4,-1
 260 0 l 1,5,6
 260 276 260 276 328 469 c 0,7,8
 390 647 390 647 517 776 c 1,9,-1
 118 776 l 1,10,-1
 118 610 l 1,11,-1
 38 610 l 1,12,-1
 38 855 l 1,13,-1
 604 855 l 1,14,-1
 604 776 l 1,0,1
EndSplineSet
Validated: 1
EndChar

StartChar: eight
Encoding: 56 56 25
Width: 734
GlyphClass: 1
Flags: W
LayerCount: 2
Fore
SplineSet
618 241 m 0,0,1
 618 128 618 128 536 58 c 0,2,3
 449 -17 449 -17 297 -17 c 0,4,5
 147 -17 147 -17 67 58 c 0,6,7
 -6 126 -6 126 -6 241 c 0,8,9
 -6 326 -6 326 56 392 c 0,10,11
 113 453 113 453 179 453 c 1,12,13
 120 453 120 453 72.5 511 c 128,-1,14
 25 569 25 569 25 635 c 0,15,16
 25 741 25 741 103.5 806 c 128,-1,17
 182 871 182 871 306 871 c 256,18,19
 430 871 430 871 508.5 806 c 128,-1,20
 587 741 587 741 587 635 c 0,21,22
 587 569 587 569 539.5 511 c 128,-1,23
 492 453 492 453 433 453 c 1,24,25
 498 453 498 453 556 392 c 0,26,27
 618 326 618 326 618 241 c 0,0,1
494 636 m 0,28,29
 494 707 494 707 444 749.5 c 128,-1,30
 394 792 394 792 306 792 c 256,31,32
 218 792 218 792 168 749.5 c 128,-1,33
 118 707 118 707 118 636 c 0,34,35
 118 502 118 502 306 491 c 1,36,37
 494 502 494 502 494 636 c 0,28,29
525 240 m 0,38,39
 525 336 525 336 450 380 c 0,40,41
 394 412 394 412 306 412 c 256,42,43
 218 412 218 412 162 380 c 0,44,45
 87 336 87 336 87 240 c 0,46,47
 87 162 87 162 140 113 c 0,48,49
 197 62 197 62 297 62 c 0,50,51
 399 62 399 62 462 112.5 c 128,-1,52
 525 163 525 163 525 240 c 0,38,39
EndSplineSet
Validated: 1
EndChar

StartChar: nine
Encoding: 57 57 26
Width: 734
GlyphClass: 1
Flags: W
LayerCount: 2
Fore
SplineSet
628 427 m 0,0,1
 628 212 628 212 525 93 c 0,2,3
 432 -16 432 -16 284 -16 c 0,4,5
 156 -16 156 -16 70 72 c 1,6,-1
 134 128 l 1,7,8
 193 64 193 64 284 64 c 0,9,10
 396 64 396 64 464 149 c 0,11,12
 536 241 536 241 536 408 c 1,13,14
 519 352 519 352 454 305 c 0,15,16
 382 253 382 253 299 253 c 0,17,18
 155 253 155 253 71 347 c 0,19,20
 -7 434 -7 434 -7 564 c 0,21,22
 -7 697 -7 697 75 781 c 0,23,24
 162 871 162 871 314 871 c 0,25,26
 458 871 458 871 540 762 c 0,27,28
 628 647 628 647 628 427 c 0,0,1
522 555 m 0,29,30
 522 651 522 651 475 715 c 0,31,32
 419 791 419 791 314 791 c 0,33,34
 200 791 200 791 139 723 c 0,35,36
 84 662 84 662 84 564 c 0,37,38
 84 468 84 468 135 404 c 0,39,40
 194 332 194 332 299 332 c 0,41,42
 403 332 403 332 465 399 c 0,43,44
 522 461 522 461 522 555 c 0,29,30
EndSplineSet
Validated: 1
EndChar

StartChar: colon
Encoding: 58 58 27
Width: 734
GlyphClass: 1
Flags: W
LayerCount: 2
Fore
SplineSet
365 489 m 1,0,-1
 245 489 l 1,1,-1
 245 608 l 1,2,-1
 365 608 l 1,3,-1
 365 489 l 1,0,-1
365 -4 m 1,4,-1
 245 -4 l 1,5,-1
 245 116 l 1,6,-1
 365 116 l 1,7,-1
 365 -4 l 1,4,-1
EndSplineSet
Validated: 1
EndChar

StartChar: semicolon
Encoding: 59 59 28
Width: 734
GlyphClass: 1
Flags: W
LayerCount: 2
Fore
SplineSet
365 489 m 1,0,-1
 245 489 l 1,1,-1
 245 608 l 1,2,-1
 365 608 l 1,3,-1
 365 489 l 1,0,-1
401 241 m 1,4,-1
 221 -126 l 1,5,-1
 157 -126 l 1,6,-1
 280 241 l 1,7,-1
 401 241 l 1,4,-1
EndSplineSet
Validated: 1
EndChar

StartChar: less
Encoding: 60 60 29
Width: 734
GlyphClass: 1
Flags: W
LayerCount: 2
Fore
SplineSet
518 144 m 1,0,-1
 466 92 l 1,1,-1
 131 427 l 1,2,-1
 466 763 l 1,3,-1
 518 711 l 1,4,-1
 234 427 l 1,5,-1
 518 144 l 1,0,-1
EndSplineSet
Validated: 1
EndChar

StartChar: equal
Encoding: 61 61 30
Width: 734
GlyphClass: 1
Flags: W
LayerCount: 2
Fore
SplineSet
611 539 m 1,0,-1
 0 539 l 1,1,-1
 0 611 l 1,2,-1
 611 611 l 1,3,-1
 611 539 l 1,0,-1
611 245 m 1,4,-1
 0 245 l 1,5,-1
 0 318 l 1,6,-1
 611 318 l 1,7,-1
 611 245 l 1,4,-1
EndSplineSet
Validated: 1
EndChar

StartChar: greater
Encoding: 62 62 31
Width: 734
GlyphClass: 1
Flags: W
LayerCount: 2
Fore
SplineSet
481 427 m 1,0,-1
 145 92 l 1,1,-1
 94 144 l 1,2,-1
 378 427 l 1,3,-1
 94 711 l 1,4,-1
 145 763 l 1,5,-1
 481 427 l 1,0,-1
EndSplineSet
Validated: 1
EndChar

StartChar: question
Encoding: 63 63 32
Width: 734
GlyphClass: 1
Flags: W
LayerCount: 2
Fore
SplineSet
597 658 m 0,0,1
 597 575 597 575 531 503 c 1,2,3
 470 445 470 445 408 387 c 1,4,5
 342 317 342 317 342 239 c 1,6,-1
 246 239 l 1,7,8
 246 328 246 328 313 409 c 1,9,10
 375 470 375 470 437 532 c 0,11,12
 504 600 504 600 504 660 c 0,13,14
 504 791 504 791 358 791 c 0,15,16
 293 791 293 791 250 750 c 0,17,18
 201 702 201 702 197 611 c 1,19,-1
 110 633 l 1,20,21
 125 758 125 758 199 819 c 0,22,23
 262 871 262 871 358 871 c 0,24,25
 471 871 471 871 534 813 c 128,-1,26
 597 755 597 755 597 658 c 0,0,1
365 0 m 1,27,-1
 245 0 l 1,28,-1
 245 119 l 1,29,-1
 365 119 l 1,30,-1
 365 0 l 1,27,-1
EndSplineSet
Validated: 1
EndChar

StartChar: at
Encoding: 64 64 33
Width: 734
GlyphClass: 1
Flags: W
LayerCount: 2
Fore
SplineSet
635 428 m 0,0,1
 635 302 635 302 596 235 c 0,2,3
 563 180 563 180 515 180 c 0,4,5
 483 180 483 180 459 206 c 128,-1,6
 435 232 435 232 435 272 c 2,7,-1
 435 316 l 1,8,9
 390 191 390 191 280 191 c 0,10,11
 195 191 195 191 149 261 c 0,12,13
 110 321 110 321 110 414 c 1,14,-1
 110 414 l 1,15,16
 110 513 110 513 160 581 c 0,17,18
 218 658 218 658 320 658 c 0,19,20
 375 658 375 658 435 611 c 1,21,-1
 435 647 l 1,22,-1
 502 647 l 1,23,-1
 502 272 l 2,24,25
 502 242 502 242 528 242 c 0,26,27
 551 242 551 242 567 281 c 0,28,29
 587 330 587 330 587 428 c 0,30,31
 587 618 587 618 514 725 c 128,-1,32
 441 832 441 832 306 832 c 256,33,34
 171 832 171 832 98 725 c 128,-1,35
 25 618 25 618 25 428 c 0,36,37
 25 239 25 239 98 132 c 128,-1,38
 171 25 171 25 306 25 c 0,39,40
 414 25 414 25 484 96 c 1,41,-1
 519 71 l 1,42,43
 434 -15 434 -15 306 -15 c 0,44,45
 160 -15 160 -15 73 93 c 0,46,47
 -23 211 -23 211 -23 428 c 256,48,49
 -23 645 -23 645 73 763 c 0,50,51
 160 871 160 871 306 871 c 256,52,53
 452 871 452 871 540 763 c 0,54,55
 635 645 635 645 635 428 c 0,0,1
435 459 m 2,56,-1
 435 544 l 1,57,58
 377 605 377 605 320 605 c 0,59,60
 245 605 245 605 207 540 c 0,61,62
 177 489 177 489 177 414 c 0,63,64
 177 340 177 340 205 297 c 128,-1,65
 233 254 233 254 280 254 c 0,66,67
 358 254 358 254 399 316 c 0,68,69
 435 371 435 371 435 459 c 2,56,-1
EndSplineSet
Validated: 5
EndChar

StartChar: A
Encoding: 65 65 34
Width: 734
GlyphClass: 1
Flags: W
LayerCount: 2
Fore
SplineSet
653 0 m 1,0,-1
 556 0 l 1,1,-1
 476 245 l 1,2,-1
 137 245 l 1,3,-1
 58 0 l 1,4,-1
 -40 0 l 1,5,-1
 246 855 l 1,6,-1
 368 855 l 1,7,-1
 653 0 l 1,0,-1
450 324 m 1,8,-1
 307 764 l 1,9,-1
 163 324 l 1,10,-1
 450 324 l 1,8,-1
EndSplineSet
Validated: 1
EndChar

StartChar: B
Encoding: 66 66 35
Width: 734
GlyphClass: 1
Flags: W
LayerCount: 2
Fore
SplineSet
610 245 m 0,0,1
 610 0 610 0 281 0 c 2,2,-1
 32 0 l 1,3,-1
 32 856 l 1,4,-1
 266 856 l 2,5,6
 399 856 399 856 468 824 c 0,7,8
 580 772 580 772 580 633 c 0,9,10
 580 499 580 499 448 451 c 1,11,12
 610 400 610 400 610 245 c 0,0,1
488 633 m 0,13,14
 488 722 488 722 411 755 c 0,15,16
 362 777 362 777 266 777 c 2,17,-1
 124 777 l 1,18,-1
 124 489 l 1,19,-1
 266 489 l 2,20,21
 365 489 365 489 414 511 c 0,22,23
 488 545 488 545 488 633 c 0,13,14
518 245 m 256,24,25
 518 410 518 410 281 410 c 2,26,-1
 124 410 l 1,27,-1
 124 80 l 1,28,-1
 281 80 l 2,29,30
 518 80 518 80 518 245 c 256,24,25
EndSplineSet
Validated: 1
EndChar

StartChar: C
Encoding: 67 67 36
Width: 734
GlyphClass: 1
Flags: W
LayerCount: 2
Fore
SplineSet
617 225 m 1,0,1
 580 106 580 106 499 44 c 0,2,3
 422 -15 422 -15 316 -15 c 0,4,5
 170 -15 170 -15 83 93 c 0,6,7
 -12 211 -12 211 -12 428 c 256,8,9
 -12 645 -12 645 83 763 c 0,10,11
 170 871 170 871 316 871 c 0,12,13
 474 871 474 871 530 756 c 1,14,-1
 530 856 l 1,15,-1
 610 856 l 1,16,-1
 610 574 l 1,17,-1
 530 574 l 1,18,19
 530 674 530 674 464 735 c 0,20,21
 402 792 402 792 316 792 c 0,22,23
 203 792 203 792 141 695.5 c 128,-1,24
 79 599 79 599 79 428 c 256,25,26
 79 257 79 257 141 162 c 0,27,28
 203 64 203 64 316 64 c 0,29,30
 479 64 479 64 532 258 c 1,31,-1
 617 225 l 1,0,1
EndSplineSet
Validated: 1
EndChar

StartChar: D
Encoding: 68 68 37
Width: 734
GlyphClass: 1
Flags: W
LayerCount: 2
Fore
SplineSet
640 428 m 256,0,1
 640 214 640 214 542 101 c 0,2,3
 454 0 454 0 311 0 c 2,4,-1
 32 0 l 1,5,-1
 32 856 l 1,6,-1
 311 856 l 2,7,8
 454 856 454 856 542 755 c 0,9,10
 640 642 640 642 640 428 c 256,0,1
548 428 m 256,11,12
 548 595 548 595 485 686 c 128,-1,13
 422 777 422 777 311 777 c 2,14,-1
 123 777 l 1,15,-1
 123 80 l 1,16,-1
 311 80 l 2,17,18
 422 80 422 80 485 170.5 c 128,-1,19
 548 261 548 261 548 428 c 256,11,12
EndSplineSet
Validated: 1
EndChar

StartChar: E
Encoding: 69 69 38
Width: 734
GlyphClass: 1
Flags: W
LayerCount: 2
Fore
SplineSet
580 0 m 1,0,-1
 30 0 l 1,1,-1
 30 856 l 1,2,-1
 580 856 l 1,3,-1
 580 777 l 1,4,-1
 121 777 l 1,5,-1
 121 477 l 1,6,-1
 459 477 l 1,7,-1
 459 397 l 1,8,-1
 121 397 l 1,9,-1
 121 80 l 1,10,-1
 580 80 l 1,11,-1
 580 0 l 1,0,-1
EndSplineSet
Validated: 1
EndChar

StartChar: F
Encoding: 70 70 39
Width: 734
GlyphClass: 1
Flags: W
LayerCount: 2
Fore
SplineSet
580 777 m 1,0,-1
 121 777 l 1,1,-1
 121 477 l 1,2,-1
 459 477 l 1,3,-1
 459 397 l 1,4,-1
 121 397 l 1,5,-1
 121 0 l 1,6,-1
 30 0 l 1,7,-1
 30 856 l 1,8,-1
 580 856 l 1,9,-1
 580 777 l 1,0,-1
EndSplineSet
Validated: 1
EndChar

StartChar: G
Encoding: 71 71 40
Width: 734
GlyphClass: 1
Flags: W
LayerCount: 2
Fore
SplineSet
645 428 m 2,0,1
 645 211 645 211 550 93 c 0,2,3
 462 -15 462 -15 316 -15 c 256,4,5
 170 -15 170 -15 83 93 c 0,6,7
 -12 211 -12 211 -12 428 c 256,8,9
 -12 645 -12 645 83 763 c 0,10,11
 170 871 170 871 316 871 c 0,12,13
 474 871 474 871 530 756 c 1,14,-1
 530 856 l 1,15,-1
 610 856 l 1,16,-1
 610 574 l 1,17,-1
 530 574 l 1,18,19
 530 674 530 674 464 735 c 0,20,21
 402 792 402 792 316 792 c 0,22,23
 203 792 203 792 141 695.5 c 128,-1,24
 79 599 79 599 79 428 c 256,25,26
 79 257 79 257 141 162 c 0,27,28
 203 64 203 64 316 64 c 0,29,30
 419 64 419 64 479 144 c 128,-1,31
 539 224 539 224 550 368 c 1,32,-1
 360 368 l 1,33,-1
 360 447 l 1,34,-1
 645 447 l 1,35,-1
 645 428 l 2,0,1
EndSplineSet
Validated: 1
EndChar

StartChar: H
Encoding: 72 72 41
Width: 734
GlyphClass: 1
Flags: W
LayerCount: 2
Fore
SplineSet
580 0 m 1,0,-1
 488 0 l 1,1,-1
 488 397 l 1,2,-1
 121 397 l 1,3,-1
 121 0 l 1,4,-1
 30 0 l 1,5,-1
 30 856 l 1,6,-1
 121 856 l 1,7,-1
 121 477 l 1,8,-1
 488 477 l 1,9,-1
 488 856 l 1,10,-1
 580 856 l 1,11,-1
 580 0 l 1,0,-1
EndSplineSet
Validated: 1
EndChar

StartChar: I
Encoding: 73 73 42
Width: 734
GlyphClass: 1
Flags: W
LayerCount: 2
Fore
SplineSet
489 0 m 1,0,-1
 122 0 l 1,1,-1
 122 80 l 1,2,-1
 260 80 l 1,3,-1
 260 777 l 1,4,-1
 122 777 l 1,5,-1
 122 856 l 1,6,-1
 489 856 l 1,7,-1
 489 777 l 1,8,-1
 351 777 l 1,9,-1
 351 80 l 1,10,-1
 489 80 l 1,11,-1
 489 0 l 1,0,-1
EndSplineSet
Validated: 1
EndChar

StartChar: J
Encoding: 74 74 43
Width: 734
GlyphClass: 1
Flags: W
LayerCount: 2
Fore
SplineSet
581 363 m 2,0,1
 581 -15 581 -15 298 -15 c 0,2,3
 193 -15 193 -15 116 44 c 0,4,5
 34 106 34 106 -3 225 c 1,6,-1
 83 258 l 1,7,8
 136 64 136 64 298 64 c 0,9,10
 407 64 407 64 451 144 c 0,11,12
 489 213 489 213 489 363 c 2,13,-1
 489 856 l 1,14,-1
 581 856 l 1,15,-1
 581 363 l 2,0,1
EndSplineSet
Validated: 1
EndChar

StartChar: K
Encoding: 75 75 44
Width: 734
GlyphClass: 1
Flags: W
LayerCount: 2
Fore
SplineSet
608 1 m 1,0,-1
 497 1 l 1,1,-1
 212 420 l 1,2,-1
 121 319 l 1,3,-1
 121 1 l 1,4,-1
 30 1 l 1,5,-1
 30 857 l 1,6,-1
 121 857 l 1,7,-1
 121 441 l 1,8,-1
 489 857 l 1,9,-1
 608 857 l 1,10,-1
 271 484 l 1,11,-1
 608 1 l 1,0,-1
EndSplineSet
Validated: 1
EndChar

StartChar: L
Encoding: 76 76 45
Width: 734
GlyphClass: 1
Flags: W
LayerCount: 2
Fore
SplineSet
580 0 m 1,0,-1
 30 0 l 1,1,-1
 30 856 l 1,2,-1
 121 856 l 1,3,-1
 121 80 l 1,4,-1
 580 80 l 1,5,-1
 580 0 l 1,0,-1
EndSplineSet
Validated: 1
EndChar

StartChar: M
Encoding: 77 77 46
Width: 734
GlyphClass: 1
Flags: W
LayerCount: 2
Fore
SplineSet
580 0 m 1,0,-1
 488 0 l 1,1,-1
 488 715 l 1,2,-1
 337 272 l 1,3,-1
 273 272 l 1,4,-1
 121 715 l 1,5,-1
 121 0 l 1,6,-1
 30 0 l 1,7,-1
 30 856 l 1,8,-1
 149 856 l 1,9,-1
 305 409 l 1,10,-1
 461 856 l 1,11,-1
 580 856 l 1,12,-1
 580 0 l 1,0,-1
EndSplineSet
Validated: 1
EndChar

StartChar: N
Encoding: 78 78 47
Width: 734
GlyphClass: 1
Flags: W
LayerCount: 2
Fore
SplineSet
580 0 m 1,0,-1
 467 0 l 1,1,-1
 121 724 l 1,2,-1
 121 0 l 1,3,-1
 30 0 l 1,4,-1
 30 856 l 1,5,-1
 158 856 l 1,6,-1
 488 165 l 1,7,-1
 488 856 l 1,8,-1
 580 856 l 1,9,-1
 580 0 l 1,0,-1
EndSplineSet
Validated: 1
EndChar

StartChar: O
Encoding: 79 79 48
Width: 734
GlyphClass: 1
Flags: W
LayerCount: 2
Fore
SplineSet
635 428 m 256,0,1
 635 211 635 211 540 93 c 0,2,3
 452 -15 452 -15 306 -15 c 256,4,5
 160 -15 160 -15 73 93 c 0,6,7
 -23 211 -23 211 -23 428 c 256,8,9
 -23 645 -23 645 73 763 c 0,10,11
 160 871 160 871 306 871 c 256,12,13
 452 871 452 871 540 763 c 0,14,15
 635 645 635 645 635 428 c 256,0,1
543 428 m 256,16,17
 543 599 543 599 481.5 695.5 c 128,-1,18
 420 792 420 792 306 792 c 0,19,20
 193 792 193 792 131 695.5 c 128,-1,21
 69 599 69 599 69 428 c 256,22,23
 69 257 69 257 130 162 c 0,24,25
 193 64 193 64 306 64 c 0,26,27
 420 64 420 64 482 162 c 0,28,29
 543 257 543 257 543 428 c 256,16,17
EndSplineSet
Validated: 1
EndChar

StartChar: P
Encoding: 80 80 49
Width: 734
GlyphClass: 1
Flags: W
LayerCount: 2
Fore
SplineSet
604 611 m 0,0,1
 604 367 604 367 276 367 c 2,2,-1
 118 367 l 1,3,-1
 118 0 l 1,4,-1
 26 0 l 1,5,-1
 26 856 l 1,6,-1
 276 856 l 2,7,8
 604 856 604 856 604 611 c 0,0,1
512 611 m 0,9,10
 512 777 512 777 276 777 c 2,11,-1
 118 777 l 1,12,-1
 118 446 l 1,13,-1
 276 446 l 2,14,15
 512 446 512 446 512 611 c 0,9,10
EndSplineSet
Validated: 1
EndChar

StartChar: Q
Encoding: 81 81 50
Width: 733
GlyphClass: 1
Flags: W
LayerCount: 2
Fore
SplineSet
635 428 m 0,0,1
 635 229 635 229 553 112 c 0,2,3
 478 5 478 5 350 -12 c 1,4,5
 360 -88 360 -88 405 -125 c 0,6,7
 455 -165 455 -165 556 -165 c 0,8,9
 582 -165 582 -165 611 -163 c 1,10,-1
 611 -241 l 1,11,12
 574 -244 574 -244 541 -244 c 0,13,14
 276 -244 276 -244 249 -10 c 1,15,16
 126 12 126 12 55 118 c 0,17,18
 -23 234 -23 234 -23 428 c 0,19,20
 -23 645 -23 645 73 763 c 0,21,22
 160 871 160 871 306 871 c 256,23,24
 452 871 452 871 539 763 c 0,25,26
 635 645 635 645 635 428 c 0,0,1
543 428 m 256,27,28
 543 599 543 599 481 695.5 c 128,-1,29
 419 792 419 792 306 792 c 256,30,31
 193 792 193 792 131 695.5 c 128,-1,32
 69 599 69 599 69 428 c 256,33,34
 69 257 69 257 131 161 c 128,-1,35
 193 65 193 65 306 65 c 256,36,37
 419 65 419 65 481 161 c 128,-1,38
 543 257 543 257 543 428 c 256,27,28
EndSplineSet
Validated: 1
EndChar

StartChar: R
Encoding: 82 82 51
Width: 734
GlyphClass: 1
Flags: W
LayerCount: 2
Fore
SplineSet
618 0 m 1,0,-1
 500 0 l 1,1,-1
 250 367 l 1,2,-1
 118 367 l 1,3,-1
 118 0 l 1,4,-1
 26 0 l 1,5,-1
 26 856 l 1,6,-1
 276 856 l 2,7,8
 604 856 604 856 604 611 c 0,9,10
 604 397 604 397 359 371 c 1,11,-1
 618 0 l 1,0,-1
512 611 m 0,12,13
 512 777 512 777 276 777 c 2,14,-1
 118 777 l 1,15,-1
 118 446 l 1,16,-1
 276 446 l 2,17,18
 512 446 512 446 512 611 c 0,12,13
EndSplineSet
Validated: 1
EndChar

StartChar: S
Encoding: 83 83 52
Width: 734
GlyphClass: 1
Flags: W
LayerCount: 2
Fore
SplineSet
590 223 m 0,0,1
 590 123 590 123 513.5 54 c 128,-1,2
 437 -15 437 -15 321 -15 c 0,3,4
 222 -15 222 -15 154 38 c 0,5,6
 99 82 99 82 96 124 c 1,7,-1
 96 0 l 1,8,-1
 17 0 l 1,9,-1
 17 259 l 1,10,-1
 96 259 l 1,11,12
 96 186 96 186 155 128 c 0,13,14
 220 64 220 64 321 64 c 0,15,16
 416 64 416 64 461 121 c 0,17,18
 492 161 492 161 492 215 c 0,19,20
 492 314 492 314 372 371 c 1,21,22
 260 417 260 417 149 462 c 1,23,24
 28 528 28 528 28 652 c 0,25,26
 28 742 28 742 96 804 c 0,27,28
 170 871 170 871 292 871 c 0,29,30
 370 871 370 871 432 825 c 0,31,32
 490 781 490 781 490 734 c 1,33,-1
 490 856 l 1,34,-1
 570 856 l 1,35,-1
 570 612 l 1,36,-1
 490 612 l 1,37,38
 490 685 490 685 431 738.5 c 128,-1,39
 372 792 372 792 292 792 c 0,40,41
 215 792 215 792 168 750.5 c 128,-1,42
 121 709 121 709 121 653 c 0,43,44
 121 570 121 570 243 518 c 0,45,46
 356 471 356 471 469 424 c 1,47,48
 590 353 590 353 590 223 c 0,0,1
EndSplineSet
Validated: 1
EndChar

StartChar: T
Encoding: 84 84 53
Width: 734
GlyphClass: 1
Flags: W
LayerCount: 2
Fore
SplineSet
612 567 m 1,0,-1
 532 567 l 1,1,-1
 532 777 l 1,2,-1
 352 777 l 1,3,-1
 352 80 l 1,4,-1
 489 80 l 1,5,-1
 489 0 l 1,6,-1
 122 0 l 1,7,-1
 122 80 l 1,8,-1
 260 80 l 1,9,-1
 260 777 l 1,10,-1
 79 777 l 1,11,-1
 79 567 l 1,12,-1
 0 567 l 1,13,-1
 0 856 l 1,14,-1
 612 856 l 1,15,-1
 612 567 l 1,0,-1
EndSplineSet
Validated: 1
EndChar

StartChar: U
Encoding: 85 85 54
Width: 734
GlyphClass: 1
Flags: W
LayerCount: 2
Fore
SplineSet
589 363 m 2,0,1
 589 -15 589 -15 306 -15 c 0,2,3
 24 -15 24 -15 24 363 c 2,4,-1
 24 856 l 1,5,-1
 115 856 l 1,6,-1
 115 363 l 2,7,8
 115 213 115 213 154 144 c 0,9,10
 198 64 198 64 306 64 c 0,11,12
 415 64 415 64 459 144 c 0,13,14
 497 213 497 213 497 363 c 2,15,-1
 497 856 l 1,16,-1
 589 856 l 1,17,-1
 589 363 l 2,0,1
EndSplineSet
Validated: 1
EndChar

StartChar: V
Encoding: 86 86 55
Width: 734
GlyphClass: 1
Flags: W
LayerCount: 2
Fore
SplineSet
653 855 m 1,0,-1
 367 0 l 1,1,-1
 245 0 l 1,2,-1
 -40 855 l 1,3,-1
 57 855 l 1,4,-1
 306 91 l 1,5,-1
 555 855 l 1,6,-1
 653 855 l 1,0,-1
EndSplineSet
Validated: 1
EndChar

StartChar: W
Encoding: 87 87 56
Width: 734
GlyphClass: 1
Flags: W
LayerCount: 2
Fore
SplineSet
656 855 m 1,0,-1
 501 0 l 1,1,-1
 396 0 l 1,2,-1
 308 418 l 1,3,-1
 219 0 l 1,4,-1
 114 0 l 1,5,-1
 -41 855 l 1,6,-1
 56 855 l 1,7,-1
 177 152 l 1,8,-1
 263 606 l 1,9,-1
 352 606 l 1,10,-1
 438 152 l 1,11,-1
 559 855 l 1,12,-1
 656 855 l 1,0,-1
EndSplineSet
Validated: 1
EndChar

StartChar: X
Encoding: 88 88 57
Width: 734
GlyphClass: 1
Flags: W
LayerCount: 2
Fore
SplineSet
628 0 m 1,0,-1
 384 0 l 1,1,-1
 384 80 l 1,2,-1
 441 80 l 1,3,-1
 308 346 l 1,4,-1
 175 80 l 1,5,-1
 232 80 l 1,6,-1
 232 0 l 1,7,-1
 -12 0 l 1,8,-1
 -12 80 l 1,9,-1
 73 80 l 1,10,-1
 256 430 l 1,11,-1
 75 777 l 1,12,-1
 4 777 l 1,13,-1
 4 856 l 1,14,-1
 248 856 l 1,15,-1
 248 777 l 1,16,-1
 177 777 l 1,17,-1
 308 514 l 1,18,-1
 440 777 l 1,19,-1
 369 777 l 1,20,-1
 369 856 l 1,21,-1
 613 856 l 1,22,-1
 613 777 l 1,23,-1
 541 777 l 1,24,-1
 360 430 l 1,25,-1
 543 80 l 1,26,-1
 628 80 l 1,27,-1
 628 0 l 1,0,-1
EndSplineSet
Validated: 1
EndChar

StartChar: Y
Encoding: 89 89 58
Width: 734
GlyphClass: 1
Flags: W
LayerCount: 2
Fore
SplineSet
627 777 m 1,0,-1
 557 777 l 1,1,-1
 354 370 l 1,2,-1
 354 80 l 1,3,-1
 491 80 l 1,4,-1
 491 1 l 1,5,-1
 124 1 l 1,6,-1
 124 80 l 1,7,-1
 262 80 l 1,8,-1
 262 370 l 1,9,-1
 59 777 l 1,10,-1
 -12 777 l 1,11,-1
 -12 857 l 1,12,-1
 232 857 l 1,13,-1
 232 777 l 1,14,-1
 159 777 l 1,15,-1
 307 467 l 1,16,-1
 309 467 l 1,17,-1
 456 777 l 1,18,-1
 384 777 l 1,19,-1
 384 857 l 1,20,-1
 627 857 l 1,21,-1
 627 777 l 1,0,-1
EndSplineSet
Validated: 1
EndChar

StartChar: Z
Encoding: 90 90 59
Width: 734
GlyphClass: 1
Flags: W
LayerCount: 2
Fore
SplineSet
585 0 m 1,0,-1
 34 0 l 1,1,-1
 34 80 l 1,2,-1
 462 777 l 1,3,-1
 114 777 l 1,4,-1
 114 567 l 1,5,-1
 34 567 l 1,6,-1
 34 856 l 1,7,-1
 569 856 l 1,8,-1
 569 777 l 1,9,-1
 142 80 l 1,10,-1
 505 80 l 1,11,-1
 505 290 l 1,12,-1
 585 290 l 1,13,-1
 585 0 l 1,0,-1
EndSplineSet
Validated: 1
EndChar

StartChar: bracketleft
Encoding: 91 91 60
Width: 734
GlyphClass: 1
Flags: W
LayerCount: 2
Fore
SplineSet
489 -244 m 1,0,-1
 245 -244 l 1,1,-1
 245 979 l 1,2,-1
 489 979 l 1,3,-1
 489 906 l 1,4,-1
 317 906 l 1,5,-1
 317 -171 l 1,6,-1
 489 -171 l 1,7,-1
 489 -244 l 1,0,-1
EndSplineSet
Validated: 1
EndChar

StartChar: backslash
Encoding: 92 92 61
Width: 734
GlyphClass: 1
Flags: W
LayerCount: 2
Fore
SplineSet
655 -125 m 1,0,-1
 590 -158 l 1,1,-1
 87 855 l 1,2,-1
 152 888 l 1,3,-1
 655 -125 l 1,0,-1
EndSplineSet
Validated: 1
EndChar

StartChar: bracketright
Encoding: 93 93 62
Width: 734
GlyphClass: 1
Flags: W
LayerCount: 2
Fore
SplineSet
367 -244 m 1,0,-1
 122 -244 l 1,1,-1
 122 -171 l 1,2,-1
 294 -171 l 1,3,-1
 294 906 l 1,4,-1
 122 906 l 1,5,-1
 122 979 l 1,6,-1
 367 979 l 1,7,-1
 367 -244 l 1,0,-1
EndSplineSet
Validated: 1
EndChar

StartChar: asciicircum
Encoding: 94 94 63
Width: 734
GlyphClass: 1
Flags: W
LayerCount: 2
Fore
SplineSet
491 366 m 1,0,-1
 427 366 l 1,1,-1
 307 692 l 1,2,-1
 187 366 l 1,3,-1
 123 366 l 1,4,-1
 246 856 l 1,5,-1
 367 856 l 1,6,-1
 491 366 l 1,0,-1
EndSplineSet
Validated: 1
EndChar

StartChar: underscore
Encoding: 95 95 64
Width: 734
GlyphClass: 1
Flags: W
LayerCount: 2
Fore
SplineSet
734 0 m 1,0,-1
 0 0 l 1,1,-1
 0 73 l 1,2,-1
 734 73 l 1,3,-1
 734 0 l 1,0,-1
EndSplineSet
Validated: 1
EndChar

StartChar: grave
Encoding: 96 96 65
Width: 734
GlyphClass: 1
Flags: W
LayerCount: 2
Fore
SplineSet
454 788 m 1,0,-1
 428 745 l 1,1,-1
 145 905 l 1,2,-1
 188 976 l 1,3,-1
 454 788 l 1,0,-1
EndSplineSet
Validated: 1
EndChar

StartChar: a
Encoding: 97 97 66
Width: 734
GlyphClass: 1
Flags: W
LayerCount: 2
Fore
SplineSet
311 627 m 0,0,1
 408 627 408 627 491 562 c 1,2,-1
 491 612 l 1,3,-1
 583 612 l 1,4,-1
 583 0 l 1,5,-1
 491 0 l 1,6,-1
 491 252 l 1,7,8
 474 155 474 155 414 77 c 0,9,10
 344 -17 344 -17 256 -17 c 0,11,12
 130 -17 130 -17 62 76 c 0,13,14
 1 159 1 159 1 290 c 0,15,16
 1 434 1 434 83 528 c 0,17,18
 169 627 169 627 311 627 c 0,0,1
491 469 m 1,19,20
 412 553 412 553 311 553 c 0,21,22
 205 553 205 553 146 472 c 0,23,24
 93 400 93 400 93 290 c 0,25,26
 93 199 93 199 128 140 c 0,27,28
 171 69 171 69 256 69 c 0,29,30
 359 69 359 69 431 198 c 0,31,32
 491 308 491 308 491 421 c 2,33,-1
 491 469 l 1,19,20
EndSplineSet
Validated: 1
EndChar

StartChar: b
Encoding: 98 98 67
Width: 734
GlyphClass: 1
Flags: W
LayerCount: 2
Fore
SplineSet
615 305 m 256,0,1
 615 169 615 169 538 81 c 0,2,3
 454 -17 454 -17 305 -17 c 0,4,5
 208 -17 208 -17 125 48 c 1,6,-1
 125 0 l 1,7,-1
 33 0 l 1,8,-1
 33 856 l 1,9,-1
 125 856 l 1,10,-1
 125 562 l 1,11,12
 208 627 208 627 305 627 c 0,13,14
 454 627 454 627 538 529 c 0,15,16
 615 441 615 441 615 305 c 256,0,1
523 305 m 256,17,18
 523 407 523 407 474 474 c 0,19,20
 416 553 416 553 305 553 c 0,21,22
 204 553 204 553 125 469 c 1,23,-1
 125 141 l 1,24,25
 204 57 204 57 305 57 c 0,26,27
 416 57 416 57 474 136 c 0,28,29
 523 203 523 203 523 305 c 256,17,18
EndSplineSet
Validated: 1
EndChar

StartChar: c
Encoding: 99 99 68
Width: 734
GlyphClass: 1
Flags: W
LayerCount: 2
Fore
SplineSet
589 115 m 1,0,1
 506 -17 506 -17 323 -17 c 0,2,3
 172 -17 172 -17 83 81 c 0,4,5
 1 170 1 170 1 305 c 0,6,7
 1 441 1 441 77 529 c 0,8,9
 161 627 161 627 311 627 c 0,10,11
 379 627 379 627 435 592 c 128,-1,12
 491 557 491 557 503 512 c 1,13,-1
 503 612 l 1,14,-1
 583 612 l 1,15,-1
 583 368 l 1,16,-1
 503 368 l 1,17,18
 503 447 503 447 440 503 c 0,19,20
 381 553 381 553 311 553 c 0,21,22
 199 553 199 553 141 474 c 0,23,24
 92 407 92 407 92 305 c 0,25,26
 92 205 92 205 147 136 c 0,27,28
 210 57 210 57 323 57 c 0,29,30
 391 57 391 57 446 85.5 c 128,-1,31
 501 114 501 114 526 159 c 1,32,-1
 589 115 l 1,0,1
EndSplineSet
Validated: 1
EndChar

StartChar: d
Encoding: 100 100 69
Width: 734
GlyphClass: 1
Flags: W
LayerCount: 2
Fore
SplineSet
581 0 m 1,0,-1
 489 0 l 1,1,-1
 489 48 l 1,2,3
 406 -17 406 -17 309 -17 c 0,4,5
 159 -17 159 -17 75 81 c 0,6,7
 -1 169 -1 169 -1 305 c 256,8,9
 -1 441 -1 441 75 529 c 0,10,11
 159 627 159 627 309 627 c 0,12,13
 406 627 406 627 489 562 c 1,14,-1
 489 777 l 1,15,-1
 369 777 l 1,16,-1
 369 856 l 1,17,-1
 581 856 l 1,18,-1
 581 0 l 1,0,-1
489 141 m 1,19,-1
 489 469 l 1,20,21
 409 553 409 553 309 553 c 0,22,23
 197 553 197 553 139 474 c 0,24,25
 90 407 90 407 90 305 c 256,26,27
 90 203 90 203 139 136 c 0,28,29
 197 57 197 57 309 57 c 0,30,31
 409 57 409 57 489 141 c 1,19,-1
EndSplineSet
Validated: 1
EndChar

StartChar: e
Encoding: 101 101 70
Width: 734
GlyphClass: 1
Flags: W
LayerCount: 2
Fore
SplineSet
618 274 m 1,0,-1
 92 274 l 1,1,2
 101 183 101 183 155 124 c 0,3,4
 217 57 217 57 320 57 c 0,5,6
 388 57 388 57 443 85.5 c 128,-1,7
 498 114 498 114 523 159 c 1,8,-1
 586 115 l 1,9,10
 503 -17 503 -17 320 -17 c 0,11,12
 170 -17 170 -17 81 81 c 0,13,14
 -2 170 -2 170 -2 305 c 0,15,16
 -2 441 -2 441 75 529 c 0,17,18
 159 627 159 627 308 627 c 0,19,20
 472 627 472 627 553 514 c 0,21,22
 618 422 618 422 618 274 c 1,0,-1
522 354 m 1,23,24
 493 553 493 553 308 553 c 0,25,26
 211 553 211 553 154 492 c 0,27,28
 105 440 105 440 93 354 c 1,29,-1
 522 354 l 1,23,24
EndSplineSet
Validated: 1
EndChar

StartChar: f
Encoding: 102 102 71
Width: 734
GlyphClass: 1
Flags: W
LayerCount: 2
Fore
SplineSet
611 532 m 1,0,-1
 353 532 l 1,1,-1
 353 80 l 1,2,-1
 491 80 l 1,3,-1
 491 0 l 1,4,-1
 124 0 l 1,5,-1
 124 80 l 1,6,-1
 262 80 l 1,7,-1
 262 532 l 1,8,-1
 124 532 l 1,9,-1
 124 612 l 1,10,-1
 262 612 l 1,11,12
 262 863 262 863 525 863 c 0,13,14
 565 863 565 863 611 856 c 1,15,-1
 611 782 l 1,16,17
 573 787 573 787 541 787 c 0,18,19
 436 787 436 787 392 739 c 0,20,21
 353 697 353 697 353 612 c 1,22,-1
 611 612 l 1,23,-1
 611 532 l 1,0,-1
EndSplineSet
Validated: 1
EndChar

StartChar: g
Encoding: 103 103 72
Width: 734
GlyphClass: 1
Flags: W
LayerCount: 2
Fore
SplineSet
583 19 m 2,0,1
 583 -89 583 -89 516 -160 c 0,2,3
 439 -242 439 -242 292 -242 c 0,4,5
 109 -242 109 -242 26 -110 c 1,6,-1
 89 -67 l 1,7,8
 114 -112 114 -112 169 -140 c 128,-1,9
 224 -168 224 -168 292 -168 c 0,10,11
 401 -168 401 -168 452 -104 c 0,12,13
 492 -56 492 -56 492 19 c 2,14,-1
 492 64 l 1,15,16
 409 -1 409 -1 311 -1 c 0,17,18
 161 -1 161 -1 78 88 c 0,19,20
 2 171 2 171 2 305 c 0,21,22
 2 441 2 441 78 529 c 0,23,24
 162 627 162 627 311 627 c 0,25,26
 408 627 408 627 492 562 c 1,27,-1
 492 612 l 1,28,-1
 583 612 l 1,29,-1
 583 19 l 2,0,1
492 157 m 1,30,-1
 492 469 l 1,31,32
 412 553 412 553 311 553 c 0,33,34
 200 553 200 553 142 474 c 0,35,36
 93 407 93 407 93 305 c 0,37,38
 93 205 93 205 142 144 c 0,39,40
 199 72 199 72 311 72 c 0,41,42
 412 72 412 72 492 157 c 1,30,-1
EndSplineSet
Validated: 1
EndChar

StartChar: h
Encoding: 104 104 73
Width: 734
GlyphClass: 1
Flags: W
LayerCount: 2
Fore
SplineSet
579 0 m 1,0,-1
 487 0 l 1,1,-1
 487 377 l 2,2,3
 487 540 487 540 354 540 c 0,4,5
 247 540 247 540 181 460 c 0,6,7
 119 385 119 385 119 274 c 2,8,-1
 119 0 l 1,9,-1
 28 0 l 1,10,-1
 28 856 l 1,11,-1
 119 856 l 1,12,-1
 119 458 l 1,13,14
 183 627 183 627 354 627 c 0,15,16
 579 627 579 627 579 377 c 2,17,-1
 579 0 l 1,0,-1
EndSplineSet
Validated: 1
EndChar

StartChar: i
Encoding: 105 105 74
Width: 734
GlyphClass: 1
Flags: W
LayerCount: 2
Fore
SplineSet
366 734 m 1,0,-1
 245 734 l 1,1,-1
 245 856 l 1,2,-1
 366 856 l 1,3,-1
 366 734 l 1,0,-1
489 0 m 1,4,-1
 122 0 l 1,5,-1
 122 80 l 1,6,-1
 260 80 l 1,7,-1
 260 532 l 1,8,-1
 122 532 l 1,9,-1
 122 612 l 1,10,-1
 351 612 l 1,11,-1
 351 80 l 1,12,-1
 489 80 l 1,13,-1
 489 0 l 1,4,-1
EndSplineSet
Validated: 1
EndChar

StartChar: j
Encoding: 106 106 75
Width: 734
GlyphClass: 1
Flags: W
LayerCount: 2
Fore
SplineSet
489 734 m 1,0,-1
 368 734 l 1,1,-1
 368 856 l 1,2,-1
 489 856 l 1,3,-1
 489 734 l 1,0,-1
474 19 m 2,4,5
 474 -102 474 -102 412 -170 c 0,6,7
 348 -242 348 -242 228 -242 c 0,8,9
 68 -242 68 -242 3 -108 c 1,10,-1
 71 -67 l 1,11,12
 119 -168 119 -168 228 -168 c 0,13,14
 315 -168 315 -168 351 -116 c 0,15,16
 382 -72 382 -72 382 19 c 1,17,-1
 382 19 l 1,18,-1
 382 532 l 1,19,-1
 245 532 l 1,20,-1
 245 612 l 1,21,-1
 474 612 l 1,22,-1
 474 19 l 2,4,5
EndSplineSet
Validated: 5
EndChar

StartChar: k
Encoding: 107 107 76
Width: 734
GlyphClass: 1
Flags: W
LayerCount: 2
Fore
SplineSet
610 0 m 1,0,-1
 482 0 l 1,1,-1
 233 274 l 1,2,-1
 123 173 l 1,3,-1
 123 0 l 1,4,-1
 32 0 l 1,5,-1
 32 856 l 1,6,-1
 123 856 l 1,7,-1
 123 282 l 1,8,-1
 470 612 l 1,9,-1
 599 612 l 1,10,-1
 293 330 l 1,11,-1
 610 0 l 1,0,-1
EndSplineSet
Validated: 1
EndChar

StartChar: l
Encoding: 108 108 77
Width: 734
GlyphClass: 1
Flags: W
LayerCount: 2
Fore
SplineSet
490 0 m 1,0,-1
 123 0 l 1,1,-1
 123 80 l 1,2,-1
 260 80 l 1,3,-1
 260 777 l 1,4,-1
 123 777 l 1,5,-1
 123 856 l 1,6,-1
 352 856 l 1,7,-1
 352 80 l 1,8,-1
 490 80 l 1,9,-1
 490 0 l 1,0,-1
EndSplineSet
Validated: 1
EndChar

StartChar: m
Encoding: 109 109 78
Width: 734
GlyphClass: 1
Flags: W
LayerCount: 2
Fore
SplineSet
611 0 m 1,0,-1
 520 0 l 1,1,-1
 520 420 l 2,2,3
 520 540 520 540 450 540 c 0,4,5
 350 540 350 540 350 346 c 2,6,-1
 350 0 l 1,7,-1
 259 0 l 1,8,-1
 259 420 l 2,9,10
 259 540 259 540 188 540 c 0,11,12
 140 540 140 540 118 499 c 0,13,14
 94 454 94 454 94 346 c 1,15,-1
 93 346 l 1,16,-1
 93 0 l 1,17,-1
 2 0 l 1,18,-1
 2 612 l 1,19,-1
 93 612 l 1,20,-1
 93 523 l 1,21,22
 122 627 122 627 212 627 c 0,23,24
 303 627 303 627 334 536 c 1,25,26
 379 627 379 627 461 627 c 0,27,28
 538 627 538 627 574.5 578 c 128,-1,29
 611 529 611 529 611 420 c 2,30,-1
 611 0 l 1,0,-1
EndSplineSet
Validated: 1
EndChar

StartChar: n
Encoding: 110 110 79
Width: 734
GlyphClass: 1
Flags: W
LayerCount: 2
Fore
SplineSet
585 0 m 1,0,-1
 493 0 l 1,1,-1
 493 377 l 2,2,3
 493 540 493 540 359 540 c 0,4,5
 252 540 252 540 187 460 c 0,6,7
 125 385 125 385 125 274 c 2,8,-1
 125 0 l 1,9,-1
 33 0 l 1,10,-1
 33 612 l 1,11,-1
 125 612 l 1,12,-1
 125 458 l 1,13,14
 189 627 189 627 359 627 c 0,15,16
 585 627 585 627 585 377 c 2,17,-1
 585 0 l 1,0,-1
EndSplineSet
Validated: 1
EndChar

StartChar: o
Encoding: 111 111 80
Width: 734
GlyphClass: 1
Flags: W
LayerCount: 2
Fore
SplineSet
629 304 m 0,0,1
 629 170 629 170 547 80 c 0,2,3
 458 -17 458 -17 307 -17 c 0,4,5
 157 -17 157 -17 68 80 c 0,6,7
 -15 170 -15 170 -15 304 c 0,8,9
 -15 439 -15 439 68 529 c 0,10,11
 157 626 157 626 307 626 c 0,12,13
 458 626 458 626 547 529 c 0,14,15
 629 439 629 439 629 304 c 0,0,1
538 304 m 0,16,17
 538 405 538 405 483 473 c 0,18,19
 420 552 420 552 307 552 c 0,20,21
 195 552 195 552 132 473 c 0,22,23
 77 405 77 405 77 304 c 0,24,25
 77 204 77 204 132 135 c 0,26,27
 195 56 195 56 307 56 c 0,28,29
 420 56 420 56 483 135 c 0,30,31
 538 204 538 204 538 304 c 0,16,17
EndSplineSet
Validated: 1
EndChar

StartChar: p
Encoding: 112 112 81
Width: 733
GlyphClass: 1
Flags: W
LayerCount: 2
Fore
SplineSet
611 305 m 0,0,1
 611 168 611 168 535 80 c 0,2,3
 451 -17 451 -17 301 -17 c 0,4,5
 204 -17 204 -17 121 48 c 1,6,-1
 121 -244 l 1,7,-1
 29 -244 l 1,8,-1
 29 611 l 1,9,-1
 121 611 l 1,10,-1
 121 562 l 1,11,12
 204 626 204 626 301 626 c 0,13,14
 451 626 451 626 535 529 c 0,15,16
 611 441 611 441 611 305 c 0,0,1
520 305 m 0,17,18
 520 407 520 407 471 474 c 0,19,20
 413 553 413 553 301 553 c 0,21,22
 201 553 201 553 121 469 c 1,23,-1
 121 141 l 1,24,25
 201 57 201 57 301 57 c 0,26,27
 413 57 413 57 471 136 c 0,28,29
 520 202 520 202 520 305 c 0,17,18
EndSplineSet
Validated: 1
EndChar

StartChar: q
Encoding: 113 113 82
Width: 733
GlyphClass: 1
Flags: W
LayerCount: 2
Fore
SplineSet
583 -244 m 1,0,-1
 491 -244 l 1,1,-1
 491 48 l 1,2,3
 408 -17 408 -17 311 -17 c 0,4,5
 162 -17 162 -17 78 80 c 0,6,7
 2 168 2 168 2 305 c 0,8,9
 2 441 2 441 78 529 c 0,10,11
 162 626 162 626 311 626 c 0,12,13
 408 626 408 626 491 562 c 1,14,-1
 491 611 l 1,15,-1
 583 611 l 1,16,-1
 583 -244 l 1,0,-1
491 141 m 1,17,-1
 491 469 l 1,18,19
 412 553 412 553 311 553 c 0,20,21
 200 553 200 553 142 474 c 0,22,23
 93 407 93 407 93 305 c 0,24,25
 93 202 93 202 142 136 c 0,26,27
 200 57 200 57 311 57 c 0,28,29
 412 57 412 57 491 141 c 1,17,-1
EndSplineSet
Validated: 1
EndChar

StartChar: r
Encoding: 114 114 83
Width: 734
GlyphClass: 1
Flags: W
LayerCount: 2
Fore
SplineSet
612 605 m 1,0,-1
 581 521 l 1,1,2
 531 545 531 545 466 545 c 0,3,4
 358 545 358 545 292 461 c 0,5,6
 232 384 232 384 232 274 c 2,7,-1
 232 79 l 1,8,-1
 370 79 l 1,9,-1
 370 0 l 1,10,-1
 3 0 l 1,11,-1
 3 79 l 1,12,-1
 140 79 l 1,13,-1
 140 532 l 1,14,-1
 3 532 l 1,15,-1
 3 612 l 1,16,-1
 232 612 l 1,17,-1
 232 458 l 1,18,19
 295 627 295 627 466 627 c 0,20,21
 559 627 559 627 612 605 c 1,0,-1
EndSplineSet
Validated: 1
EndChar

StartChar: s
Encoding: 115 115 84
Width: 734
GlyphClass: 1
Flags: W
LayerCount: 2
Fore
SplineSet
595 170 m 0,0,1
 595 87 595 87 518 36 c 0,2,3
 438 -17 438 -17 302 -17 c 0,4,5
 217 -17 217 -17 128 10 c 0,6,7
 45 35 45 35 -8 72 c 1,8,-1
 33 150 l 1,9,10
 164 56 164 56 302 56 c 0,11,12
 504 56 504 56 504 167 c 0,13,14
 504 232 504 232 377 252 c 0,15,16
 194 277 194 277 143 292 c 0,17,18
 16 333 16 333 16 448 c 0,19,20
 16 521 16 521 90 571 c 0,21,22
 170 626 170 626 302 626 c 0,23,24
 459 626 459 626 562 554 c 1,25,-1
 526 484 l 1,26,27
 444 552 444 552 302 552 c 0,28,29
 217 552 217 552 164 525 c 0,30,31
 108 497 108 497 108 448 c 0,32,33
 108 384 108 384 234 363 c 0,34,35
 406 339 406 339 469 323 c 1,36,37
 595 282 595 282 595 170 c 0,0,1
EndSplineSet
Validated: 1
EndChar

StartChar: t
Encoding: 116 116 85
Width: 734
GlyphClass: 1
Flags: W
LayerCount: 2
Fore
SplineSet
621 195 m 1,0,1
 611 104 611 104 551 46 c 0,2,3
 486 -16 486 -16 382 -16 c 0,4,5
 269 -16 269 -16 202 57 c 0,6,7
 140 124 140 124 140 225 c 2,8,-1
 140 532 l 1,9,-1
 3 532 l 1,10,-1
 3 611 l 1,11,-1
 140 611 l 1,12,-1
 140 856 l 1,13,-1
 232 856 l 1,14,-1
 232 611 l 1,15,-1
 490 611 l 1,16,-1
 490 532 l 1,17,-1
 232 532 l 1,18,-1
 232 225 l 2,19,20
 232 160 232 160 268 116 c 0,21,22
 309 64 309 64 382 64 c 0,23,24
 452 64 452 64 493 112 c 0,25,26
 528 154 528 154 531 216 c 1,27,-1
 621 195 l 1,0,1
EndSplineSet
Validated: 1
EndChar

StartChar: u
Encoding: 117 117 86
Width: 734
GlyphClass: 1
Flags: W
LayerCount: 2
Fore
SplineSet
584 0 m 1,0,-1
 492 0 l 1,1,-1
 492 154 l 1,2,3
 428 -15 428 -15 258 -15 c 0,4,5
 32 -15 32 -15 32 235 c 2,6,-1
 32 612 l 1,7,-1
 124 612 l 1,8,-1
 124 235 l 2,9,10
 124 71 124 71 258 71 c 0,11,12
 365 71 365 71 430 151 c 0,13,14
 492 227 492 227 492 338 c 2,15,-1
 492 612 l 1,16,-1
 584 612 l 1,17,-1
 584 0 l 1,0,-1
EndSplineSet
Validated: 1
EndChar

StartChar: v
Encoding: 118 118 87
Width: 734
GlyphClass: 1
Flags: W
LayerCount: 2
Fore
SplineSet
611 611 m 1,0,-1
 371 0 l 1,1,-1
 250 0 l 1,2,-1
 0 611 l 1,3,-1
 107 611 l 1,4,-1
 311 75 l 1,5,-1
 504 611 l 1,6,-1
 611 611 l 1,0,-1
EndSplineSet
Validated: 1
EndChar

StartChar: w
Encoding: 119 119 88
Width: 734
GlyphClass: 1
Flags: W
LayerCount: 2
Fore
SplineSet
612 612 m 1,0,-1
 501 1 l 1,1,-1
 396 1 l 1,2,-1
 308 449 l 1,3,-1
 219 1 l 1,4,-1
 114 1 l 1,5,-1
 3 612 l 1,6,-1
 98 612 l 1,7,-1
 177 122 l 1,8,-1
 263 607 l 1,9,-1
 352 607 l 1,10,-1
 438 122 l 1,11,-1
 517 612 l 1,12,-1
 612 612 l 1,0,-1
EndSplineSet
Validated: 1
EndChar

StartChar: x
Encoding: 120 120 89
Width: 734
GlyphClass: 1
Flags: W
LayerCount: 2
Fore
SplineSet
627 0 m 1,0,-1
 375 0 l 1,1,-1
 375 79 l 1,2,-1
 428 79 l 1,3,-1
 308 263 l 1,4,-1
 188 79 l 1,5,-1
 238 79 l 1,6,-1
 238 0 l 1,7,-1
 -13 0 l 1,8,-1
 -13 79 l 1,9,-1
 83 79 l 1,10,-1
 251 310 l 1,11,-1
 90 532 l 1,12,-1
 2 532 l 1,13,-1
 2 611 l 1,14,-1
 254 611 l 1,15,-1
 254 532 l 1,16,-1
 196 532 l 1,17,-1
 308 358 l 1,18,-1
 421 532 l 1,19,-1
 360 532 l 1,20,-1
 360 611 l 1,21,-1
 611 611 l 1,22,-1
 611 532 l 1,23,-1
 527 532 l 1,24,-1
 365 310 l 1,25,-1
 533 79 l 1,26,-1
 627 79 l 1,27,-1
 627 0 l 1,0,-1
EndSplineSet
Validated: 1
EndChar

StartChar: y
Encoding: 121 121 90
Width: 734
GlyphClass: 1
Flags: W
LayerCount: 2
Fore
SplineSet
606 611 m 1,0,-1
 314 -139 l 2,1,2
 298 -178 298 -178 257 -207 c 0,3,4
 203 -244 203 -244 128 -244 c 0,5,6
 72 -244 72 -244 6 -222 c 1,7,-1
 26 -130 l 1,8,9
 98 -150 98 -150 135 -150 c 0,10,11
 196 -150 196 -150 216 -101 c 2,12,-1
 251 -17 l 1,13,-1
 -5 611 l 1,14,-1
 102 611 l 1,15,-1
 308 83 l 1,16,-1
 499 611 l 1,17,-1
 606 611 l 1,0,-1
EndSplineSet
Validated: 1
EndChar

StartChar: z
Encoding: 122 122 91
Width: 734
GlyphClass: 1
Flags: W
LayerCount: 2
Fore
SplineSet
580 0 m 1,0,-1
 29 0 l 1,1,-1
 29 79 l 1,2,-1
 442 532 l 1,3,-1
 109 532 l 1,4,-1
 109 368 l 1,5,-1
 29 368 l 1,6,-1
 29 611 l 1,7,-1
 565 611 l 1,8,-1
 565 532 l 1,9,-1
 152 79 l 1,10,-1
 500 79 l 1,11,-1
 500 242 l 1,12,-1
 580 242 l 1,13,-1
 580 0 l 1,0,-1
EndSplineSet
Validated: 1
EndChar

StartChar: braceleft
Encoding: 123 123 92
Width: 734
GlyphClass: 1
Flags: W
LayerCount: 2
Fore
SplineSet
490 -244 m 1,0,-1
 429 -244 l 2,1,2
 346 -244 346 -244 295 -190 c 0,3,4
 246 -139 246 -139 246 -60 c 2,5,-1
 246 220 l 2,6,7
 246 330 246 330 124 330 c 1,8,-1
 124 404 l 1,9,10
 246 404 246 404 246 515 c 2,11,-1
 246 795 l 2,12,13
 246 873 246 873 296 925.5 c 128,-1,14
 346 978 346 978 429 978 c 2,15,-1
 490 978 l 1,16,-1
 490 905 l 1,17,-1
 429 905 l 2,18,19
 318 905 318 905 318 795 c 2,20,-1
 318 515 l 2,21,22
 318 467 318 467 288 424 c 0,23,24
 255 379 255 379 205 367 c 1,25,26
 253 357 253 357 287 311 c 0,27,28
 318 268 318 268 318 220 c 2,29,-1
 318 -60 l 2,30,31
 318 -171 318 -171 429 -171 c 2,32,-1
 490 -171 l 1,33,-1
 490 -244 l 1,0,-1
EndSplineSet
Validated: 1
EndChar

StartChar: bar
Encoding: 124 124 93
Width: 734
GlyphClass: 1
Flags: W
LayerCount: 2
Fore
SplineSet
353 -123 m 1,0,-1
 261 -123 l 1,1,-1
 261 978 l 1,2,-1
 353 978 l 1,3,-1
 353 -123 l 1,0,-1
EndSplineSet
Validated: 1
EndChar

StartChar: braceright
Encoding: 125 125 94
Width: 734
GlyphClass: 1
Flags: W
LayerCount: 2
Fore
SplineSet
489 330 m 1,0,1
 367 330 367 330 367 220 c 2,2,-1
 367 -60 l 2,3,4
 367 -139 367 -139 317 -190 c 0,5,6
 266 -244 266 -244 183 -244 c 2,7,-1
 122 -244 l 1,8,-1
 122 -171 l 1,9,-1
 183 -171 l 2,10,11
 294 -171 294 -171 294 -60 c 2,12,-1
 294 220 l 2,13,14
 294 268 294 268 326.5 312.5 c 128,-1,15
 359 357 359 357 408 367 c 1,16,17
 358 379 358 379 326 423 c 128,-1,18
 294 467 294 467 294 515 c 2,19,-1
 294 795 l 2,20,21
 294 905 294 905 183 905 c 2,22,-1
 122 905 l 1,23,-1
 122 978 l 1,24,-1
 183 978 l 2,25,26
 266 978 266 978 316.5 925.5 c 128,-1,27
 367 873 367 873 367 795 c 2,28,-1
 367 515 l 2,29,30
 367 404 367 404 489 404 c 1,31,-1
 489 330 l 1,0,1
EndSplineSet
Validated: 1
EndChar

StartChar: asciitilde
Encoding: 126 126 95
Width: 734
GlyphClass: 1
Flags: W
LayerCount: 2
Fore
SplineSet
555 900 m 1,0,1
 495 797 495 797 394 797 c 0,2,3
 331 797 331 797 282 843 c 0,4,5
 251 873 251 873 212 873 c 0,6,7
 146 873 146 873 104 801 c 1,8,-1
 51 832 l 1,9,10
 111 934 111 934 212 934 c 0,11,12
 275 934 275 934 324 888 c 0,13,14
 356 858 356 858 394 858 c 0,15,16
 460 858 460 858 503 931 c 1,17,-1
 555 900 l 1,0,1
EndSplineSet
Validated: 1
EndChar

StartChar: Euro
Encoding: 164 164 96
AltUni2: 0020ac.ffffffff.0
Width: 734
GlyphClass: 1
Flags: W
LayerCount: 2
Fore
SplineSet
617 225 m 1,0,1
 587 107 587 107 520 44 c 0,2,3
 457 -15 457 -15 370 -15 c 0,4,5
 271 -15 271 -15 203 61 c 0,6,7
 131 142 131 142 109 293 c 1,8,-1
 0 293 l 1,9,-1
 0 366 l 1,10,-1
 102 366 l 1,11,12
 100 396 100 396 100 428 c 0,13,14
 100 459 100 459 102 489 c 1,15,-1
 0 489 l 1,16,-1
 0 561 l 1,17,-1
 109 561 l 1,18,19
 131 714 131 714 203 796 c 0,20,21
 271 872 271 872 370 872 c 0,22,23
 457 872 457 872 520 813 c 0,24,25
 587 750 587 750 617 632 c 1,26,-1
 540 599 l 1,27,28
 496 792 496 792 370 792 c 0,29,30
 224 792 224 792 190 561 c 1,31,-1
 367 561 l 1,32,-1
 367 489 l 1,33,-1
 183 489 l 1,34,35
 182 460 182 460 182 428 c 256,36,37
 182 396 182 396 183 366 c 1,38,-1
 367 366 l 1,39,-1
 367 293 l 1,40,-1
 191 293 l 1,41,42
 225 65 225 65 370 65 c 0,43,44
 496 65 496 65 540 258 c 1,45,-1
 617 225 l 1,0,1
EndSplineSet
Validated: 1
EndChar

StartChar: quotesinglbase
Encoding: 8218 8218 97
Width: 734
GlyphClass: 1
Flags: W
LayerCount: 2
Fore
SplineSet
401 242 m 1,0,-1
 221 -125 l 1,1,-1
 157 -125 l 1,2,-1
 280 242 l 1,3,-1
 401 242 l 1,0,-1
EndSplineSet
Validated: 1
EndChar

StartChar: florin
Encoding: 402 402 98
Width: 732
GlyphClass: 1
Flags: W
LayerCount: 2
Fore
SplineSet
611 1014 m 1,0,1
 573 1018 573 1018 541 1018 c 0,2,3
 436 1018 436 1018 392 970 c 0,4,5
 353 929 353 929 353 843 c 2,6,-1
 353 610 l 1,7,-1
 491 610 l 1,8,-1
 491 530 l 1,9,-1
 353 530 l 1,10,-1
 353 7 l 1,11,-1
 353 7 l 1,12,13
 353 -243 353 -243 91 -243 c 0,14,15
 50 -243 50 -243 4 -237 c 1,16,-1
 4 -163 l 1,17,18
 42 -167 42 -167 74 -167 c 0,19,20
 179 -167 179 -167 224 -119 c 0,21,22
 262 -78 262 -78 262 7 c 2,23,-1
 262 530 l 1,24,-1
 125 530 l 1,25,-1
 125 610 l 1,26,-1
 262 610 l 1,27,-1
 262 843 l 1,28,-1
 262 843 l 1,29,30
 262 1094 262 1094 525 1094 c 0,31,32
 565 1094 565 1094 611 1087 c 1,33,-1
 611 1014 l 1,0,1
EndSplineSet
Validated: 5
EndChar

StartChar: quotedblbase
Encoding: 8222 8222 99
Width: 734
GlyphClass: 1
Flags: W
LayerCount: 2
Fore
SplineSet
280 242 m 1,0,-1
 100 -125 l 1,1,-1
 36 -125 l 1,2,-1
 160 242 l 1,3,-1
 280 242 l 1,0,-1
522 242 m 1,4,-1
 342 -125 l 1,5,-1
 277 -125 l 1,6,-1
 401 242 l 1,7,-1
 522 242 l 1,4,-1
EndSplineSet
Validated: 1
EndChar

StartChar: ellipsis
Encoding: 8230 8230 100
Width: 732
GlyphClass: 1
Flags: W
LayerCount: 2
Fore
SplineSet
609 1 m 1,0,-1
 488 1 l 1,1,-1
 488 120 l 1,2,-1
 609 120 l 1,3,-1
 609 1 l 1,0,-1
365 1 m 1,4,-1
 244 1 l 1,5,-1
 244 120 l 1,6,-1
 365 120 l 1,7,-1
 365 1 l 1,4,-1
121 1 m 1,8,-1
 0 1 l 1,9,-1
 0 120 l 1,10,-1
 121 120 l 1,11,-1
 121 1 l 1,8,-1
EndSplineSet
Validated: 1
EndChar

StartChar: dagger
Encoding: 8224 8224 101
Width: 734
GlyphClass: 1
Flags: W
LayerCount: 2
Fore
SplineSet
490 635 m 1,0,-1
 334 644 l 1,1,-1
 343 245 l 1,2,-1
 270 245 l 1,3,-1
 279 644 l 1,4,-1
 123 635 l 1,5,-1
 123 708 l 1,6,-1
 279 699 l 1,7,-1
 270 856 l 1,8,-1
 343 856 l 1,9,-1
 334 699 l 1,10,-1
 490 708 l 1,11,-1
 490 635 l 1,0,-1
EndSplineSet
Validated: 1
EndChar

StartChar: daggerdbl
Encoding: 8225 8225 102
Width: 734
GlyphClass: 1
Flags: W
LayerCount: 2
Fore
SplineSet
490 270 m 1,0,-1
 334 279 l 1,1,-1
 343 122 l 1,2,-1
 270 122 l 1,3,-1
 279 279 l 1,4,-1
 123 270 l 1,5,-1
 123 343 l 1,6,-1
 279 334 l 1,7,-1
 279 644 l 1,8,-1
 123 635 l 1,9,-1
 123 708 l 1,10,-1
 279 699 l 1,11,-1
 270 856 l 1,12,-1
 343 856 l 1,13,-1
 334 699 l 1,14,-1
 490 708 l 1,15,-1
 490 635 l 1,16,-1
 334 644 l 1,17,-1
 334 334 l 1,18,-1
 490 343 l 1,19,-1
 490 270 l 1,0,-1
EndSplineSet
Validated: 1
EndChar

StartChar: circumflex
Encoding: 710 710 103
Width: 734
GlyphClass: 1
Flags: W
LayerCount: 2
Fore
SplineSet
501 790 m 1,0,-1
 467 746 l 1,1,-1
 308 880 l 1,2,-1
 146 745 l 1,3,-1
 112 788 l 1,4,-1
 307 978 l 1,5,-1
 501 790 l 1,0,-1
EndSplineSet
Validated: 1
EndChar

StartChar: perthousand
Encoding: 8240 8240 104
Width: 734
GlyphClass: 1
Flags: W
LayerCount: 2
Fore
SplineSet
250 706 m 0,0,1
 250 637 250 637 211 588.5 c 128,-1,2
 172 540 172 540 117 540 c 0,3,4
 63 540 63 540 24 588.5 c 128,-1,5
 -15 637 -15 637 -15 706 c 0,6,7
 -15 774 -15 774 24 822.5 c 128,-1,8
 63 871 63 871 117 871 c 0,9,10
 172 871 172 871 211 822.5 c 128,-1,11
 250 774 250 774 250 706 c 0,0,1
733 150 m 0,12,13
 733 82 733 82 694.5 33.5 c 128,-1,14
 656 -15 656 -15 601 -15 c 256,15,16
 546 -15 546 -15 507 33.5 c 128,-1,17
 468 82 468 82 468 150 c 0,18,19
 468 219 468 219 507 267.5 c 128,-1,20
 546 316 546 316 601 316 c 256,21,22
 656 316 656 316 694.5 267.5 c 128,-1,23
 733 219 733 219 733 150 c 0,12,13
436 844 m 1,24,-1
 63 -19 l 1,25,-1
 -4 13 l 1,26,-1
 373 876 l 1,27,-1
 436 844 l 1,24,-1
456 150 m 0,28,29
 456 82 456 82 417.5 33.5 c 128,-1,30
 379 -15 379 -15 324 -15 c 256,31,32
 269 -15 269 -15 230 33.5 c 128,-1,33
 191 82 191 82 191 150 c 0,34,35
 191 219 191 219 230 267.5 c 128,-1,36
 269 316 269 316 324 316 c 256,37,38
 379 316 379 316 417.5 267.5 c 128,-1,39
 456 219 456 219 456 150 c 0,28,29
181 706 m 256,40,41
 181 747 181 747 162.5 775.5 c 128,-1,42
 144 804 144 804 117 804 c 0,43,44
 91 804 91 804 72 775.5 c 128,-1,45
 53 747 53 747 53 706 c 256,46,47
 53 665 53 665 72 636 c 128,-1,48
 91 607 91 607 117 607 c 0,49,50
 144 607 144 607 162.5 636 c 128,-1,51
 181 665 181 665 181 706 c 256,40,41
665 150 m 256,52,53
 665 191 665 191 646 220 c 128,-1,54
 627 249 627 249 601 249 c 0,55,56
 574 249 574 249 555.5 220 c 128,-1,57
 537 191 537 191 537 150 c 256,58,59
 537 109 537 109 555.5 80 c 128,-1,60
 574 51 574 51 601 51 c 0,61,62
 627 51 627 51 646 80 c 128,-1,63
 665 109 665 109 665 150 c 256,52,53
388 150 m 256,64,65
 388 191 388 191 369 220 c 128,-1,66
 350 249 350 249 324 249 c 0,67,68
 297 249 297 249 278.5 220 c 128,-1,69
 260 191 260 191 260 150 c 256,70,71
 260 109 260 109 278.5 80 c 128,-1,72
 297 51 297 51 324 51 c 0,73,74
 350 51 350 51 369 80 c 128,-1,75
 388 109 388 109 388 150 c 256,64,65
EndSplineSet
Validated: 1
EndChar

StartChar: Scaron
Encoding: 352 352 105
Width: 734
GlyphClass: 1
Flags: W
LayerCount: 2
Fore
SplineSet
501 1032 m 1,0,-1
 331 868 l 1,1,2
 397 857 397 857 445 814 c 0,3,4
 490 774 490 774 490 734 c 1,5,-1
 490 856 l 1,6,-1
 570 856 l 1,7,-1
 570 612 l 1,8,-1
 490 612 l 1,9,10
 490 685 490 685 431 738.5 c 128,-1,11
 372 792 372 792 292 792 c 0,12,13
 215 792 215 792 168 750.5 c 128,-1,14
 121 709 121 709 121 653 c 0,15,16
 121 570 121 570 243 518 c 0,17,18
 356 471 356 471 469 424 c 1,19,20
 590 353 590 353 590 223 c 0,21,22
 590 123 590 123 513.5 54 c 128,-1,23
 437 -15 437 -15 321 -15 c 0,24,25
 222 -15 222 -15 154 38 c 0,26,27
 99 82 99 82 96 124 c 1,28,-1
 96 0 l 1,29,-1
 17 0 l 1,30,-1
 17 259 l 1,31,-1
 96 259 l 1,32,33
 96 186 96 186 155 128 c 0,34,35
 220 64 220 64 321 64 c 0,36,37
 416 64 416 64 461 121 c 0,38,39
 492 161 492 161 492 215 c 0,40,41
 492 314 492 314 372 371 c 1,42,43
 260 417 260 417 149 462 c 1,44,45
 28 528 28 528 28 652 c 0,46,47
 28 740 28 740 93 801 c 0,48,49
 164 868 164 868 281 871 c 1,50,-1
 112 1034 l 1,51,-1
 146 1078 l 1,52,-1
 308 943 l 1,53,-1
 467 1076 l 1,54,-1
 501 1032 l 1,0,-1
EndSplineSet
Validated: 1
EndChar

StartChar: guilsinglleft
Encoding: 8249 8249 106
Width: 734
GlyphClass: 1
Flags: W
LayerCount: 2
Fore
SplineSet
396 265 m 1,0,-1
 345 213 l 1,1,-1
 131 428 l 1,2,-1
 345 644 l 1,3,-1
 396 592 l 1,4,-1
 234 428 l 1,5,-1
 396 265 l 1,0,-1
EndSplineSet
Validated: 1
EndChar

StartChar: OE
Encoding: 338 338 107
Width: 732
GlyphClass: 1
Flags: W
LayerCount: 2
Fore
SplineSet
611 0 m 1,0,-1
 315 0 l 1,1,-1
 315 108 l 1,2,3
 278 -15 278 -15 181 -15 c 0,4,5
 -11 -15 -11 -15 -11 428 c 0,6,7
 -11 870 -11 870 181 870 c 0,8,9
 278 870 278 870 315 748 c 1,10,-1
 315 855 l 1,11,-1
 611 855 l 1,12,-1
 611 776 l 1,13,-1
 370 776 l 1,14,-1
 370 476 l 1,15,-1
 552 476 l 1,16,-1
 552 397 l 1,17,-1
 370 397 l 1,18,-1
 370 80 l 1,19,-1
 611 80 l 1,20,-1
 611 0 l 1,0,-1
279 428 m 0,21,22
 279 611 279 611 260 694 c 0,23,24
 238 791 238 791 181 791 c 256,25,26
 124 791 124 791 101 694 c 0,27,28
 81 610 81 610 81 428 c 0,29,30
 81 245 81 245 101 162 c 0,31,32
 124 64 124 64 181 64 c 256,33,34
 238 64 238 64 260 162 c 0,35,36
 279 244 279 244 279 428 c 0,21,22
EndSplineSet
Validated: 1
EndChar

StartChar: Zcaron
Encoding: 381 381 108
Width: 734
GlyphClass: 1
Flags: W
LayerCount: 2
Fore
SplineSet
585 0 m 1,0,-1
 34 0 l 1,1,-1
 34 80 l 1,2,-1
 462 777 l 1,3,-1
 114 777 l 1,4,-1
 114 567 l 1,5,-1
 34 567 l 1,6,-1
 34 856 l 1,7,-1
 296 856 l 1,8,-1
 112 1034 l 1,9,-1
 146 1078 l 1,10,-1
 308 943 l 1,11,-1
 467 1076 l 1,12,-1
 501 1032 l 1,13,-1
 318 856 l 1,14,-1
 569 856 l 1,15,-1
 569 777 l 1,16,-1
 142 80 l 1,17,-1
 505 80 l 1,18,-1
 505 290 l 1,19,-1
 585 290 l 1,20,-1
 585 0 l 1,0,-1
EndSplineSet
Validated: 1
EndChar

StartChar: quoteleft
Encoding: 8216 8216 109
Width: 732
GlyphClass: 1
Flags: W
LayerCount: 2
Fore
SplineSet
490 488 m 1,0,-1
 282 488 l 1,1,-1
 282 630 l 2,2,3
 282 726 282 726 335 788 c 0,4,5
 392 853 392 853 490 853 c 1,6,-1
 490 777 l 1,7,8
 358 777 358 777 358 630 c 2,9,-1
 358 607 l 1,10,-1
 490 607 l 1,11,-1
 490 488 l 1,0,-1
EndSplineSet
Validated: 1
EndChar

StartChar: quoteright
Encoding: 8217 8217 110
Width: 732
GlyphClass: 1
Flags: W
LayerCount: 2
Fore
SplineSet
453 712 m 2,0,1
 453 616 453 616 400 555 c 0,2,3
 343 489 343 489 246 489 c 1,4,-1
 246 566 l 1,5,6
 377 566 377 566 377 712 c 2,7,-1
 377 735 l 1,8,-1
 245 735 l 1,9,-1
 245 854 l 1,10,-1
 453 854 l 1,11,-1
 453 712 l 2,0,1
EndSplineSet
Validated: 1
EndChar

StartChar: quotedblleft
Encoding: 8220 8220 111
Width: 732
GlyphClass: 1
Flags: W
LayerCount: 2
Fore
SplineSet
611 488 m 1,0,-1
 402 488 l 1,1,-1
 402 630 l 2,2,3
 402 726 402 726 457.5 789.5 c 128,-1,4
 513 853 513 853 610 853 c 1,5,-1
 610 777 l 1,6,7
 478 777 478 777 478 630 c 2,8,-1
 478 607 l 1,9,-1
 611 607 l 1,10,-1
 611 488 l 1,0,-1
245 488 m 1,11,-1
 36 488 l 1,12,-1
 36 630 l 2,13,14
 36 726 36 726 91.5 789.5 c 128,-1,15
 147 853 147 853 244 853 c 1,16,-1
 244 777 l 1,17,18
 113 777 113 777 113 630 c 2,19,-1
 113 607 l 1,20,-1
 245 607 l 1,21,-1
 245 488 l 1,11,-1
EndSplineSet
Validated: 1
EndChar

StartChar: quotedblright
Encoding: 8221 8221 112
Width: 732
GlyphClass: 1
Flags: W
LayerCount: 2
Fore
SplineSet
576 712 m 2,0,1
 576 616 576 616 522 555 c 0,2,3
 465 489 465 489 368 489 c 1,4,-1
 368 566 l 1,5,6
 499 566 499 566 499 712 c 2,7,-1
 499 735 l 1,8,-1
 367 735 l 1,9,-1
 367 854 l 1,10,-1
 576 854 l 1,11,-1
 576 712 l 2,0,1
209 712 m 2,12,13
 209 616 209 616 156 555 c 0,14,15
 99 489 99 489 2 489 c 1,16,-1
 2 566 l 1,17,18
 133 566 133 566 133 712 c 2,19,-1
 133 735 l 1,20,-1
 1 735 l 1,21,-1
 1 854 l 1,22,-1
 209 854 l 1,23,-1
 209 712 l 2,12,13
EndSplineSet
Validated: 1
EndChar

StartChar: bullet
Encoding: 8226 8226 113
Width: 734
GlyphClass: 1
Flags: W
LayerCount: 2
Fore
SplineSet
611 489 m 0,0,1
 611 387 611 387 539.5 315.5 c 128,-1,2
 468 244 468 244 367 244 c 256,3,4
 266 244 266 244 194 315.5 c 128,-1,5
 122 387 122 387 122 489 c 0,6,7
 122 590 122 590 194 661.5 c 128,-1,8
 266 733 266 733 367 733 c 256,9,10
 468 733 468 733 539.5 661.5 c 128,-1,11
 611 590 611 590 611 489 c 0,0,1
EndSplineSet
Validated: 1
EndChar

StartChar: endash
Encoding: 8211 8211 114
Width: 732
GlyphClass: 1
Flags: W
LayerCount: 2
Fore
SplineSet
610 392 m 1,0,-1
 610 464 l 1,1,-1
 0 464 l 1,2,-1
 0 392 l 1,3,-1
 610 392 l 1,0,-1
EndSplineSet
Validated: 9
EndChar

StartChar: emdash
Encoding: 8212 8212 115
Width: 732
GlyphClass: 1
Flags: W
LayerCount: 2
Fore
SplineSet
732 392 m 1,0,-1
 0 392 l 1,1,-1
 0 464 l 1,2,-1
 732 464 l 1,3,-1
 732 392 l 1,0,-1
EndSplineSet
Validated: 1
EndChar

StartChar: tilde
Encoding: 732 732 116
Width: 734
GlyphClass: 1
Flags: W
LayerCount: 2
Fore
SplineSet
555 900 m 1,0,1
 495 797 495 797 394 797 c 0,2,3
 331 797 331 797 282 843 c 0,4,5
 251 873 251 873 212 873 c 0,6,7
 146 873 146 873 104 801 c 1,8,-1
 51 832 l 1,9,10
 111 934 111 934 212 934 c 0,11,12
 275 934 275 934 324 888 c 0,13,14
 356 858 356 858 394 858 c 0,15,16
 460 858 460 858 503 931 c 1,17,-1
 555 900 l 1,0,1
EndSplineSet
Validated: 1
EndChar

StartChar: trademark
Encoding: 8482 8482 117
Width: 735
GlyphClass: 1
Flags: W
LayerCount: 2
Fore
SplineSet
735 611 m 1,0,-1
 662 611 l 1,1,-1
 662 869 l 1,2,-1
 577 651 l 1,3,-1
 526 651 l 1,4,-1
 441 869 l 1,5,-1
 441 611 l 1,6,-1
 368 611 l 1,7,-1
 368 978 l 1,8,-1
 472 978 l 1,9,-1
 551 764 l 1,10,-1
 631 978 l 1,11,-1
 735 978 l 1,12,-1
 735 611 l 1,0,-1
305 905 m 1,13,-1
 189 905 l 1,14,-1
 189 611 l 1,15,-1
 116 611 l 1,16,-1
 116 905 l 1,17,-1
 0 905 l 1,18,-1
 0 978 l 1,19,-1
 305 978 l 1,20,-1
 305 905 l 1,13,-1
EndSplineSet
Validated: 1
EndChar

StartChar: scaron
Encoding: 353 353 118
Width: 734
GlyphClass: 1
Flags: W
LayerCount: 2
Fore
SplineSet
595 170 m 0,0,1
 595 87 595 87 518 36 c 0,2,3
 438 -17 438 -17 302 -17 c 0,4,5
 217 -17 217 -17 128 10 c 0,6,7
 45 35 45 35 -8 72 c 1,8,-1
 33 150 l 1,9,10
 164 56 164 56 302 56 c 0,11,12
 504 56 504 56 504 167 c 0,13,14
 504 232 504 232 377 252 c 0,15,16
 150 289 150 289 143 292 c 0,17,18
 16 333 16 333 16 448 c 0,19,20
 16 521 16 521 90 571 c 0,21,22
 170 626 170 626 302 626 c 0,23,24
 459 626 459 626 562 554 c 1,25,-1
 526 484 l 1,26,27
 444 552 444 552 302 552 c 0,28,29
 217 552 217 552 164 525 c 0,30,31
 108 497 108 497 108 448 c 0,32,33
 108 384 108 384 234 363 c 0,34,35
 465 324 465 324 469 323 c 0,36,37
 595 282 595 282 595 170 c 0,0,1
501 932 m 1,38,-1
 307 745 l 1,39,-1
 305 748 l 1,40,-1
 112 934 l 1,41,-1
 146 978 l 1,42,-1
 308 843 l 1,43,-1
 467 976 l 1,44,-1
 501 932 l 1,38,-1
EndSplineSet
Validated: 1
EndChar

StartChar: guilsinglright
Encoding: 8250 8250 119
Width: 734
GlyphClass: 1
Flags: W
LayerCount: 2
Fore
SplineSet
481 428 m 1,0,-1
 267 213 l 1,1,-1
 215 264 l 1,2,-1
 378 428 l 1,3,-1
 215 591 l 1,4,-1
 267 643 l 1,5,-1
 481 428 l 1,0,-1
EndSplineSet
Validated: 1
EndChar

StartChar: oe
Encoding: 339 339 120
Width: 732
GlyphClass: 1
Flags: W
LayerCount: 2
Fore
SplineSet
626 275 m 1,0,-1
 345 275 l 1,1,2
 345 58 345 58 447 58 c 0,3,4
 522 58 522 58 540 150 c 1,5,-1
 614 127 l 1,6,7
 569 -16 569 -16 447 -16 c 0,8,9
 331 -16 331 -16 298 118 c 1,10,11
 269 -16 269 -16 159 -16 c 0,12,13
 -25 -16 -25 -16 -25 306 c 0,14,15
 -25 627 -25 627 159 627 c 0,16,17
 267 627 267 627 297 500 c 1,18,19
 326 627 326 627 439 627 c 0,20,21
 551 627 551 627 595 514 c 0,22,23
 626 435 626 435 626 275 c 1,0,-1
529 355 m 1,24,25
 529 454 529 454 518 492 c 0,26,27
 499 553 499 553 439 553 c 0,28,29
 382 553 382 553 361 492 c 0,30,31
 346 449 346 449 346 355 c 1,32,-1
 529 355 l 1,24,25
251 306 m 0,33,34
 251 553 251 553 159 553 c 0,35,36
 66 553 66 553 66 306 c 0,37,38
 66 58 66 58 159 58 c 0,39,40
 251 58 251 58 251 306 c 0,33,34
EndSplineSet
Validated: 1
EndChar

StartChar: zcaron
Encoding: 382 382 121
Width: 734
GlyphClass: 1
Flags: W
LayerCount: 2
Fore
SplineSet
501 932 m 1,0,-1
 307 745 l 1,1,-1
 305 748 l 1,2,-1
 112 934 l 1,3,-1
 146 978 l 1,4,-1
 308 843 l 1,5,-1
 467 976 l 1,6,-1
 501 932 l 1,0,-1
580 0 m 1,7,-1
 29 0 l 1,8,-1
 29 79 l 1,9,-1
 442 532 l 1,10,-1
 109 532 l 1,11,-1
 109 368 l 1,12,-1
 29 368 l 1,13,-1
 29 611 l 1,14,-1
 565 611 l 1,15,-1
 565 532 l 1,16,-1
 152 79 l 1,17,-1
 500 79 l 1,18,-1
 500 242 l 1,19,-1
 580 242 l 1,20,-1
 580 0 l 1,7,-1
EndSplineSet
Validated: 1
EndChar

StartChar: Ydieresis
Encoding: 376 376 122
Width: 734
GlyphClass: 1
Flags: W
LayerCount: 2
Fore
SplineSet
627 777 m 1,0,-1
 557 777 l 1,1,-1
 354 370 l 1,2,-1
 354 80 l 1,3,-1
 491 80 l 1,4,-1
 491 1 l 1,5,-1
 124 1 l 1,6,-1
 124 80 l 1,7,-1
 262 80 l 1,8,-1
 262 370 l 1,9,-1
 59 777 l 1,10,-1
 -12 777 l 1,11,-1
 -12 857 l 1,12,-1
 232 857 l 1,13,-1
 232 777 l 1,14,-1
 159 777 l 1,15,-1
 307 467 l 1,16,-1
 309 467 l 1,17,-1
 456 777 l 1,18,-1
 384 777 l 1,19,-1
 384 857 l 1,20,-1
 627 857 l 1,21,-1
 627 777 l 1,0,-1
489 977 m 1,22,-1
 367 977 l 1,23,-1
 367 1100 l 1,24,-1
 489 1100 l 1,25,-1
 489 977 l 1,22,-1
245 977 m 1,26,-1
 122 977 l 1,27,-1
 122 1100 l 1,28,-1
 245 1100 l 1,29,-1
 245 977 l 1,26,-1
EndSplineSet
Validated: 1
EndChar

StartChar: exclamdown
Encoding: 161 161 124
Width: 732
GlyphClass: 1
Flags: W
LayerCount: 2
Fore
SplineSet
491 732 m 1,0,-1
 371 732 l 1,1,-1
 371 851 l 1,2,-1
 491 851 l 1,3,-1
 491 732 l 1,0,-1
488 0 m 1,4,-1
 368 0 l 1,5,-1
 401 610 l 1,6,-1
 454 610 l 1,7,-1
 488 0 l 1,4,-1
EndSplineSet
Validated: 1
EndChar

StartChar: cent
Encoding: 162 162 125
Width: 734
GlyphClass: 1
Flags: W
LayerCount: 2
Fore
SplineSet
594 237 m 1,0,1
 517 116 517 116 355 106 c 1,2,-1
 355 -1 l 1,3,-1
 263 -1 l 1,4,-1
 263 111 l 1,5,6
 141 131 141 131 71 223 c 0,7,8
 6 309 6 309 6 427 c 0,9,10
 6 546 6 546 71 632 c 0,11,12
 141 724 141 724 263 744 c 1,13,-1
 263 854 l 1,14,-1
 355 854 l 1,15,-1
 355 748 l 1,16,17
 517 738 517 738 594 617 c 1,18,-1
 531 574 l 1,19,20
 481 662 481 662 355 674 c 1,21,-1
 355 180 l 1,22,23
 481 192 481 192 531 281 c 1,24,-1
 594 237 l 1,0,1
263 187 m 1,25,-1
 263 667 l 1,26,27
 181 647 181 647 137 575 c 0,28,29
 97 511 97 511 97 427 c 0,30,31
 97 344 97 344 137 280 c 0,32,33
 181 208 181 208 263 187 c 1,25,-1
EndSplineSet
Validated: 1
EndChar

StartChar: sterling
Encoding: 163 163 126
Width: 734
GlyphClass: 1
Flags: W
LayerCount: 2
Fore
SplineSet
627 184 m 1,0,1
 582 88 582 88 489 41 c 0,2,3
 409 0 409 0 305 0 c 2,4,-1
 18 0 l 1,5,-1
 18 631 l 1,6,-1
 18 631 l 1,7,8
 18 734 18 734 87 798 c 128,-1,9
 156 862 156 862 263 862 c 0,10,11
 346 862 346 862 406.5 818.5 c 128,-1,12
 467 775 467 775 482 696 c 1,13,-1
 401 678 l 1,14,15
 376 786 376 786 263 786 c 0,16,17
 189 786 189 786 149.5 745 c 128,-1,18
 110 704 110 704 110 631 c 2,19,-1
 110 469 l 1,20,-1
 368 469 l 1,21,-1
 368 390 l 1,22,-1
 110 390 l 1,23,-1
 110 79 l 1,24,-1
 305 79 l 2,25,26
 483 79 483 79 557 223 c 1,27,-1
 627 184 l 1,0,1
EndSplineSet
Validated: 5
EndChar

StartChar: yen
Encoding: 165 165 127
Width: 734
GlyphClass: 1
Flags: W
LayerCount: 2
Fore
SplineSet
612 267 m 1,0,-1
 353 267 l 1,1,-1
 353 0 l 1,2,-1
 262 0 l 1,3,-1
 262 267 l 1,4,-1
 2 267 l 1,5,-1
 2 347 l 1,6,-1
 262 347 l 1,7,-1
 262 369 l 1,8,-1
 191 511 l 1,9,-1
 2 511 l 1,10,-1
 2 590 l 1,11,-1
 151 590 l 1,12,-1
 19 855 l 1,13,-1
 120 855 l 1,14,-1
 307 465 l 1,15,-1
 308 465 l 1,16,-1
 495 855 l 1,17,-1
 595 855 l 1,18,-1
 464 590 l 1,19,-1
 612 590 l 1,20,-1
 612 511 l 1,21,-1
 424 511 l 1,22,-1
 353 369 l 1,23,-1
 353 347 l 1,24,-1
 612 347 l 1,25,-1
 612 267 l 1,0,-1
EndSplineSet
Validated: 1
EndChar

StartChar: brokenbar
Encoding: 166 166 128
Width: 734
GlyphClass: 1
Flags: W
LayerCount: 2
Fore
SplineSet
353 -123 m 1,0,-1
 261 -123 l 1,1,-1
 261 378 l 1,2,-1
 353 378 l 1,3,-1
 353 -123 l 1,0,-1
353 477 m 1,4,-1
 261 477 l 1,5,-1
 261 978 l 1,6,-1
 353 978 l 1,7,-1
 353 477 l 1,4,-1
EndSplineSet
Validated: 1
EndChar

StartChar: section
Encoding: 167 167 129
Width: 734
GlyphClass: 1
Flags: W
LayerCount: 2
Fore
SplineSet
605 115 m 0,0,1
 605 16 605 16 528.5 -53.5 c 128,-1,2
 452 -123 452 -123 336 -123 c 0,3,4
 200 -123 200 -123 113 -52 c 0,5,6
 34 13 34 13 14 117 c 1,7,-1
 100 139 l 1,8,9
 141 -43 141 -43 336 -43 c 0,10,11
 431 -43 431 -43 476 13 c 0,12,13
 507 54 507 54 507 107 c 0,14,15
 507 207 507 207 387 263 c 1,16,17
 276 309 276 309 164 355 c 1,18,19
 44 421 44 421 44 544 c 0,20,21
 44 649 44 649 131 712 c 1,22,23
 44 775 44 775 44 881 c 0,24,25
 44 971 44 971 112 1033 c 0,26,27
 185 1100 185 1100 307 1100 c 0,28,29
 431 1100 431 1100 512 1030 c 0,30,31
 589 965 589 965 599 866 c 1,32,-1
 506 850 l 1,33,34
 483 1021 483 1021 307 1021 c 0,35,36
 231 1021 231 1021 182 978 c 0,37,38
 137 938 137 938 137 882 c 0,39,40
 137 799 137 799 258 747 c 0,41,42
 371 700 371 700 484 653 c 1,43,44
 605 581 605 581 605 451 c 0,45,46
 605 353 605 353 529 284 c 1,47,48
 605 219 605 219 605 115 c 0,0,1
507 444 m 0,49,50
 507 508 507 508 462 551 c 0,51,52
 427 585 427 585 353 615 c 0,53,54
 286 640 286 640 220 665 c 1,55,56
 137 626 137 626 137 546 c 256,57,58
 137 466 137 466 245 416 c 1,59,60
 351 374 351 374 456 332 c 1,61,62
 507 374 507 374 507 444 c 0,49,50
EndSplineSet
Validated: 1
EndChar

StartChar: dieresis
Encoding: 168 168 130
Width: 734
GlyphClass: 1
Flags: W
LayerCount: 2
Fore
SplineSet
489 733 m 1,0,-1
 367 733 l 1,1,-1
 367 855 l 1,2,-1
 489 855 l 1,3,-1
 489 733 l 1,0,-1
245 733 m 1,4,-1
 122 733 l 1,5,-1
 122 855 l 1,6,-1
 245 855 l 1,7,-1
 245 733 l 1,4,-1
EndSplineSet
Validated: 1
EndChar

StartChar: copyright
Encoding: 169 169 131
Width: 736
GlyphClass: 1
Flags: W
LayerCount: 2
Fore
SplineSet
736 610 m 256,0,1
 736 458 736 458 628.5 350.5 c 128,-1,2
 521 243 521 243 369 243 c 256,3,4
 217 243 217 243 109.5 350.5 c 128,-1,5
 2 458 2 458 2 610 c 256,6,7
 2 762 2 762 109.5 869.5 c 128,-1,8
 217 977 217 977 369 977 c 256,9,10
 521 977 521 977 628.5 869.5 c 128,-1,11
 736 762 736 762 736 610 c 256,0,1
693 610 m 256,12,13
 693 744 693 744 598 839 c 128,-1,14
 503 934 503 934 369 934 c 256,15,16
 235 934 235 934 140 839 c 128,-1,17
 45 744 45 744 45 610 c 256,18,19
 45 476 45 476 140 381 c 128,-1,20
 235 286 235 286 369 286 c 256,21,22
 503 286 503 286 598 381 c 128,-1,23
 693 476 693 476 693 610 c 256,12,13
568 471 m 1,24,25
 506 374 506 374 371 374 c 0,26,27
 260 374 260 374 194 446 c 0,28,29
 133 512 133 512 133 612 c 0,30,31
 133 711 133 711 194 777 c 0,32,33
 260 849 260 849 371 849 c 0,34,35
 506 849 506 849 568 752 c 1,36,-1
 498 706 l 1,37,38
 462 772 462 772 371 772 c 0,39,40
 300 772 300 772 261 721 c 0,41,42
 227 676 227 676 227 612 c 0,43,44
 227 547 227 547 261 502 c 0,45,46
 300 451 300 451 371 451 c 0,47,48
 462 451 462 451 498 517 c 1,49,-1
 568 471 l 1,24,25
EndSplineSet
Validated: 1
EndChar

StartChar: ordfeminine
Encoding: 170 170 132
Width: 732
GlyphClass: 1
Flags: W
LayerCount: 2
Fore
SplineSet
610 171 m 1,0,-1
 122 171 l 1,1,-1
 122 244 l 1,2,-1
 610 244 l 1,3,-1
 610 171 l 1,0,-1
586 365 m 1,4,-1
 513 365 l 1,5,-1
 513 567 l 1,6,7
 498 489 498 489 451 426 c 0,8,9
 395 352 395 352 325 352 c 0,10,11
 224 352 224 352 169 426 c 0,12,13
 121 492 121 492 121 597 c 1,14,-1
 121 597 l 1,15,16
 121 712 121 712 186 787 c 0,17,18
 255 866 255 866 369 866 c 0,19,20
 446 866 446 866 513 814 c 1,21,-1
 513 854 l 1,22,-1
 586 854 l 1,23,-1
 586 365 l 1,4,-1
513 740 m 1,24,25
 449 807 449 807 369 807 c 0,26,27
 284 807 284 807 236 742 c 0,28,29
 194 685 194 685 194 597 c 0,30,31
 194 524 194 524 222 477 c 0,32,33
 257 421 257 421 325 421 c 0,34,35
 407 421 407 421 464 524 c 0,36,37
 513 612 513 612 513 702 c 2,38,-1
 513 740 l 1,24,25
EndSplineSet
Validated: 5
EndChar

StartChar: guillemotleft
Encoding: 171 171 133
Width: 734
GlyphClass: 1
Flags: W
LayerCount: 2
Fore
SplineSet
518 265 m 1,0,-1
 467 213 l 1,1,-1
 253 428 l 1,2,-1
 467 644 l 1,3,-1
 518 592 l 1,4,-1
 356 428 l 1,5,-1
 518 265 l 1,0,-1
274 265 m 1,6,-1
 222 213 l 1,7,-1
 9 428 l 1,8,-1
 222 644 l 1,9,-1
 274 592 l 1,10,-1
 111 428 l 1,11,-1
 274 265 l 1,6,-1
EndSplineSet
Validated: 1
EndChar

StartChar: logicalnot
Encoding: 172 172 134
Width: 732
GlyphClass: 1
Flags: W
LayerCount: 2
Fore
SplineSet
610 123 m 1,0,-1
 538 123 l 1,1,-1
 538 417 l 1,2,-1
 0 417 l 1,3,-1
 0 490 l 1,4,-1
 610 490 l 1,5,-1
 610 123 l 1,0,-1
EndSplineSet
Validated: 1
EndChar

StartChar: minus
Encoding: 173 173 135
Width: 734
GlyphClass: 1
Flags: W
LayerCount: 2
Fore
SplineSet
489 392 m 1,0,-1
 122 392 l 1,1,-1
 122 465 l 1,2,-1
 489 465 l 1,3,-1
 489 392 l 1,0,-1
EndSplineSet
Validated: 1
EndChar

StartChar: registered
Encoding: 174 174 136
Width: 736
GlyphClass: 1
Flags: W
LayerCount: 2
Fore
SplineSet
736 610 m 256,0,1
 736 458 736 458 628.5 350.5 c 128,-1,2
 521 243 521 243 369 243 c 256,3,4
 217 243 217 243 109.5 350.5 c 128,-1,5
 2 458 2 458 2 610 c 256,6,7
 2 762 2 762 109.5 869.5 c 128,-1,8
 217 977 217 977 369 977 c 256,9,10
 521 977 521 977 628.5 869.5 c 128,-1,11
 736 762 736 762 736 610 c 256,0,1
693 610 m 256,12,13
 693 744 693 744 598 839 c 128,-1,14
 503 934 503 934 369 934 c 256,15,16
 235 934 235 934 140 839 c 128,-1,17
 45 744 45 744 45 610 c 256,18,19
 45 476 45 476 140 381 c 128,-1,20
 235 286 235 286 369 286 c 256,21,22
 503 286 503 286 598 381 c 128,-1,23
 693 476 693 476 693 610 c 256,12,13
570 390 m 1,24,-1
 447 390 l 1,25,-1
 333 549 l 1,26,-1
 311 549 l 1,27,-1
 311 390 l 1,28,-1
 217 390 l 1,29,-1
 217 833 l 1,30,-1
 392 833 l 2,31,32
 456 833 456 833 504 802 c 0,33,34
 562 763 562 763 562 691 c 0,35,36
 562 632 562 632 521 592 c 0,37,38
 484 557 484 557 436 552 c 1,39,-1
 570 390 l 1,24,-1
469 691 m 256,40,41
 469 738 469 738 428 753 c 0,42,43
 405 762 405 762 346 762 c 2,44,-1
 311 762 l 1,45,-1
 311 621 l 1,46,-1
 346 621 l 2,47,48
 405 621 405 621 428 630 c 0,49,50
 469 644 469 644 469 691 c 256,40,41
EndSplineSet
Validated: 1
EndChar

StartChar: macron
Encoding: 175 175 137
Width: 734
GlyphClass: 1
Flags: W
LayerCount: 2
Fore
SplineSet
489 782 m 1,0,-1
 122 782 l 1,1,-1
 122 856 l 1,2,-1
 489 856 l 1,3,-1
 489 782 l 1,0,-1
EndSplineSet
Validated: 1
EndChar

StartChar: degree
Encoding: 176 176 138
Width: 734
GlyphClass: 1
Flags: W
LayerCount: 2
Fore
SplineSet
611 734 m 0,0,1
 611 632 611 632 539.5 560.5 c 128,-1,2
 468 489 468 489 367 489 c 256,3,4
 266 489 266 489 194 560.5 c 128,-1,5
 122 632 122 632 122 734 c 0,6,7
 122 835 122 835 194 906.5 c 128,-1,8
 266 978 266 978 367 978 c 256,9,10
 468 978 468 978 539.5 906.5 c 128,-1,11
 611 835 611 835 611 734 c 0,0,1
551 734 m 256,12,13
 551 810 551 810 497 864 c 128,-1,14
 443 918 443 918 367 918 c 256,15,16
 291 918 291 918 237 864 c 128,-1,17
 183 810 183 810 183 734 c 256,18,19
 183 658 183 658 237 604 c 128,-1,20
 291 550 291 550 367 550 c 256,21,22
 443 550 443 550 497 604 c 128,-1,23
 551 658 551 658 551 734 c 256,12,13
EndSplineSet
Validated: 1
EndChar

StartChar: plusminus
Encoding: 177 177 139
Width: 734
GlyphClass: 1
Flags: W
LayerCount: 2
Fore
SplineSet
611 392 m 1,0,-1
 342 392 l 1,1,-1
 342 122 l 1,2,-1
 269 122 l 1,3,-1
 269 392 l 1,4,-1
 0 392 l 1,5,-1
 0 464 l 1,6,-1
 269 464 l 1,7,-1
 269 734 l 1,8,-1
 342 734 l 1,9,-1
 342 464 l 1,10,-1
 611 464 l 1,11,-1
 611 392 l 1,0,-1
611 0 m 1,12,-1
 0 0 l 1,13,-1
 0 73 l 1,14,-1
 611 73 l 1,15,-1
 611 0 l 1,12,-1
EndSplineSet
Validated: 1
EndChar

StartChar: twosuperior
Encoding: 178 178 140
Width: 734
GlyphClass: 1
Flags: W
LayerCount: 2
Fore
SplineSet
246 771 m 0,0,1
 246 741 246 741 228 716 c 0,2,3
 219 703 219 703 187 674 c 0,4,5
 163 650 163 650 112 603 c 1,6,-1
 192 603 l 1,7,-1
 192 642 l 1,8,-1
 245 642 l 1,9,-1
 245 554 l 1,10,-1
 27 554 l 1,11,-1
 27 596 l 1,12,13
 73 639 73 639 162 724 c 0,14,15
 188 750 188 750 188 772 c 0,16,17
 188 789 188 789 172.5 800 c 128,-1,18
 157 811 157 811 136 811 c 0,19,20
 75 811 75 811 75 736 c 1,21,-1
 20 736 l 1,22,23
 20 859 20 859 136 859 c 0,24,25
 179 859 179 859 210 837 c 0,26,27
 246 813 246 813 246 771 c 0,0,1
EndSplineSet
Validated: 1
EndChar

StartChar: threesuperior
Encoding: 179 179 141
Width: 734
GlyphClass: 1
Flags: W
LayerCount: 2
Fore
SplineSet
246 642 m 0,0,1
 246 605 246 605 215 577 c 128,-1,2
 184 549 184 549 136 549 c 0,3,4
 26 549 26 549 14 656 c 1,5,-1
 70 664 l 1,6,7
 77 598 77 598 136 598 c 0,8,9
 158 598 158 598 173 611.5 c 128,-1,10
 188 625 188 625 188 642 c 0,11,12
 188 670 188 670 171 678 c 0,13,14
 160 683 160 683 126 683 c 1,15,-1
 126 736 l 1,16,17
 183 736 183 736 183 772 c 0,18,19
 183 810 183 810 136 810 c 0,20,21
 75 810 75 810 75 744 c 1,22,-1
 20 744 l 1,23,24
 20 802 20 802 54 832 c 0,25,26
 85 859 85 859 136 859 c 0,27,28
 184 859 184 859 212 834 c 128,-1,29
 240 809 240 809 240 771 c 0,30,31
 240 732 240 732 206 712 c 1,32,33
 246 685 246 685 246 642 c 0,0,1
EndSplineSet
Validated: 1
EndChar

StartChar: acute
Encoding: 180 180 142
Width: 734
GlyphClass: 1
Flags: W
LayerCount: 2
Fore
SplineSet
466 905 m 1,0,-1
 183 745 l 1,1,-1
 158 788 l 1,2,-1
 423 976 l 1,3,-1
 466 905 l 1,0,-1
EndSplineSet
Validated: 1
EndChar

StartChar: mu
Encoding: 181 181 143
Width: 733
GlyphClass: 1
Flags: W
LayerCount: 2
Fore
SplineSet
582 0 m 1,0,-1
 491 0 l 1,1,-1
 491 154 l 1,2,3
 427 -15 427 -15 256 -15 c 0,4,5
 176 -15 176 -15 123 21 c 1,6,-1
 123 -244 l 1,7,-1
 31 -244 l 1,8,-1
 31 612 l 1,9,-1
 123 612 l 1,10,-1
 123 235 l 2,11,12
 123 72 123 72 256 72 c 0,13,14
 363 72 363 72 429 152 c 0,15,16
 491 227 491 227 491 338 c 2,17,-1
 491 612 l 1,18,-1
 582 612 l 1,19,-1
 582 0 l 1,0,-1
EndSplineSet
Validated: 1
EndChar

StartChar: paragraph
Encoding: 182 182 144
Width: 734
GlyphClass: 1
Flags: W
LayerCount: 2
Fore
SplineSet
597 0 m 1,0,-1
 506 0 l 1,1,-1
 506 366 l 1,2,-1
 353 366 l 1,3,-1
 353 0 l 1,4,-1
 262 0 l 1,5,-1
 262 371 l 1,6,7
 20 398 20 398 20 611 c 0,8,9
 20 855 20 855 348 855 c 2,10,-1
 597 855 l 1,11,-1
 597 0 l 1,0,-1
506 446 m 1,12,-1
 506 776 l 1,13,-1
 353 776 l 1,14,-1
 353 446 l 1,15,-1
 506 446 l 1,12,-1
262 453 m 1,16,-1
 262 769 l 1,17,18
 112 744 112 744 112 611 c 256,19,20
 112 478 112 478 262 453 c 1,16,-1
EndSplineSet
Validated: 1
EndChar

StartChar: periodcentered
Encoding: 183 183 145
AltUni2: 002219.ffffffff.0
Width: 734
GlyphClass: 1
Flags: W
LayerCount: 2
Fore
SplineSet
365 235 m 1,0,-1
 245 235 l 1,1,-1
 245 354 l 1,2,-1
 365 354 l 1,3,-1
 365 235 l 1,0,-1
EndSplineSet
Validated: 1
EndChar

StartChar: cedilla
Encoding: 184 184 146
Width: 734
GlyphClass: 1
Flags: W
LayerCount: 2
Fore
SplineSet
367 -28 m 2,0,1
 367 -124 367 -124 313 -182 c 0,2,3
 257 -244 257 -244 159 -244 c 1,4,-1
 159 -168 l 1,5,6
 291 -168 291 -168 291 -28 c 2,7,-1
 291 0 l 1,8,-1
 367 0 l 1,9,-1
 367 -28 l 2,0,1
EndSplineSet
Validated: 1
EndChar

StartChar: onesuperior
Encoding: 185 185 147
Width: 734
GlyphClass: 1
Flags: W
LayerCount: 2
Fore
SplineSet
208 557 m 1,0,-1
 54 557 l 1,1,-1
 54 605 l 1,2,-1
 102 605 l 1,3,-1
 102 761 l 1,4,5
 88 754 88 754 54 754 c 1,6,-1
 54 807 l 1,7,8
 82 807 82 807 92 817.5 c 128,-1,9
 102 828 102 828 102 856 c 1,10,-1
 160 856 l 1,11,-1
 160 605 l 1,12,-1
 208 605 l 1,13,-1
 208 557 l 1,0,-1
EndSplineSet
Validated: 1
EndChar

StartChar: ordmasculine
Encoding: 186 186 148
Width: 732
GlyphClass: 1
Flags: W
LayerCount: 2
Fore
SplineSet
628 610 m 0,0,1
 628 503 628 503 562 431 c 0,2,3
 491 353 491 353 371 353 c 0,4,5
 250 353 250 353 179 431 c 0,6,7
 113 503 113 503 113 610 c 0,8,9
 113 718 113 718 179 790 c 0,10,11
 250 868 250 868 371 868 c 0,12,13
 491 868 491 868 562 790 c 0,14,15
 628 718 628 718 628 610 c 0,0,1
610 173 m 1,16,-1
 122 173 l 1,17,-1
 122 245 l 1,18,-1
 610 245 l 1,19,-1
 610 173 l 1,16,-1
555 610 m 0,20,21
 555 691 555 691 511 746 c 0,22,23
 461 809 461 809 371 809 c 256,24,25
 281 809 281 809 230 746 c 0,26,27
 186 691 186 691 186 610 c 0,28,29
 186 530 186 530 230 475 c 0,30,31
 281 412 281 412 371 412 c 256,32,33
 461 412 461 412 511 475 c 0,34,35
 555 530 555 530 555 610 c 0,20,21
EndSplineSet
Validated: 1
EndChar

StartChar: guillemotright
Encoding: 187 187 149
Width: 734
GlyphClass: 1
Flags: W
LayerCount: 2
Fore
SplineSet
603 428 m 1,0,-1
 389 213 l 1,1,-1
 338 264 l 1,2,-1
 500 428 l 1,3,-1
 338 591 l 1,4,-1
 389 643 l 1,5,-1
 603 428 l 1,0,-1
358 428 m 1,6,-1
 145 213 l 1,7,-1
 93 264 l 1,8,-1
 256 428 l 1,9,-1
 93 591 l 1,10,-1
 145 643 l 1,11,-1
 358 428 l 1,6,-1
EndSplineSet
Validated: 1
EndChar

StartChar: onequarter
Encoding: 188 188 150
Width: 734
GlyphClass: 1
Flags: W
LayerCount: 2
Fore
SplineSet
208 557 m 1,0,-1
 54 557 l 1,1,-1
 54 605 l 1,2,-1
 102 605 l 1,3,-1
 102 761 l 1,4,5
 88 754 88 754 54 754 c 1,6,-1
 54 807 l 1,7,8
 82 807 82 807 92 817.5 c 128,-1,9
 102 828 102 828 102 856 c 1,10,-1
 160 856 l 1,11,-1
 160 605 l 1,12,-1
 208 605 l 1,13,-1
 208 557 l 1,0,-1
612 835 m 1,14,-1
 63 -19 l 1,15,-1
 2 21 l 1,16,-1
 551 876 l 1,17,-1
 612 835 l 1,14,-1
617 0 m 1,18,-1
 464 0 l 1,19,-1
 464 49 l 1,20,-1
 512 49 l 1,21,-1
 512 81 l 1,22,-1
 379 81 l 1,23,-1
 379 121 l 1,24,-1
 509 300 l 1,25,-1
 569 300 l 1,26,-1
 569 129 l 1,27,-1
 617 129 l 1,28,-1
 617 81 l 1,29,-1
 569 81 l 1,30,-1
 569 49 l 1,31,-1
 617 49 l 1,32,-1
 617 0 l 1,18,-1
512 129 m 1,33,-1
 512 215 l 1,34,-1
 449 129 l 1,35,-1
 512 129 l 1,33,-1
EndSplineSet
Validated: 1
EndChar

StartChar: onehalf
Encoding: 189 189 151
Width: 734
GlyphClass: 1
Flags: W
LayerCount: 2
Fore
SplineSet
208 557 m 1,0,-1
 54 557 l 1,1,-1
 54 605 l 1,2,-1
 102 605 l 1,3,-1
 102 761 l 1,4,5
 88 754 88 754 54 754 c 1,6,-1
 54 807 l 1,7,8
 82 807 82 807 92 817.5 c 128,-1,9
 102 828 102 828 102 856 c 1,10,-1
 160 856 l 1,11,-1
 160 605 l 1,12,-1
 208 605 l 1,13,-1
 208 557 l 1,0,-1
612 835 m 1,14,-1
 63 -19 l 1,15,-1
 2 21 l 1,16,-1
 551 876 l 1,17,-1
 612 835 l 1,14,-1
618 217 m 0,18,19
 618 187 618 187 601 162 c 0,20,21
 592 149 592 149 560 120 c 0,22,23
 535 96 535 96 485 49 c 1,24,-1
 565 49 l 1,25,-1
 565 88 l 1,26,-1
 617 88 l 1,27,-1
 617 0 l 1,28,-1
 400 0 l 1,29,-1
 400 42 l 1,30,31
 446 85 446 85 535 170 c 0,32,33
 561 196 561 196 561 217 c 0,34,35
 561 234 561 234 545.5 245 c 128,-1,36
 530 256 530 256 508 256 c 0,37,38
 448 256 448 256 448 182 c 1,39,-1
 393 182 l 1,40,41
 393 305 393 305 508 305 c 0,42,43
 552 305 552 305 583 283 c 0,44,45
 618 258 618 258 618 217 c 0,18,19
EndSplineSet
Validated: 1
EndChar

StartChar: threequarters
Encoding: 190 190 152
Width: 734
GlyphClass: 1
Flags: W
LayerCount: 2
Fore
SplineSet
246 642 m 0,0,1
 246 605 246 605 215 577 c 128,-1,2
 184 549 184 549 136 549 c 0,3,4
 26 549 26 549 14 656 c 1,5,-1
 70 664 l 1,6,7
 77 598 77 598 136 598 c 0,8,9
 158 598 158 598 173 611.5 c 128,-1,10
 188 625 188 625 188 642 c 0,11,12
 188 670 188 670 171 678 c 0,13,14
 160 683 160 683 126 683 c 1,15,-1
 126 736 l 1,16,17
 183 736 183 736 183 772 c 0,18,19
 183 810 183 810 136 810 c 0,20,21
 75 810 75 810 75 744 c 1,22,-1
 20 744 l 1,23,24
 20 802 20 802 54 832 c 0,25,26
 85 859 85 859 136 859 c 0,27,28
 184 859 184 859 212 834 c 128,-1,29
 240 809 240 809 240 771 c 0,30,31
 240 732 240 732 206 712 c 1,32,33
 246 685 246 685 246 642 c 0,0,1
612 835 m 1,34,-1
 63 -19 l 1,35,-1
 2 21 l 1,36,-1
 551 876 l 1,37,-1
 612 835 l 1,34,-1
617 0 m 1,38,-1
 464 0 l 1,39,-1
 464 49 l 1,40,-1
 512 49 l 1,41,-1
 512 81 l 1,42,-1
 379 81 l 1,43,-1
 379 121 l 1,44,-1
 509 300 l 1,45,-1
 569 300 l 1,46,-1
 569 129 l 1,47,-1
 617 129 l 1,48,-1
 617 81 l 1,49,-1
 569 81 l 1,50,-1
 569 49 l 1,51,-1
 617 49 l 1,52,-1
 617 0 l 1,38,-1
512 129 m 1,53,-1
 512 215 l 1,54,-1
 449 129 l 1,55,-1
 512 129 l 1,53,-1
EndSplineSet
Validated: 1
EndChar

StartChar: questiondown
Encoding: 191 191 153
Width: 732
GlyphClass: 1
Flags: W
LayerCount: 2
Fore
SplineSet
488 735 m 1,0,-1
 368 735 l 1,1,-1
 368 854 l 1,2,-1
 488 854 l 1,3,-1
 488 735 l 1,0,-1
622 222 m 1,4,5
 608 97 608 97 534 36 c 0,6,7
 471 -15 471 -15 375 -15 c 0,8,9
 263 -15 263 -15 199.5 42.5 c 128,-1,10
 136 100 136 100 136 197 c 0,11,12
 136 280 136 280 202 352 c 1,13,14
 263 409 263 409 325 467 c 1,15,16
 391 537 391 537 391 615 c 1,17,-1
 487 615 l 1,18,19
 487 526 487 526 420 446 c 1,20,21
 358 384 358 384 296 323 c 0,22,23
 229 255 229 255 229 195 c 0,24,25
 229 64 229 64 375 64 c 0,26,27
 440 64 440 64 483 105 c 0,28,29
 532 153 532 153 536 244 c 1,30,-1
 622 222 l 1,4,5
EndSplineSet
Validated: 1
EndChar

StartChar: Agrave
Encoding: 192 192 154
Width: 734
GlyphClass: 1
Flags: W
LayerCount: 2
Fore
SplineSet
653 0 m 1,0,-1
 556 0 l 1,1,-1
 476 245 l 1,2,-1
 137 245 l 1,3,-1
 58 0 l 1,4,-1
 -40 0 l 1,5,-1
 246 855 l 1,6,-1
 368 855 l 1,7,-1
 653 0 l 1,0,-1
450 324 m 1,8,-1
 307 764 l 1,9,-1
 163 324 l 1,10,-1
 450 324 l 1,8,-1
454 912 m 1,11,-1
 428 868 l 1,12,-1
 145 1029 l 1,13,-1
 188 1099 l 1,14,-1
 454 912 l 1,11,-1
EndSplineSet
Validated: 1
EndChar

StartChar: Aacute
Encoding: 193 193 155
Width: 734
GlyphClass: 1
Flags: W
LayerCount: 2
Fore
SplineSet
653 0 m 1,0,-1
 556 0 l 1,1,-1
 476 245 l 1,2,-1
 137 245 l 1,3,-1
 58 0 l 1,4,-1
 -40 0 l 1,5,-1
 246 855 l 1,6,-1
 368 855 l 1,7,-1
 653 0 l 1,0,-1
450 324 m 1,8,-1
 307 764 l 1,9,-1
 163 324 l 1,10,-1
 450 324 l 1,8,-1
466 1028 m 1,11,-1
 183 867 l 1,12,-1
 158 911 l 1,13,-1
 423 1098 l 1,14,-1
 466 1028 l 1,11,-1
EndSplineSet
Validated: 1
EndChar

StartChar: Acircumflex
Encoding: 194 194 156
Width: 734
GlyphClass: 1
Flags: W
LayerCount: 2
Fore
SplineSet
653 0 m 1,0,-1
 556 0 l 1,1,-1
 476 245 l 1,2,-1
 137 245 l 1,3,-1
 58 0 l 1,4,-1
 -40 0 l 1,5,-1
 246 855 l 1,6,-1
 368 855 l 1,7,-1
 653 0 l 1,0,-1
450 324 m 1,8,-1
 307 764 l 1,9,-1
 163 324 l 1,10,-1
 450 324 l 1,8,-1
501 909 m 1,11,-1
 467 866 l 1,12,-1
 308 999 l 1,13,-1
 146 864 l 1,14,-1
 112 908 l 1,15,-1
 307 1097 l 1,16,-1
 501 909 l 1,11,-1
EndSplineSet
Validated: 1
EndChar

StartChar: Atilde
Encoding: 195 195 157
Width: 734
GlyphClass: 1
Flags: W
LayerCount: 2
Fore
SplineSet
653 0 m 1,0,-1
 556 0 l 1,1,-1
 476 245 l 1,2,-1
 137 245 l 1,3,-1
 58 0 l 1,4,-1
 -40 0 l 1,5,-1
 246 855 l 1,6,-1
 368 855 l 1,7,-1
 653 0 l 1,0,-1
450 324 m 1,8,-1
 307 764 l 1,9,-1
 163 324 l 1,10,-1
 450 324 l 1,8,-1
555 1015 m 1,11,12
 495 912 495 912 394 912 c 0,13,14
 331 912 331 912 282 958 c 0,15,16
 251 988 251 988 212 988 c 0,17,18
 146 988 146 988 104 916 c 1,19,-1
 51 947 l 1,20,21
 111 1049 111 1049 212 1049 c 0,22,23
 275 1049 275 1049 324 1003 c 0,24,25
 356 974 356 974 394 974 c 0,26,27
 460 974 460 974 503 1046 c 1,28,-1
 555 1015 l 1,11,12
EndSplineSet
Validated: 1
EndChar

StartChar: Adieresis
Encoding: 196 196 158
Width: 734
GlyphClass: 1
Flags: W
LayerCount: 2
Fore
SplineSet
653 0 m 1,0,-1
 556 0 l 1,1,-1
 476 245 l 1,2,-1
 137 245 l 1,3,-1
 58 0 l 1,4,-1
 -40 0 l 1,5,-1
 246 855 l 1,6,-1
 368 855 l 1,7,-1
 653 0 l 1,0,-1
450 324 m 1,8,-1
 307 764 l 1,9,-1
 163 324 l 1,10,-1
 450 324 l 1,8,-1
489 977 m 1,11,-1
 367 977 l 1,12,-1
 367 1100 l 1,13,-1
 489 1100 l 1,14,-1
 489 977 l 1,11,-1
245 977 m 1,15,-1
 122 977 l 1,16,-1
 122 1100 l 1,17,-1
 245 1100 l 1,18,-1
 245 977 l 1,15,-1
EndSplineSet
Validated: 1
EndChar

StartChar: Aring
Encoding: 197 197 159
Width: 734
GlyphClass: 1
Flags: W
LayerCount: 2
Fore
SplineSet
653 0 m 1,0,-1
 556 0 l 1,1,-1
 476 245 l 1,2,-1
 137 245 l 1,3,-1
 58 0 l 1,4,-1
 -40 0 l 1,5,-1
 234 819 l 1,6,7
 158 861 158 861 158 948 c 0,8,9
 158 1009 158 1009 201.5 1052.5 c 128,-1,10
 245 1096 245 1096 306 1096 c 0,11,12
 368 1096 368 1096 411 1052.5 c 128,-1,13
 454 1009 454 1009 454 948 c 0,14,15
 454 862 454 862 380 819 c 1,16,-1
 653 0 l 1,0,-1
395 948 m 256,17,18
 395 985 395 985 369 1011 c 128,-1,19
 343 1037 343 1037 306 1037 c 256,20,21
 269 1037 269 1037 243 1011 c 128,-1,22
 217 985 217 985 217 948 c 256,23,24
 217 911 217 911 243 885 c 128,-1,25
 269 859 269 859 306 859 c 256,26,27
 343 859 343 859 369 885 c 128,-1,28
 395 911 395 911 395 948 c 256,17,18
450 324 m 1,29,-1
 307 764 l 1,30,-1
 163 324 l 1,31,-1
 450 324 l 1,29,-1
EndSplineSet
Validated: 1
EndChar

StartChar: AE
Encoding: 198 198 160
Width: 734
GlyphClass: 1
Flags: W
LayerCount: 2
Fore
SplineSet
612 0 m 1,0,-1
 279 0 l 1,1,-1
 279 245 l 1,2,-1
 127 245 l 1,3,-1
 54 0 l 1,4,-1
 -43 0 l 1,5,-1
 218 856 l 1,6,-1
 612 856 l 1,7,-1
 612 777 l 1,8,-1
 371 777 l 1,9,-1
 371 477 l 1,10,-1
 553 477 l 1,11,-1
 553 398 l 1,12,-1
 371 398 l 1,13,-1
 371 80 l 1,14,-1
 612 80 l 1,15,-1
 612 0 l 1,0,-1
279 324 m 1,16,-1
 279 757 l 1,17,-1
 151 324 l 1,18,-1
 279 324 l 1,16,-1
EndSplineSet
Validated: 1
EndChar

StartChar: Ccedilla
Encoding: 199 199 161
Width: 734
GlyphClass: 1
Flags: W
LayerCount: 2
Fore
SplineSet
617 226 m 1,0,1
 553 18 553 18 367 -11 c 1,2,-1
 367 -29 l 2,3,4
 367 -124 367 -124 312 -184 c 128,-1,5
 257 -244 257 -244 159 -244 c 1,6,-1
 159 -168 l 1,7,8
 291 -168 291 -168 291 -29 c 2,9,-1
 291 -13 l 1,10,11
 155 -3 155 -3 75 105 c 0,12,13
 -12 222 -12 222 -12 429 c 0,14,15
 -12 646 -12 646 83 763 c 0,16,17
 170 872 170 872 316 872 c 0,18,19
 474 872 474 872 530 757 c 1,20,-1
 530 857 l 1,21,-1
 610 857 l 1,22,-1
 610 575 l 1,23,-1
 530 575 l 1,24,25
 530 674 530 674 463 736 c 0,26,27
 402 792 402 792 316 792 c 0,28,29
 203 792 203 792 141 696 c 128,-1,30
 79 600 79 600 79 429 c 256,31,32
 79 258 79 258 141 161.5 c 128,-1,33
 203 65 203 65 316 65 c 0,34,35
 479 65 479 65 532 259 c 1,36,-1
 617 226 l 1,0,1
EndSplineSet
Validated: 1
EndChar

StartChar: Egrave
Encoding: 200 200 162
Width: 734
GlyphClass: 1
Flags: W
LayerCount: 2
Fore
SplineSet
580 0 m 1,0,-1
 30 0 l 1,1,-1
 30 856 l 1,2,-1
 580 856 l 1,3,-1
 580 777 l 1,4,-1
 121 777 l 1,5,-1
 121 477 l 1,6,-1
 459 477 l 1,7,-1
 459 397 l 1,8,-1
 121 397 l 1,9,-1
 121 80 l 1,10,-1
 580 80 l 1,11,-1
 580 0 l 1,0,-1
454 911 m 1,12,-1
 428 868 l 1,13,-1
 145 1028 l 1,14,-1
 188 1099 l 1,15,-1
 454 911 l 1,12,-1
EndSplineSet
Validated: 1
EndChar

StartChar: Eacute
Encoding: 201 201 163
Width: 734
GlyphClass: 1
Flags: W
LayerCount: 2
Fore
SplineSet
580 0 m 1,0,-1
 30 0 l 1,1,-1
 30 856 l 1,2,-1
 580 856 l 1,3,-1
 580 777 l 1,4,-1
 121 777 l 1,5,-1
 121 477 l 1,6,-1
 459 477 l 1,7,-1
 459 397 l 1,8,-1
 121 397 l 1,9,-1
 121 80 l 1,10,-1
 580 80 l 1,11,-1
 580 0 l 1,0,-1
466 1028 m 1,12,-1
 183 867 l 1,13,-1
 158 911 l 1,14,-1
 423 1098 l 1,15,-1
 466 1028 l 1,12,-1
EndSplineSet
Validated: 1
EndChar

StartChar: Ecircumflex
Encoding: 202 202 164
Width: 734
GlyphClass: 1
Flags: W
LayerCount: 2
Fore
SplineSet
580 0 m 1,0,-1
 30 0 l 1,1,-1
 30 856 l 1,2,-1
 580 856 l 1,3,-1
 580 777 l 1,4,-1
 121 777 l 1,5,-1
 121 477 l 1,6,-1
 459 477 l 1,7,-1
 459 397 l 1,8,-1
 121 397 l 1,9,-1
 121 80 l 1,10,-1
 580 80 l 1,11,-1
 580 0 l 1,0,-1
501 909 m 1,12,-1
 467 866 l 1,13,-1
 308 999 l 1,14,-1
 146 864 l 1,15,-1
 112 908 l 1,16,-1
 307 1097 l 1,17,-1
 501 909 l 1,12,-1
EndSplineSet
Validated: 1
EndChar

StartChar: Edieresis
Encoding: 203 203 165
Width: 734
GlyphClass: 1
Flags: W
LayerCount: 2
Fore
SplineSet
580 0 m 1,0,-1
 30 0 l 1,1,-1
 30 856 l 1,2,-1
 580 856 l 1,3,-1
 580 777 l 1,4,-1
 121 777 l 1,5,-1
 121 477 l 1,6,-1
 459 477 l 1,7,-1
 459 397 l 1,8,-1
 121 397 l 1,9,-1
 121 80 l 1,10,-1
 580 80 l 1,11,-1
 580 0 l 1,0,-1
489 977 m 1,12,-1
 367 977 l 1,13,-1
 367 1100 l 1,14,-1
 489 1100 l 1,15,-1
 489 977 l 1,12,-1
245 977 m 1,16,-1
 122 977 l 1,17,-1
 122 1100 l 1,18,-1
 245 1100 l 1,19,-1
 245 977 l 1,16,-1
EndSplineSet
Validated: 1
EndChar

StartChar: Igrave
Encoding: 204 204 166
Width: 734
GlyphClass: 1
Flags: W
LayerCount: 2
Fore
SplineSet
489 0 m 1,0,-1
 122 0 l 1,1,-1
 122 80 l 1,2,-1
 260 80 l 1,3,-1
 260 777 l 1,4,-1
 122 777 l 1,5,-1
 122 856 l 1,6,-1
 489 856 l 1,7,-1
 489 777 l 1,8,-1
 351 777 l 1,9,-1
 351 80 l 1,10,-1
 489 80 l 1,11,-1
 489 0 l 1,0,-1
454 911 m 1,12,-1
 428 868 l 1,13,-1
 145 1028 l 1,14,-1
 188 1099 l 1,15,-1
 454 911 l 1,12,-1
EndSplineSet
Validated: 1
EndChar

StartChar: Iacute
Encoding: 205 205 167
Width: 734
GlyphClass: 1
Flags: W
LayerCount: 2
Fore
SplineSet
489 0 m 1,0,-1
 122 0 l 1,1,-1
 122 80 l 1,2,-1
 260 80 l 1,3,-1
 260 777 l 1,4,-1
 122 777 l 1,5,-1
 122 856 l 1,6,-1
 489 856 l 1,7,-1
 489 777 l 1,8,-1
 351 777 l 1,9,-1
 351 80 l 1,10,-1
 489 80 l 1,11,-1
 489 0 l 1,0,-1
466 1028 m 1,12,-1
 183 867 l 1,13,-1
 158 911 l 1,14,-1
 423 1098 l 1,15,-1
 466 1028 l 1,12,-1
EndSplineSet
Validated: 1
EndChar

StartChar: Icircumflex
Encoding: 206 206 168
Width: 734
GlyphClass: 1
Flags: W
LayerCount: 2
Fore
SplineSet
489 0 m 1,0,-1
 122 0 l 1,1,-1
 122 80 l 1,2,-1
 260 80 l 1,3,-1
 260 777 l 1,4,-1
 122 777 l 1,5,-1
 122 856 l 1,6,-1
 489 856 l 1,7,-1
 489 777 l 1,8,-1
 351 777 l 1,9,-1
 351 80 l 1,10,-1
 489 80 l 1,11,-1
 489 0 l 1,0,-1
501 909 m 1,12,-1
 467 866 l 1,13,-1
 308 999 l 1,14,-1
 146 864 l 1,15,-1
 112 908 l 1,16,-1
 307 1097 l 1,17,-1
 501 909 l 1,12,-1
EndSplineSet
Validated: 1
EndChar

StartChar: Idieresis
Encoding: 207 207 169
Width: 734
GlyphClass: 1
Flags: W
LayerCount: 2
Fore
SplineSet
489 0 m 1,0,-1
 122 0 l 1,1,-1
 122 80 l 1,2,-1
 260 80 l 1,3,-1
 260 777 l 1,4,-1
 122 777 l 1,5,-1
 122 856 l 1,6,-1
 489 856 l 1,7,-1
 489 777 l 1,8,-1
 351 777 l 1,9,-1
 351 80 l 1,10,-1
 489 80 l 1,11,-1
 489 0 l 1,0,-1
489 977 m 1,12,-1
 367 977 l 1,13,-1
 367 1100 l 1,14,-1
 489 1100 l 1,15,-1
 489 977 l 1,12,-1
245 977 m 1,16,-1
 122 977 l 1,17,-1
 122 1100 l 1,18,-1
 245 1100 l 1,19,-1
 245 977 l 1,16,-1
EndSplineSet
Validated: 1
EndChar

StartChar: Eth
Encoding: 208 208 170
Width: 734
GlyphClass: 1
Flags: W
LayerCount: 2
Fore
SplineSet
640 428 m 256,0,1
 640 214 640 214 542 101 c 0,2,3
 454 0 454 0 311 0 c 2,4,-1
 32 0 l 1,5,-1
 32 392 l 1,6,-1
 -78 392 l 1,7,-1
 -78 465 l 1,8,-1
 32 465 l 1,9,-1
 32 856 l 1,10,-1
 311 856 l 2,11,12
 454 856 454 856 542 755 c 0,13,14
 640 642 640 642 640 428 c 256,0,1
548 428 m 256,15,16
 548 595 548 595 485 686 c 128,-1,17
 422 777 422 777 311 777 c 2,18,-1
 123 777 l 1,19,-1
 123 465 l 1,20,-1
 289 465 l 1,21,-1
 289 392 l 1,22,-1
 123 392 l 1,23,-1
 123 80 l 1,24,-1
 311 80 l 2,25,26
 422 80 422 80 485 170.5 c 128,-1,27
 548 261 548 261 548 428 c 256,15,16
EndSplineSet
Validated: 1
EndChar

StartChar: Ntilde
Encoding: 209 209 171
Width: 734
GlyphClass: 1
Flags: W
LayerCount: 2
Fore
SplineSet
580 0 m 1,0,-1
 467 0 l 1,1,-1
 121 724 l 1,2,-1
 121 0 l 1,3,-1
 30 0 l 1,4,-1
 30 856 l 1,5,-1
 158 856 l 1,6,-1
 488 165 l 1,7,-1
 488 856 l 1,8,-1
 580 856 l 1,9,-1
 580 0 l 1,0,-1
555 1015 m 1,10,11
 495 912 495 912 394 912 c 0,12,13
 331 912 331 912 282 958 c 0,14,15
 251 988 251 988 212 988 c 0,16,17
 146 988 146 988 104 916 c 1,18,-1
 51 947 l 1,19,20
 111 1049 111 1049 212 1049 c 0,21,22
 275 1049 275 1049 324 1003 c 0,23,24
 356 974 356 974 394 974 c 0,25,26
 460 974 460 974 503 1046 c 1,27,-1
 555 1015 l 1,10,11
EndSplineSet
Validated: 1
EndChar

StartChar: Ograve
Encoding: 210 210 172
Width: 734
GlyphClass: 1
Flags: W
LayerCount: 2
Fore
SplineSet
635 428 m 256,0,1
 635 211 635 211 540 93 c 0,2,3
 452 -15 452 -15 306 -15 c 256,4,5
 160 -15 160 -15 73 93 c 0,6,7
 -23 211 -23 211 -23 428 c 256,8,9
 -23 645 -23 645 73 763 c 0,10,11
 160 871 160 871 306 871 c 256,12,13
 452 871 452 871 540 763 c 0,14,15
 635 645 635 645 635 428 c 256,0,1
543 428 m 256,16,17
 543 599 543 599 481.5 695.5 c 128,-1,18
 420 792 420 792 306 792 c 0,19,20
 193 792 193 792 131 695.5 c 128,-1,21
 69 599 69 599 69 428 c 256,22,23
 69 257 69 257 130 162 c 0,24,25
 193 64 193 64 306 64 c 0,26,27
 420 64 420 64 482 162 c 0,28,29
 543 257 543 257 543 428 c 256,16,17
454 911 m 1,30,-1
 428 868 l 1,31,-1
 145 1028 l 1,32,-1
 188 1099 l 1,33,-1
 454 911 l 1,30,-1
EndSplineSet
Validated: 1
EndChar

StartChar: Oacute
Encoding: 211 211 173
Width: 734
GlyphClass: 1
Flags: W
LayerCount: 2
Fore
SplineSet
635 428 m 256,0,1
 635 211 635 211 540 93 c 0,2,3
 452 -15 452 -15 306 -15 c 256,4,5
 160 -15 160 -15 73 93 c 0,6,7
 -23 211 -23 211 -23 428 c 256,8,9
 -23 645 -23 645 73 763 c 0,10,11
 160 871 160 871 306 871 c 256,12,13
 452 871 452 871 540 763 c 0,14,15
 635 645 635 645 635 428 c 256,0,1
543 428 m 256,16,17
 543 599 543 599 481.5 695.5 c 128,-1,18
 420 792 420 792 306 792 c 0,19,20
 193 792 193 792 131 695.5 c 128,-1,21
 69 599 69 599 69 428 c 256,22,23
 69 257 69 257 130 162 c 0,24,25
 193 64 193 64 306 64 c 0,26,27
 420 64 420 64 482 162 c 0,28,29
 543 257 543 257 543 428 c 256,16,17
466 1028 m 1,30,-1
 183 867 l 1,31,-1
 158 911 l 1,32,-1
 423 1098 l 1,33,-1
 466 1028 l 1,30,-1
EndSplineSet
Validated: 1
EndChar

StartChar: Ocircumflex
Encoding: 212 212 174
Width: 734
GlyphClass: 1
Flags: W
LayerCount: 2
Fore
SplineSet
635 428 m 256,0,1
 635 211 635 211 540 93 c 0,2,3
 452 -15 452 -15 306 -15 c 256,4,5
 160 -15 160 -15 73 93 c 0,6,7
 -23 211 -23 211 -23 428 c 256,8,9
 -23 645 -23 645 73 763 c 0,10,11
 160 871 160 871 306 871 c 256,12,13
 452 871 452 871 540 763 c 0,14,15
 635 645 635 645 635 428 c 256,0,1
543 428 m 256,16,17
 543 599 543 599 481.5 695.5 c 128,-1,18
 420 792 420 792 306 792 c 0,19,20
 193 792 193 792 131 695.5 c 128,-1,21
 69 599 69 599 69 428 c 256,22,23
 69 257 69 257 130 162 c 0,24,25
 193 64 193 64 306 64 c 0,26,27
 420 64 420 64 482 162 c 0,28,29
 543 257 543 257 543 428 c 256,16,17
501 909 m 1,30,-1
 467 866 l 1,31,-1
 308 999 l 1,32,-1
 146 864 l 1,33,-1
 112 908 l 1,34,-1
 307 1097 l 1,35,-1
 501 909 l 1,30,-1
EndSplineSet
Validated: 1
EndChar

StartChar: Otilde
Encoding: 213 213 175
Width: 734
GlyphClass: 1
Flags: W
LayerCount: 2
Fore
SplineSet
635 428 m 256,0,1
 635 211 635 211 540 93 c 0,2,3
 452 -15 452 -15 306 -15 c 256,4,5
 160 -15 160 -15 73 93 c 0,6,7
 -23 211 -23 211 -23 428 c 256,8,9
 -23 645 -23 645 73 763 c 0,10,11
 160 871 160 871 306 871 c 256,12,13
 452 871 452 871 540 763 c 0,14,15
 635 645 635 645 635 428 c 256,0,1
543 428 m 256,16,17
 543 599 543 599 481.5 695.5 c 128,-1,18
 420 792 420 792 306 792 c 0,19,20
 193 792 193 792 131 695.5 c 128,-1,21
 69 599 69 599 69 428 c 256,22,23
 69 257 69 257 130 162 c 0,24,25
 193 64 193 64 306 64 c 0,26,27
 420 64 420 64 482 162 c 0,28,29
 543 257 543 257 543 428 c 256,16,17
555 1015 m 1,30,31
 495 912 495 912 394 912 c 0,32,33
 331 912 331 912 282 958 c 0,34,35
 251 988 251 988 212 988 c 0,36,37
 146 988 146 988 104 916 c 1,38,-1
 51 947 l 1,39,40
 111 1049 111 1049 212 1049 c 0,41,42
 275 1049 275 1049 324 1003 c 0,43,44
 356 974 356 974 394 974 c 0,45,46
 460 974 460 974 503 1046 c 1,47,-1
 555 1015 l 1,30,31
EndSplineSet
Validated: 1
EndChar

StartChar: Odieresis
Encoding: 214 214 176
Width: 734
GlyphClass: 1
Flags: W
LayerCount: 2
Fore
SplineSet
635 428 m 256,0,1
 635 211 635 211 540 93 c 0,2,3
 452 -15 452 -15 306 -15 c 256,4,5
 160 -15 160 -15 73 93 c 0,6,7
 -23 211 -23 211 -23 428 c 256,8,9
 -23 645 -23 645 73 763 c 0,10,11
 160 871 160 871 306 871 c 256,12,13
 452 871 452 871 540 763 c 0,14,15
 635 645 635 645 635 428 c 256,0,1
543 428 m 256,16,17
 543 599 543 599 481.5 695.5 c 128,-1,18
 420 792 420 792 306 792 c 0,19,20
 193 792 193 792 131 695.5 c 128,-1,21
 69 599 69 599 69 428 c 256,22,23
 69 257 69 257 130 162 c 0,24,25
 193 64 193 64 306 64 c 0,26,27
 420 64 420 64 482 162 c 0,28,29
 543 257 543 257 543 428 c 256,16,17
489 977 m 1,30,-1
 367 977 l 1,31,-1
 367 1100 l 1,32,-1
 489 1100 l 1,33,-1
 489 977 l 1,30,-1
245 977 m 1,34,-1
 122 977 l 1,35,-1
 122 1100 l 1,36,-1
 245 1100 l 1,37,-1
 245 977 l 1,34,-1
EndSplineSet
Validated: 1
EndChar

StartChar: multiply
Encoding: 215 215 177
Width: 734
GlyphClass: 1
Flags: W
LayerCount: 2
Fore
SplineSet
548 618 m 1,0,-1
 357 427 l 1,1,-1
 548 237 l 1,2,-1
 496 186 l 1,3,-1
 306 376 l 1,4,-1
 115 186 l 1,5,-1
 64 237 l 1,6,-1
 254 427 l 1,7,-1
 64 618 l 1,8,-1
 115 669 l 1,9,-1
 306 479 l 1,10,-1
 496 669 l 1,11,-1
 548 618 l 1,0,-1
EndSplineSet
Validated: 1
EndChar

StartChar: Oslash
Encoding: 216 216 178
Width: 734
GlyphClass: 1
Flags: W
LayerCount: 2
Fore
SplineSet
642 838 m 1,0,-1
 642 733 l 1,1,-1
 590 678 l 1,2,3
 635 574 635 574 635 429 c 0,4,5
 635 212 635 212 540 94 c 0,6,7
 452 -15 452 -15 306 -15 c 0,8,9
 147 -15 147 -15 59 113 c 1,10,-1
 -30 19 l 1,11,-1
 -30 124 l 1,12,-1
 22 179 l 1,13,14
 -23 283 -23 283 -23 429 c 0,15,16
 -23 646 -23 646 73 763 c 0,17,18
 160 872 160 872 306 872 c 0,19,20
 465 872 465 872 553 744 c 1,21,-1
 642 838 l 1,0,-1
491 677 m 1,22,23
 428 792 428 792 306 792 c 0,24,25
 193 792 193 792 131 696 c 128,-1,26
 69 600 69 600 69 429 c 0,27,28
 69 333 69 333 92 253 c 1,29,-1
 491 677 l 1,22,23
543 429 m 0,30,31
 543 525 543 525 520 604 c 1,32,-1
 121 180 l 1,33,34
 184 65 184 65 306 65 c 0,35,36
 420 65 420 65 481.5 161.5 c 128,-1,37
 543 258 543 258 543 429 c 0,30,31
EndSplineSet
Validated: 1
EndChar

StartChar: Ugrave
Encoding: 217 217 179
Width: 734
GlyphClass: 1
Flags: W
LayerCount: 2
Fore
SplineSet
589 363 m 2,0,1
 589 -15 589 -15 306 -15 c 0,2,3
 24 -15 24 -15 24 363 c 2,4,-1
 24 856 l 1,5,-1
 115 856 l 1,6,-1
 115 363 l 2,7,8
 115 213 115 213 154 144 c 0,9,10
 198 64 198 64 306 64 c 0,11,12
 415 64 415 64 459 144 c 0,13,14
 497 213 497 213 497 363 c 2,15,-1
 497 856 l 1,16,-1
 589 856 l 1,17,-1
 589 363 l 2,0,1
454 911 m 1,18,-1
 428 868 l 1,19,-1
 145 1028 l 1,20,-1
 188 1099 l 1,21,-1
 454 911 l 1,18,-1
EndSplineSet
Validated: 1
EndChar

StartChar: Uacute
Encoding: 218 218 180
Width: 734
GlyphClass: 1
Flags: W
LayerCount: 2
Fore
SplineSet
589 363 m 2,0,1
 589 -15 589 -15 306 -15 c 0,2,3
 24 -15 24 -15 24 363 c 2,4,-1
 24 856 l 1,5,-1
 115 856 l 1,6,-1
 115 363 l 2,7,8
 115 213 115 213 154 144 c 0,9,10
 198 64 198 64 306 64 c 0,11,12
 415 64 415 64 459 144 c 0,13,14
 497 213 497 213 497 363 c 2,15,-1
 497 856 l 1,16,-1
 589 856 l 1,17,-1
 589 363 l 2,0,1
466 1028 m 1,18,-1
 183 867 l 1,19,-1
 158 911 l 1,20,-1
 423 1098 l 1,21,-1
 466 1028 l 1,18,-1
EndSplineSet
Validated: 1
EndChar

StartChar: Ucircumflex
Encoding: 219 219 181
Width: 734
GlyphClass: 1
Flags: W
LayerCount: 2
Fore
SplineSet
589 363 m 2,0,1
 589 -15 589 -15 306 -15 c 0,2,3
 24 -15 24 -15 24 363 c 2,4,-1
 24 856 l 1,5,-1
 115 856 l 1,6,-1
 115 363 l 2,7,8
 115 213 115 213 154 144 c 0,9,10
 198 64 198 64 306 64 c 0,11,12
 415 64 415 64 459 144 c 0,13,14
 497 213 497 213 497 363 c 2,15,-1
 497 856 l 1,16,-1
 589 856 l 1,17,-1
 589 363 l 2,0,1
501 909 m 1,18,-1
 467 866 l 1,19,-1
 308 999 l 1,20,-1
 146 864 l 1,21,-1
 112 908 l 1,22,-1
 307 1097 l 1,23,-1
 501 909 l 1,18,-1
EndSplineSet
Validated: 1
EndChar

StartChar: Udieresis
Encoding: 220 220 182
Width: 734
GlyphClass: 1
Flags: W
LayerCount: 2
Fore
SplineSet
589 363 m 2,0,1
 589 -15 589 -15 306 -15 c 0,2,3
 24 -15 24 -15 24 363 c 2,4,-1
 24 856 l 1,5,-1
 115 856 l 1,6,-1
 115 363 l 2,7,8
 115 213 115 213 154 144 c 0,9,10
 198 64 198 64 306 64 c 0,11,12
 415 64 415 64 459 144 c 0,13,14
 497 213 497 213 497 363 c 2,15,-1
 497 856 l 1,16,-1
 589 856 l 1,17,-1
 589 363 l 2,0,1
489 977 m 1,18,-1
 367 977 l 1,19,-1
 367 1100 l 1,20,-1
 489 1100 l 1,21,-1
 489 977 l 1,18,-1
245 977 m 1,22,-1
 122 977 l 1,23,-1
 122 1100 l 1,24,-1
 245 1100 l 1,25,-1
 245 977 l 1,22,-1
EndSplineSet
Validated: 1
EndChar

StartChar: Yacute
Encoding: 221 221 183
Width: 734
GlyphClass: 1
Flags: W
LayerCount: 2
Fore
SplineSet
466 1028 m 1,0,-1
 183 867 l 1,1,-1
 158 911 l 1,2,-1
 423 1098 l 1,3,-1
 466 1028 l 1,0,-1
627 777 m 1,4,-1
 557 777 l 1,5,-1
 354 370 l 1,6,-1
 354 80 l 1,7,-1
 491 80 l 1,8,-1
 491 1 l 1,9,-1
 124 1 l 1,10,-1
 124 80 l 1,11,-1
 262 80 l 1,12,-1
 262 370 l 1,13,-1
 59 777 l 1,14,-1
 -12 777 l 1,15,-1
 -12 857 l 1,16,-1
 232 857 l 1,17,-1
 232 777 l 1,18,-1
 159 777 l 1,19,-1
 307 467 l 1,20,-1
 309 467 l 1,21,-1
 456 777 l 1,22,-1
 384 777 l 1,23,-1
 384 857 l 1,24,-1
 627 857 l 1,25,-1
 627 777 l 1,4,-1
EndSplineSet
Validated: 1
EndChar

StartChar: Thorn
Encoding: 222 222 184
Width: 734
GlyphClass: 1
Flags: W
LayerCount: 2
Fore
SplineSet
604 473 m 256,0,1
 604 228 604 228 276 228 c 2,2,-1
 118 228 l 1,3,-1
 118 0 l 1,4,-1
 26 0 l 1,5,-1
 26 900 l 1,6,-1
 118 900 l 1,7,-1
 118 718 l 1,8,-1
 276 718 l 2,9,10
 604 718 604 718 604 473 c 256,0,1
512 473 m 256,11,12
 512 638 512 638 276 638 c 2,13,-1
 118 638 l 1,14,-1
 118 308 l 1,15,-1
 276 308 l 2,16,17
 512 308 512 308 512 473 c 256,11,12
EndSplineSet
Validated: 1
EndChar

StartChar: germandbls
Encoding: 223 223 185
Width: 734
GlyphClass: 1
Flags: W
LayerCount: 2
Fore
SplineSet
636 205 m 0,0,1
 636 107 636 107 569 45.5 c 128,-1,2
 502 -16 502 -16 403 -16 c 0,3,4
 347 -16 347 -16 304 2 c 0,5,6
 267 17 267 17 219 56 c 1,7,-1
 270 125 l 1,8,9
 340 61 340 61 403 61 c 0,10,11
 469 61 469 61 506.5 99.5 c 128,-1,12
 544 138 544 138 544 205 c 0,13,14
 544 255 544 255 500 300 c 0,15,16
 458 338 458 338 417 377 c 1,17,18
 373 428 373 428 373 495 c 0,19,20
 373 553 373 553 406 596 c 1,21,22
 437 629 437 629 468 662 c 0,23,24
 502 699 502 699 502 742 c 0,25,26
 502 809 502 809 463 846.5 c 128,-1,27
 424 884 424 884 357 884 c 0,28,29
 105 884 105 884 106 566 c 1,30,-1
 106 566 l 1,31,-1
 106 -124 l 1,32,-1
 14 -124 l 1,33,-1
 14 566 l 2,34,35
 14 739 14 739 97 843 c 0,36,37
 188 958 188 958 357 958 c 0,38,39
 457 958 457 958 523 901 c 0,40,41
 594 841 594 841 594 742 c 0,42,43
 594 688 594 688 560 643 c 1,44,45
 529 609 529 609 498 575 c 0,46,47
 465 536 465 536 465 495 c 0,48,49
 465 455 465 455 509 412 c 0,50,51
 588 336 588 336 591 332 c 0,52,53
 636 276 636 276 636 205 c 0,0,1
EndSplineSet
Validated: 37
EndChar

StartChar: agrave
Encoding: 224 224 186
Width: 734
GlyphClass: 1
Flags: W
LayerCount: 2
Fore
SplineSet
311 627 m 0,0,1
 408 627 408 627 491 562 c 1,2,-1
 491 612 l 1,3,-1
 583 612 l 1,4,-1
 583 0 l 1,5,-1
 491 0 l 1,6,-1
 491 252 l 1,7,8
 474 155 474 155 414 77 c 0,9,10
 344 -17 344 -17 256 -17 c 0,11,12
 130 -17 130 -17 62 76 c 0,13,14
 1 159 1 159 1 290 c 0,15,16
 1 434 1 434 83 528 c 0,17,18
 169 627 169 627 311 627 c 0,0,1
491 469 m 1,19,20
 412 553 412 553 311 553 c 0,21,22
 205 553 205 553 146 472 c 0,23,24
 93 400 93 400 93 290 c 0,25,26
 93 199 93 199 128 140 c 0,27,28
 171 69 171 69 256 69 c 0,29,30
 359 69 359 69 431 198 c 0,31,32
 491 308 491 308 491 421 c 2,33,-1
 491 469 l 1,19,20
454 788 m 1,34,-1
 428 745 l 1,35,-1
 145 905 l 1,36,-1
 188 976 l 1,37,-1
 454 788 l 1,34,-1
EndSplineSet
Validated: 1
EndChar

StartChar: aacute
Encoding: 225 225 187
Width: 734
GlyphClass: 1
Flags: W
LayerCount: 2
Fore
SplineSet
311 627 m 0,0,1
 408 627 408 627 491 562 c 1,2,-1
 491 612 l 1,3,-1
 583 612 l 1,4,-1
 583 0 l 1,5,-1
 491 0 l 1,6,-1
 491 252 l 1,7,8
 474 155 474 155 414 77 c 0,9,10
 344 -17 344 -17 256 -17 c 0,11,12
 130 -17 130 -17 62 76 c 0,13,14
 1 159 1 159 1 290 c 0,15,16
 1 434 1 434 83 528 c 0,17,18
 169 627 169 627 311 627 c 0,0,1
491 469 m 1,19,20
 412 553 412 553 311 553 c 0,21,22
 205 553 205 553 146 472 c 0,23,24
 93 400 93 400 93 290 c 0,25,26
 93 199 93 199 128 140 c 0,27,28
 171 69 171 69 256 69 c 0,29,30
 359 69 359 69 431 198 c 0,31,32
 491 308 491 308 491 421 c 2,33,-1
 491 469 l 1,19,20
466 905 m 1,34,-1
 183 745 l 1,35,-1
 158 788 l 1,36,-1
 423 976 l 1,37,-1
 466 905 l 1,34,-1
EndSplineSet
Validated: 1
EndChar

StartChar: acircumflex
Encoding: 226 226 188
Width: 734
GlyphClass: 1
Flags: W
LayerCount: 2
Fore
SplineSet
311 627 m 0,0,1
 408 627 408 627 491 562 c 1,2,-1
 491 612 l 1,3,-1
 583 612 l 1,4,-1
 583 0 l 1,5,-1
 491 0 l 1,6,-1
 491 252 l 1,7,8
 474 155 474 155 414 77 c 0,9,10
 344 -17 344 -17 256 -17 c 0,11,12
 130 -17 130 -17 62 76 c 0,13,14
 1 159 1 159 1 290 c 0,15,16
 1 434 1 434 83 528 c 0,17,18
 169 627 169 627 311 627 c 0,0,1
491 469 m 1,19,20
 412 553 412 553 311 553 c 0,21,22
 205 553 205 553 146 472 c 0,23,24
 93 400 93 400 93 290 c 0,25,26
 93 199 93 199 128 140 c 0,27,28
 171 69 171 69 256 69 c 0,29,30
 359 69 359 69 431 198 c 0,31,32
 491 308 491 308 491 421 c 2,33,-1
 491 469 l 1,19,20
501 790 m 1,34,-1
 467 746 l 1,35,-1
 308 880 l 1,36,-1
 146 745 l 1,37,-1
 112 788 l 1,38,-1
 307 978 l 1,39,-1
 501 790 l 1,34,-1
EndSplineSet
Validated: 1
EndChar

StartChar: atilde
Encoding: 227 227 189
Width: 734
GlyphClass: 1
Flags: W
LayerCount: 2
Fore
SplineSet
311 627 m 0,0,1
 408 627 408 627 491 562 c 1,2,-1
 491 612 l 1,3,-1
 583 612 l 1,4,-1
 583 0 l 1,5,-1
 491 0 l 1,6,-1
 491 252 l 1,7,8
 474 155 474 155 414 77 c 0,9,10
 344 -17 344 -17 256 -17 c 0,11,12
 130 -17 130 -17 62 76 c 0,13,14
 1 159 1 159 1 290 c 0,15,16
 1 434 1 434 83 528 c 0,17,18
 169 627 169 627 311 627 c 0,0,1
491 469 m 1,19,20
 412 553 412 553 311 553 c 0,21,22
 205 553 205 553 146 472 c 0,23,24
 93 400 93 400 93 290 c 0,25,26
 93 199 93 199 128 140 c 0,27,28
 171 69 171 69 256 69 c 0,29,30
 359 69 359 69 431 198 c 0,31,32
 491 308 491 308 491 421 c 2,33,-1
 491 469 l 1,19,20
555 900 m 1,34,35
 495 797 495 797 394 797 c 0,36,37
 331 797 331 797 282 843 c 0,38,39
 251 873 251 873 212 873 c 0,40,41
 146 873 146 873 104 801 c 1,42,-1
 51 832 l 1,43,44
 111 934 111 934 212 934 c 0,45,46
 275 934 275 934 324 888 c 0,47,48
 356 858 356 858 394 858 c 0,49,50
 460 858 460 858 503 931 c 1,51,-1
 555 900 l 1,34,35
EndSplineSet
Validated: 1
EndChar

StartChar: adieresis
Encoding: 228 228 190
Width: 734
GlyphClass: 1
Flags: W
LayerCount: 2
Fore
SplineSet
311 627 m 0,0,1
 408 627 408 627 491 562 c 1,2,-1
 491 612 l 1,3,-1
 583 612 l 1,4,-1
 583 0 l 1,5,-1
 491 0 l 1,6,-1
 491 252 l 1,7,8
 474 155 474 155 414 77 c 0,9,10
 344 -17 344 -17 256 -17 c 0,11,12
 130 -17 130 -17 62 76 c 0,13,14
 1 159 1 159 1 290 c 0,15,16
 1 434 1 434 83 528 c 0,17,18
 169 627 169 627 311 627 c 0,0,1
491 469 m 1,19,20
 412 553 412 553 311 553 c 0,21,22
 205 553 205 553 146 472 c 0,23,24
 93 400 93 400 93 290 c 0,25,26
 93 199 93 199 128 140 c 0,27,28
 171 69 171 69 256 69 c 0,29,30
 359 69 359 69 431 198 c 0,31,32
 491 308 491 308 491 421 c 2,33,-1
 491 469 l 1,19,20
489 733 m 1,34,-1
 367 733 l 1,35,-1
 367 855 l 1,36,-1
 489 855 l 1,37,-1
 489 733 l 1,34,-1
245 733 m 1,38,-1
 122 733 l 1,39,-1
 122 855 l 1,40,-1
 245 855 l 1,41,-1
 245 733 l 1,38,-1
EndSplineSet
Validated: 1
EndChar

StartChar: aring
Encoding: 229 229 191
Width: 734
GlyphClass: 1
Flags: W
LayerCount: 2
Fore
SplineSet
311 627 m 0,0,1
 408 627 408 627 491 562 c 1,2,-1
 491 612 l 1,3,-1
 583 612 l 1,4,-1
 583 0 l 1,5,-1
 491 0 l 1,6,-1
 491 252 l 1,7,8
 474 155 474 155 414 77 c 0,9,10
 344 -17 344 -17 256 -17 c 0,11,12
 130 -17 130 -17 62 76 c 0,13,14
 1 159 1 159 1 290 c 0,15,16
 1 434 1 434 83 528 c 0,17,18
 169 627 169 627 311 627 c 0,0,1
491 469 m 1,19,20
 412 553 412 553 311 553 c 0,21,22
 205 553 205 553 146 472 c 0,23,24
 93 400 93 400 93 290 c 0,25,26
 93 199 93 199 128 140 c 0,27,28
 171 69 171 69 256 69 c 0,29,30
 359 69 359 69 431 198 c 0,31,32
 491 308 491 308 491 421 c 2,33,-1
 491 469 l 1,19,20
454 825 m 0,34,35
 454 763 454 763 411 720 c 128,-1,36
 368 677 368 677 306 677 c 0,37,38
 245 677 245 677 201.5 720 c 128,-1,39
 158 763 158 763 158 825 c 0,40,41
 158 886 158 886 201.5 929.5 c 128,-1,42
 245 973 245 973 306 973 c 0,43,44
 368 973 368 973 411 929.5 c 128,-1,45
 454 886 454 886 454 825 c 0,34,35
395 825 m 256,46,47
 395 862 395 862 369 888 c 128,-1,48
 343 914 343 914 306 914 c 256,49,50
 269 914 269 914 243 888 c 128,-1,51
 217 862 217 862 217 825 c 256,52,53
 217 788 217 788 243 762 c 128,-1,54
 269 736 269 736 306 736 c 256,55,56
 343 736 343 736 369 762 c 128,-1,57
 395 788 395 788 395 825 c 256,46,47
EndSplineSet
Validated: 1
EndChar

StartChar: ae
Encoding: 230 230 192
Width: 732
GlyphClass: 1
Flags: W
LayerCount: 2
Fore
SplineSet
626 275 m 1,0,-1
 345 275 l 1,1,2
 345 58 345 58 447 58 c 0,3,4
 522 58 522 58 540 150 c 1,5,-1
 614 127 l 1,6,7
 569 -16 569 -16 454 -16 c 0,8,9
 377 -16 377 -16 331 92 c 1,10,-1
 331 1 l 1,11,-1
 255 1 l 1,12,-1
 255 189 l 1,13,14
 234 89 234 89 218 52 c 0,15,16
 188 -16 188 -16 135 -16 c 0,17,18
 56 -16 56 -16 13 77 c 0,19,20
 -26 159 -26 159 -26 290 c 1,21,-1
 -25 290 l 1,22,23
 -25 627 -25 627 162 627 c 0,24,25
 222 627 222 627 255 571 c 1,26,-1
 255 612 l 1,27,-1
 331 612 l 1,28,-1
 331 529 l 1,29,30
 374 627 374 627 446 627 c 0,31,32
 553 627 553 627 596 514 c 0,33,34
 626 433 626 433 626 275 c 1,0,-1
529 355 m 1,35,36
 529 454 529 454 518 492 c 0,37,38
 499 553 499 553 439 553 c 0,39,40
 382 553 382 553 361 492 c 0,41,42
 346 449 346 449 346 355 c 1,43,-1
 529 355 l 1,35,36
255 416 m 2,44,-1
 255 490 l 1,45,46
 218 553 218 553 162 553 c 0,47,48
 66 553 66 553 66 290 c 0,49,50
 66 70 66 70 140 70 c 0,51,52
 195 70 195 70 227 188 c 0,53,54
 255 287 255 287 255 416 c 2,44,-1
EndSplineSet
Validated: 1
EndChar

StartChar: ccedilla
Encoding: 231 231 193
Width: 734
GlyphClass: 1
Flags: W
LayerCount: 2
Fore
SplineSet
594 115 m 1,0,1
 520 -1 520 -1 367 -15 c 1,2,-1
 367 -29 l 2,3,4
 367 -124 367 -124 312 -184 c 128,-1,5
 257 -244 257 -244 159 -244 c 1,6,-1
 159 -168 l 1,7,8
 291 -168 291 -168 291 -29 c 2,9,-1
 291 -15 l 1,10,11
 156 -3 156 -3 78 92 c 0,12,13
 6 179 6 179 6 305 c 0,14,15
 6 441 6 441 82 529 c 0,16,17
 166 627 166 627 316 627 c 0,18,19
 384 627 384 627 441 591 c 0,20,21
 495 557 495 557 508 512 c 1,22,-1
 508 612 l 1,23,-1
 587 612 l 1,24,-1
 587 368 l 1,25,-1
 508 368 l 1,26,27
 508 447 508 447 444 503 c 0,28,29
 386 553 386 553 316 553 c 0,30,31
 204 553 204 553 146 474 c 0,32,33
 97 407 97 407 97 305 c 0,34,35
 97 205 97 205 152 136 c 0,36,37
 215 57 215 57 327 57 c 0,38,39
 395 57 395 57 450 85 c 128,-1,40
 505 113 505 113 531 159 c 1,41,-1
 594 115 l 1,0,1
EndSplineSet
Validated: 1
EndChar

StartChar: egrave
Encoding: 232 232 194
Width: 734
GlyphClass: 1
Flags: W
LayerCount: 2
Fore
SplineSet
618 274 m 1,0,-1
 92 274 l 1,1,2
 101 183 101 183 155 124 c 0,3,4
 217 57 217 57 320 57 c 0,5,6
 388 57 388 57 443 85.5 c 128,-1,7
 498 114 498 114 523 159 c 1,8,-1
 586 115 l 1,9,10
 503 -17 503 -17 320 -17 c 0,11,12
 170 -17 170 -17 81 81 c 0,13,14
 -2 170 -2 170 -2 305 c 0,15,16
 -2 441 -2 441 75 529 c 0,17,18
 159 627 159 627 308 627 c 0,19,20
 472 627 472 627 553 514 c 0,21,22
 618 422 618 422 618 274 c 1,0,-1
522 354 m 1,23,24
 493 553 493 553 308 553 c 0,25,26
 211 553 211 553 154 492 c 0,27,28
 105 440 105 440 93 354 c 1,29,-1
 522 354 l 1,23,24
454 788 m 1,30,-1
 428 745 l 1,31,-1
 145 905 l 1,32,-1
 188 976 l 1,33,-1
 454 788 l 1,30,-1
EndSplineSet
Validated: 1
EndChar

StartChar: eacute
Encoding: 233 233 195
Width: 734
GlyphClass: 1
Flags: W
LayerCount: 2
Fore
SplineSet
618 274 m 1,0,-1
 92 274 l 1,1,2
 101 183 101 183 155 124 c 0,3,4
 217 57 217 57 320 57 c 0,5,6
 388 57 388 57 443 85.5 c 128,-1,7
 498 114 498 114 523 159 c 1,8,-1
 586 115 l 1,9,10
 503 -17 503 -17 320 -17 c 0,11,12
 170 -17 170 -17 81 81 c 0,13,14
 -2 170 -2 170 -2 305 c 0,15,16
 -2 441 -2 441 75 529 c 0,17,18
 159 627 159 627 308 627 c 0,19,20
 472 627 472 627 553 514 c 0,21,22
 618 422 618 422 618 274 c 1,0,-1
522 354 m 1,23,24
 493 553 493 553 308 553 c 0,25,26
 211 553 211 553 154 492 c 0,27,28
 105 440 105 440 93 354 c 1,29,-1
 522 354 l 1,23,24
466 905 m 1,30,-1
 183 745 l 1,31,-1
 158 788 l 1,32,-1
 423 976 l 1,33,-1
 466 905 l 1,30,-1
EndSplineSet
Validated: 1
EndChar

StartChar: ecircumflex
Encoding: 234 234 196
Width: 734
GlyphClass: 1
Flags: W
LayerCount: 2
Fore
SplineSet
618 274 m 1,0,-1
 92 274 l 1,1,2
 101 183 101 183 155 124 c 0,3,4
 217 57 217 57 320 57 c 0,5,6
 388 57 388 57 443 85.5 c 128,-1,7
 498 114 498 114 523 159 c 1,8,-1
 586 115 l 1,9,10
 503 -17 503 -17 320 -17 c 0,11,12
 170 -17 170 -17 81 81 c 0,13,14
 -2 170 -2 170 -2 305 c 0,15,16
 -2 441 -2 441 75 529 c 0,17,18
 159 627 159 627 308 627 c 0,19,20
 472 627 472 627 553 514 c 0,21,22
 618 422 618 422 618 274 c 1,0,-1
522 354 m 1,23,24
 493 553 493 553 308 553 c 0,25,26
 211 553 211 553 154 492 c 0,27,28
 105 440 105 440 93 354 c 1,29,-1
 522 354 l 1,23,24
501 790 m 1,30,-1
 467 746 l 1,31,-1
 308 880 l 1,32,-1
 146 745 l 1,33,-1
 112 788 l 1,34,-1
 307 978 l 1,35,-1
 501 790 l 1,30,-1
EndSplineSet
Validated: 1
EndChar

StartChar: edieresis
Encoding: 235 235 197
Width: 734
GlyphClass: 1
Flags: W
LayerCount: 2
Fore
SplineSet
618 274 m 1,0,-1
 92 274 l 1,1,2
 101 183 101 183 155 124 c 0,3,4
 217 57 217 57 320 57 c 0,5,6
 388 57 388 57 443 85.5 c 128,-1,7
 498 114 498 114 523 159 c 1,8,-1
 586 115 l 1,9,10
 503 -17 503 -17 320 -17 c 0,11,12
 170 -17 170 -17 81 81 c 0,13,14
 -2 170 -2 170 -2 305 c 0,15,16
 -2 441 -2 441 75 529 c 0,17,18
 159 627 159 627 308 627 c 0,19,20
 472 627 472 627 553 514 c 0,21,22
 618 422 618 422 618 274 c 1,0,-1
522 354 m 1,23,24
 493 553 493 553 308 553 c 0,25,26
 211 553 211 553 154 492 c 0,27,28
 105 440 105 440 93 354 c 1,29,-1
 522 354 l 1,23,24
489 733 m 1,30,-1
 367 733 l 1,31,-1
 367 855 l 1,32,-1
 489 855 l 1,33,-1
 489 733 l 1,30,-1
245 733 m 1,34,-1
 122 733 l 1,35,-1
 122 855 l 1,36,-1
 245 855 l 1,37,-1
 245 733 l 1,34,-1
EndSplineSet
Validated: 1
EndChar

StartChar: igrave
Encoding: 236 236 198
Width: 734
GlyphClass: 1
Flags: W
LayerCount: 2
Fore
SplineSet
489 0 m 1,0,-1
 122 0 l 1,1,-1
 122 80 l 1,2,-1
 260 80 l 1,3,-1
 260 532 l 1,4,-1
 122 532 l 1,5,-1
 122 612 l 1,6,-1
 351 612 l 1,7,-1
 351 80 l 1,8,-1
 489 80 l 1,9,-1
 489 0 l 1,0,-1
454 788 m 1,10,-1
 428 745 l 1,11,-1
 145 905 l 1,12,-1
 188 976 l 1,13,-1
 454 788 l 1,10,-1
EndSplineSet
Validated: 1
EndChar

StartChar: iacute
Encoding: 237 237 199
Width: 734
GlyphClass: 1
Flags: W
LayerCount: 2
Fore
SplineSet
489 0 m 1,0,-1
 122 0 l 1,1,-1
 122 80 l 1,2,-1
 260 80 l 1,3,-1
 260 532 l 1,4,-1
 122 532 l 1,5,-1
 122 612 l 1,6,-1
 351 612 l 1,7,-1
 351 80 l 1,8,-1
 489 80 l 1,9,-1
 489 0 l 1,0,-1
466 905 m 1,10,-1
 183 745 l 1,11,-1
 158 788 l 1,12,-1
 423 976 l 1,13,-1
 466 905 l 1,10,-1
EndSplineSet
Validated: 1
EndChar

StartChar: icircumflex
Encoding: 238 238 200
Width: 734
GlyphClass: 1
Flags: W
LayerCount: 2
Fore
SplineSet
489 0 m 1,0,-1
 122 0 l 1,1,-1
 122 80 l 1,2,-1
 260 80 l 1,3,-1
 260 532 l 1,4,-1
 122 532 l 1,5,-1
 122 612 l 1,6,-1
 351 612 l 1,7,-1
 351 80 l 1,8,-1
 489 80 l 1,9,-1
 489 0 l 1,0,-1
501 790 m 1,10,-1
 467 746 l 1,11,-1
 308 880 l 1,12,-1
 146 745 l 1,13,-1
 112 788 l 1,14,-1
 307 978 l 1,15,-1
 501 790 l 1,10,-1
EndSplineSet
Validated: 1
EndChar

StartChar: idieresis
Encoding: 239 239 201
Width: 734
GlyphClass: 1
Flags: W
LayerCount: 2
Fore
SplineSet
489 0 m 1,0,-1
 122 0 l 1,1,-1
 122 80 l 1,2,-1
 260 80 l 1,3,-1
 260 532 l 1,4,-1
 122 532 l 1,5,-1
 122 612 l 1,6,-1
 351 612 l 1,7,-1
 351 80 l 1,8,-1
 489 80 l 1,9,-1
 489 0 l 1,0,-1
489 733 m 1,10,-1
 367 733 l 1,11,-1
 367 855 l 1,12,-1
 489 855 l 1,13,-1
 489 733 l 1,10,-1
245 733 m 1,14,-1
 122 733 l 1,15,-1
 122 855 l 1,16,-1
 245 855 l 1,17,-1
 245 733 l 1,14,-1
EndSplineSet
Validated: 1
EndChar

StartChar: eth
Encoding: 240 240 202
Width: 734
GlyphClass: 1
Flags: W
LayerCount: 2
Fore
SplineSet
652 331 m 0,0,1
 652 165 652 165 560 69 c 0,2,3
 477 -16 477 -16 358 -16 c 0,4,5
 234 -16 234 -16 162 55 c 0,6,7
 95 120 95 120 95 221 c 0,8,9
 95 360 95 360 227 465 c 0,10,11
 330 547 330 547 491 594 c 1,12,13
 447 658 447 658 378 707 c 1,14,-1
 259 589 l 1,15,-1
 208 641 l 1,16,-1
 314 747 l 1,17,18
 262 774 262 774 200 794 c 1,19,-1
 229 871 l 1,20,21
 306 842 306 842 371 803 c 1,22,-1
 467 900 l 1,23,-1
 519 848 l 1,24,-1
 433 762 l 1,25,26
 652 599 652 599 652 331 c 0,0,1
566 331 m 0,27,28
 566 432 566 432 532 515 c 1,29,30
 398 487 398 487 311 429 c 0,31,32
 188 347 188 347 188 220 c 0,33,34
 188 153 188 153 232 110 c 0,35,36
 278 64 278 64 358 64 c 0,37,38
 444 64 444 64 504 136 c 0,39,40
 566 212 566 212 566 331 c 0,27,28
EndSplineSet
Validated: 1
EndChar

StartChar: ntilde
Encoding: 241 241 203
Width: 734
GlyphClass: 1
Flags: W
LayerCount: 2
Fore
SplineSet
585 0 m 1,0,-1
 493 0 l 1,1,-1
 493 377 l 2,2,3
 493 540 493 540 359 540 c 0,4,5
 252 540 252 540 187 460 c 0,6,7
 125 385 125 385 125 274 c 2,8,-1
 125 0 l 1,9,-1
 33 0 l 1,10,-1
 33 612 l 1,11,-1
 125 612 l 1,12,-1
 125 458 l 1,13,14
 189 627 189 627 359 627 c 0,15,16
 585 627 585 627 585 377 c 2,17,-1
 585 0 l 1,0,-1
555 900 m 1,18,19
 495 797 495 797 394 797 c 0,20,21
 331 797 331 797 282 843 c 0,22,23
 251 873 251 873 212 873 c 0,24,25
 146 873 146 873 104 801 c 1,26,-1
 51 832 l 1,27,28
 111 934 111 934 212 934 c 0,29,30
 275 934 275 934 324 888 c 0,31,32
 356 858 356 858 394 858 c 0,33,34
 460 858 460 858 503 931 c 1,35,-1
 555 900 l 1,18,19
EndSplineSet
Validated: 1
EndChar

StartChar: ograve
Encoding: 242 242 204
Width: 734
GlyphClass: 1
Flags: W
LayerCount: 2
Fore
SplineSet
629 304 m 0,0,1
 629 170 629 170 547 80 c 0,2,3
 458 -17 458 -17 307 -17 c 0,4,5
 157 -17 157 -17 68 80 c 0,6,7
 -15 170 -15 170 -15 304 c 0,8,9
 -15 439 -15 439 68 529 c 0,10,11
 157 626 157 626 307 626 c 0,12,13
 458 626 458 626 547 529 c 0,14,15
 629 439 629 439 629 304 c 0,0,1
538 304 m 0,16,17
 538 405 538 405 483 473 c 0,18,19
 420 552 420 552 307 552 c 0,20,21
 195 552 195 552 132 473 c 0,22,23
 77 405 77 405 77 304 c 0,24,25
 77 204 77 204 132 135 c 0,26,27
 195 56 195 56 307 56 c 0,28,29
 420 56 420 56 483 135 c 0,30,31
 538 204 538 204 538 304 c 0,16,17
454 788 m 1,32,-1
 428 745 l 1,33,-1
 145 905 l 1,34,-1
 188 976 l 1,35,-1
 454 788 l 1,32,-1
EndSplineSet
Validated: 1
EndChar

StartChar: oacute
Encoding: 243 243 205
Width: 734
GlyphClass: 1
Flags: W
LayerCount: 2
Fore
SplineSet
629 304 m 0,0,1
 629 170 629 170 547 80 c 0,2,3
 458 -17 458 -17 307 -17 c 0,4,5
 157 -17 157 -17 68 80 c 0,6,7
 -15 170 -15 170 -15 304 c 0,8,9
 -15 439 -15 439 68 529 c 0,10,11
 157 626 157 626 307 626 c 0,12,13
 458 626 458 626 547 529 c 0,14,15
 629 439 629 439 629 304 c 0,0,1
538 304 m 0,16,17
 538 405 538 405 483 473 c 0,18,19
 420 552 420 552 307 552 c 0,20,21
 195 552 195 552 132 473 c 0,22,23
 77 405 77 405 77 304 c 0,24,25
 77 204 77 204 132 135 c 0,26,27
 195 56 195 56 307 56 c 0,28,29
 420 56 420 56 483 135 c 0,30,31
 538 204 538 204 538 304 c 0,16,17
466 905 m 1,32,-1
 183 745 l 1,33,-1
 158 788 l 1,34,-1
 423 976 l 1,35,-1
 466 905 l 1,32,-1
EndSplineSet
Validated: 1
EndChar

StartChar: ocircumflex
Encoding: 244 244 206
Width: 734
GlyphClass: 1
Flags: W
LayerCount: 2
Fore
SplineSet
629 304 m 0,0,1
 629 170 629 170 547 80 c 0,2,3
 458 -17 458 -17 307 -17 c 0,4,5
 157 -17 157 -17 68 80 c 0,6,7
 -15 170 -15 170 -15 304 c 0,8,9
 -15 439 -15 439 68 529 c 0,10,11
 157 626 157 626 307 626 c 0,12,13
 458 626 458 626 547 529 c 0,14,15
 629 439 629 439 629 304 c 0,0,1
538 304 m 0,16,17
 538 405 538 405 483 473 c 0,18,19
 420 552 420 552 307 552 c 0,20,21
 195 552 195 552 132 473 c 0,22,23
 77 405 77 405 77 304 c 0,24,25
 77 204 77 204 132 135 c 0,26,27
 195 56 195 56 307 56 c 0,28,29
 420 56 420 56 483 135 c 0,30,31
 538 204 538 204 538 304 c 0,16,17
501 790 m 1,32,-1
 467 746 l 1,33,-1
 308 880 l 1,34,-1
 146 745 l 1,35,-1
 112 788 l 1,36,-1
 307 978 l 1,37,-1
 501 790 l 1,32,-1
EndSplineSet
Validated: 1
EndChar

StartChar: otilde
Encoding: 245 245 207
Width: 734
GlyphClass: 1
Flags: W
LayerCount: 2
Fore
SplineSet
629 304 m 0,0,1
 629 170 629 170 547 80 c 0,2,3
 458 -17 458 -17 307 -17 c 0,4,5
 157 -17 157 -17 68 80 c 0,6,7
 -15 170 -15 170 -15 304 c 0,8,9
 -15 439 -15 439 68 529 c 0,10,11
 157 626 157 626 307 626 c 0,12,13
 458 626 458 626 547 529 c 0,14,15
 629 439 629 439 629 304 c 0,0,1
538 304 m 0,16,17
 538 405 538 405 483 473 c 0,18,19
 420 552 420 552 307 552 c 0,20,21
 195 552 195 552 132 473 c 0,22,23
 77 405 77 405 77 304 c 0,24,25
 77 204 77 204 132 135 c 0,26,27
 195 56 195 56 307 56 c 0,28,29
 420 56 420 56 483 135 c 0,30,31
 538 204 538 204 538 304 c 0,16,17
555 900 m 1,32,33
 495 797 495 797 394 797 c 0,34,35
 331 797 331 797 282 843 c 0,36,37
 251 873 251 873 212 873 c 0,38,39
 146 873 146 873 104 801 c 1,40,-1
 51 832 l 1,41,42
 111 934 111 934 212 934 c 0,43,44
 275 934 275 934 324 888 c 0,45,46
 356 858 356 858 394 858 c 0,47,48
 460 858 460 858 503 931 c 1,49,-1
 555 900 l 1,32,33
EndSplineSet
Validated: 1
EndChar

StartChar: odieresis
Encoding: 246 246 208
Width: 734
GlyphClass: 1
Flags: W
LayerCount: 2
Fore
SplineSet
629 304 m 0,0,1
 629 170 629 170 547 80 c 0,2,3
 458 -17 458 -17 307 -17 c 0,4,5
 157 -17 157 -17 68 80 c 0,6,7
 -15 170 -15 170 -15 304 c 0,8,9
 -15 439 -15 439 68 529 c 0,10,11
 157 626 157 626 307 626 c 0,12,13
 458 626 458 626 547 529 c 0,14,15
 629 439 629 439 629 304 c 0,0,1
538 304 m 0,16,17
 538 405 538 405 483 473 c 0,18,19
 420 552 420 552 307 552 c 0,20,21
 195 552 195 552 132 473 c 0,22,23
 77 405 77 405 77 304 c 0,24,25
 77 204 77 204 132 135 c 0,26,27
 195 56 195 56 307 56 c 0,28,29
 420 56 420 56 483 135 c 0,30,31
 538 204 538 204 538 304 c 0,16,17
489 733 m 1,32,-1
 367 733 l 1,33,-1
 367 855 l 1,34,-1
 489 855 l 1,35,-1
 489 733 l 1,32,-1
245 733 m 1,36,-1
 122 733 l 1,37,-1
 122 855 l 1,38,-1
 245 855 l 1,39,-1
 245 733 l 1,36,-1
EndSplineSet
Validated: 1
EndChar

StartChar: divide
Encoding: 247 247 209
Width: 732
GlyphClass: 1
Flags: W
LayerCount: 2
Fore
SplineSet
365 612 m 1,0,-1
 244 612 l 1,1,-1
 244 731 l 1,2,-1
 365 731 l 1,3,-1
 365 612 l 1,0,-1
610 392 m 1,4,-1
 0 392 l 1,5,-1
 0 465 l 1,6,-1
 610 465 l 1,7,-1
 610 392 l 1,4,-1
365 123 m 1,8,-1
 244 123 l 1,9,-1
 244 242 l 1,10,-1
 365 242 l 1,11,-1
 365 123 l 1,8,-1
EndSplineSet
Validated: 1
EndChar

StartChar: oslash
Encoding: 248 248 210
Width: 732
GlyphClass: 1
Flags: W
LayerCount: 2
Fore
SplineSet
641 612 m 1,0,-1
 641 534 l 1,1,-1
 579 484 l 1,2,3
 627 405 627 405 627 306 c 0,4,5
 627 163 627 163 537.5 73.5 c 128,-1,6
 448 -16 448 -16 306 -16 c 0,7,8
 159 -16 159 -16 70 78 c 1,9,-1
 -29 -1 l 1,10,-1
 -29 78 l 1,11,-1
 33 127 l 1,12,13
 -15 206 -15 206 -15 306 c 0,14,15
 -15 448 -15 448 74 537.5 c 128,-1,16
 163 627 163 627 306 627 c 0,17,18
 453 627 453 627 542 533 c 1,19,-1
 641 612 l 1,0,-1
475 480 m 1,20,21
 413 553 413 553 306 553 c 0,22,23
 200 553 200 553 136 481 c 0,24,25
 76 413 76 413 76 306 c 0,26,27
 76 240 76 240 103 183 c 1,28,-1
 475 480 l 1,20,21
536 306 m 0,29,30
 536 371 536 371 509 428 c 1,31,-1
 136 131 l 1,32,33
 199 58 199 58 306 58 c 0,34,35
 412 58 412 58 475 130 c 0,36,37
 536 199 536 199 536 306 c 0,29,30
EndSplineSet
Validated: 1
EndChar

StartChar: ugrave
Encoding: 249 249 211
Width: 734
GlyphClass: 1
Flags: W
LayerCount: 2
Fore
SplineSet
584 0 m 1,0,-1
 492 0 l 1,1,-1
 492 154 l 1,2,3
 428 -15 428 -15 258 -15 c 0,4,5
 32 -15 32 -15 32 235 c 2,6,-1
 32 612 l 1,7,-1
 124 612 l 1,8,-1
 124 235 l 2,9,10
 124 71 124 71 258 71 c 0,11,12
 365 71 365 71 430 151 c 0,13,14
 492 227 492 227 492 338 c 2,15,-1
 492 612 l 1,16,-1
 584 612 l 1,17,-1
 584 0 l 1,0,-1
454 788 m 1,18,-1
 428 745 l 1,19,-1
 145 905 l 1,20,-1
 188 976 l 1,21,-1
 454 788 l 1,18,-1
EndSplineSet
Validated: 1
EndChar

StartChar: uacute
Encoding: 250 250 212
Width: 734
GlyphClass: 1
Flags: W
LayerCount: 2
Fore
SplineSet
584 0 m 1,0,-1
 492 0 l 1,1,-1
 492 154 l 1,2,3
 428 -15 428 -15 258 -15 c 0,4,5
 32 -15 32 -15 32 235 c 2,6,-1
 32 612 l 1,7,-1
 124 612 l 1,8,-1
 124 235 l 2,9,10
 124 71 124 71 258 71 c 0,11,12
 365 71 365 71 430 151 c 0,13,14
 492 227 492 227 492 338 c 2,15,-1
 492 612 l 1,16,-1
 584 612 l 1,17,-1
 584 0 l 1,0,-1
466 905 m 1,18,-1
 183 745 l 1,19,-1
 158 788 l 1,20,-1
 423 976 l 1,21,-1
 466 905 l 1,18,-1
EndSplineSet
Validated: 1
EndChar

StartChar: ucircumflex
Encoding: 251 251 213
Width: 734
GlyphClass: 1
Flags: W
LayerCount: 2
Fore
SplineSet
584 0 m 1,0,-1
 492 0 l 1,1,-1
 492 154 l 1,2,3
 428 -15 428 -15 258 -15 c 0,4,5
 32 -15 32 -15 32 235 c 2,6,-1
 32 612 l 1,7,-1
 124 612 l 1,8,-1
 124 235 l 2,9,10
 124 71 124 71 258 71 c 0,11,12
 365 71 365 71 430 151 c 0,13,14
 492 227 492 227 492 338 c 2,15,-1
 492 612 l 1,16,-1
 584 612 l 1,17,-1
 584 0 l 1,0,-1
501 790 m 1,18,-1
 467 746 l 1,19,-1
 308 880 l 1,20,-1
 146 745 l 1,21,-1
 112 788 l 1,22,-1
 307 978 l 1,23,-1
 501 790 l 1,18,-1
EndSplineSet
Validated: 1
EndChar

StartChar: udieresis
Encoding: 252 252 214
Width: 734
GlyphClass: 1
Flags: W
LayerCount: 2
Fore
SplineSet
584 0 m 1,0,-1
 492 0 l 1,1,-1
 492 154 l 1,2,3
 428 -15 428 -15 258 -15 c 0,4,5
 32 -15 32 -15 32 235 c 2,6,-1
 32 612 l 1,7,-1
 124 612 l 1,8,-1
 124 235 l 2,9,10
 124 71 124 71 258 71 c 0,11,12
 365 71 365 71 430 151 c 0,13,14
 492 227 492 227 492 338 c 2,15,-1
 492 612 l 1,16,-1
 584 612 l 1,17,-1
 584 0 l 1,0,-1
489 733 m 1,18,-1
 367 733 l 1,19,-1
 367 855 l 1,20,-1
 489 855 l 1,21,-1
 489 733 l 1,18,-1
245 733 m 1,22,-1
 122 733 l 1,23,-1
 122 855 l 1,24,-1
 245 855 l 1,25,-1
 245 733 l 1,22,-1
EndSplineSet
Validated: 1
EndChar

StartChar: yacute
Encoding: 253 253 215
Width: 734
GlyphClass: 1
Flags: W
LayerCount: 2
Fore
SplineSet
606 611 m 1,0,-1
 314 -139 l 2,1,2
 298 -178 298 -178 257 -207 c 0,3,4
 203 -244 203 -244 128 -244 c 0,5,6
 72 -244 72 -244 6 -222 c 1,7,-1
 26 -130 l 1,8,9
 98 -150 98 -150 135 -150 c 0,10,11
 196 -150 196 -150 216 -101 c 2,12,-1
 251 -17 l 1,13,-1
 -5 611 l 1,14,-1
 102 611 l 1,15,-1
 308 83 l 1,16,-1
 499 611 l 1,17,-1
 606 611 l 1,0,-1
466 905 m 1,18,-1
 183 745 l 1,19,-1
 158 788 l 1,20,-1
 423 976 l 1,21,-1
 466 905 l 1,18,-1
EndSplineSet
Validated: 1
EndChar

StartChar: thorn
Encoding: 254 254 216
Width: 733
GlyphClass: 1
Flags: W
LayerCount: 2
Fore
SplineSet
611 305 m 0,0,1
 611 168 611 168 535 80 c 0,2,3
 451 -17 451 -17 301 -17 c 0,4,5
 204 -17 204 -17 121 48 c 1,6,-1
 121 -244 l 1,7,-1
 29 -244 l 1,8,-1
 29 900 l 1,9,-1
 121 900 l 1,10,-1
 121 562 l 1,11,12
 204 626 204 626 301 626 c 0,13,14
 451 626 451 626 535 529 c 0,15,16
 611 441 611 441 611 305 c 0,0,1
520 305 m 0,17,18
 520 407 520 407 471 474 c 0,19,20
 413 553 413 553 301 553 c 0,21,22
 201 553 201 553 121 469 c 1,23,-1
 121 141 l 1,24,25
 201 57 201 57 301 57 c 0,26,27
 413 57 413 57 471 136 c 0,28,29
 520 202 520 202 520 305 c 0,17,18
EndSplineSet
Validated: 1
EndChar

StartChar: ydieresis
Encoding: 255 255 217
Width: 734
GlyphClass: 1
Flags: W
LayerCount: 2
Fore
SplineSet
606 611 m 1,0,-1
 314 -139 l 2,1,2
 298 -178 298 -178 257 -207 c 0,3,4
 203 -244 203 -244 128 -244 c 0,5,6
 72 -244 72 -244 6 -222 c 1,7,-1
 26 -130 l 1,8,9
 98 -150 98 -150 135 -150 c 0,10,11
 196 -150 196 -150 216 -101 c 2,12,-1
 251 -17 l 1,13,-1
 -5 611 l 1,14,-1
 102 611 l 1,15,-1
 308 83 l 1,16,-1
 499 611 l 1,17,-1
 606 611 l 1,0,-1
489 733 m 1,18,-1
 367 733 l 1,19,-1
 367 855 l 1,20,-1
 489 855 l 1,21,-1
 489 733 l 1,18,-1
245 733 m 1,22,-1
 122 733 l 1,23,-1
 122 855 l 1,24,-1
 245 855 l 1,25,-1
 245 733 l 1,22,-1
EndSplineSet
Validated: 1
EndChar

